; NON-PLATED HOLES START AT T1
; THROUGH (PLATED) HOLES START AT T100
M48
INCH
T1C0.125984
T100C0.044554
T101C0.128889
T102C0.036000
T103C0.038000
T104C0.035000
T105C0.015748
T106C0.032000
%
T1
X028286Y020280
X001274Y020054
X036067Y007824
T100
X016051Y002561
X029468Y002561
X014329Y002561
X016468Y003561
X032051Y002561
X016468Y001561
X029885Y003561
X013024Y003561
X029024Y003561
X032468Y001561
X015607Y001561
X030329Y002561
X031190Y002561
X031607Y003561
X032913Y002561
X032468Y003561
X029885Y001561
X030746Y001561
X031607Y001561
X013885Y001561
X015607Y003561
X016913Y002561
X013468Y002561
X029024Y001561
X013024Y001561
X014746Y001561
X030746Y003561
X015190Y002561
X014746Y003561
X013885Y003561
T101
X035968Y002353
X026121Y002353
X019968Y002353
X010121Y002353
T102
X001627Y006549
X007627Y011549
X001627Y007549
X001627Y010549
X001627Y009549
X007627Y009549
X001627Y014549
X007627Y013549
X001627Y015549
X007627Y004549
X001627Y012549
X001627Y013549
X001627Y003549
X007627Y012549
X007627Y007549
X001627Y017549
X001627Y011549
X007627Y015549
X007627Y016549
X001627Y004549
X001627Y016549
X007627Y010549
X001627Y005549
X007627Y014549
X007627Y017549
X007627Y008549
X007627Y006549
X007627Y003549
X007627Y005549
X001627Y008549
T103
X034750Y020011
X032750Y020011
X033750Y020011
T104
X032791Y017989
X024622Y014101
X028905Y014095
X018467Y008902
X030232Y017989
X030232Y016217
X027844Y007298
X034232Y017971
X015296Y007525
X020637Y015353
X011296Y007525
X036791Y017971
X027358Y018938
X024607Y017562
X030237Y014091
X031358Y018938
X024607Y016515
X034237Y014091
X028905Y010095
X020607Y016515
X020622Y014101
X024607Y019562
X024637Y015353
X034232Y016199
X020607Y017562
X032791Y016217
X022467Y008902
X036791Y016199
X020607Y019562
X031844Y007298
T105
X027142Y010445
X018042Y001093
X005181Y015042
X009851Y015620
X023698Y013091
X023765Y002679
X005147Y011037
X014607Y015029
X014607Y017055
X009355Y010030
X022983Y018569
X021752Y019044
X009017Y015059
X020024Y009569
X014014Y014562
X020049Y007292
X027892Y008857
X003251Y015024
X018636Y014562
X003692Y020155
X014207Y010867
X024306Y013082
X024671Y012440
X028950Y015564
X000972Y011040
X013141Y006872
X012828Y014611
X034180Y003065
X010496Y004505
X005592Y004570
X006315Y018118
T106
X018636Y013960
X015636Y011960
X010482Y010981
X010482Y011981
X018618Y017569
X015618Y018569
X015618Y019569
X015636Y012960
X013607Y016562
X010607Y016562
X015636Y013960
X010607Y019562
X013482Y012981
X013482Y010981
X010607Y018562
X018636Y010960
X010607Y017562
X018618Y018569
X018636Y012960
X013482Y011981
X010482Y012981
X013607Y017562
X015618Y017569
X018618Y016569
X015618Y016569
X010482Y013981
X013607Y019562
X018636Y011960
X013607Y018562
X013482Y013981
X018618Y019569
X015636Y010960
T00
M30
