G04 MADE WITH FRITZING*
G04 WWW.FRITZING.ORG*
G04 DOUBLE SIDED*
G04 HOLES PLATED*
G04 CONTOUR ON CENTER OF CONTOUR VECTOR*
%ASAXBY*%
%FSLAX23Y23*%
%MOIN*%
%OFA0B0*%
%SFA1.0B1.0*%
%ADD10C,0.073000*%
%ADD11C,0.080000*%
%ADD12C,0.088000*%
%ADD13C,0.085000*%
%ADD14C,0.208889*%
%ADD15C,0.082113*%
%ADD16C,0.049370*%
%ADD17C,0.135984*%
%ADD18R,0.079972X0.080000*%
%ADD19R,0.088000X0.088000*%
%LNMASK1*%
G90*
G70*
G54D10*
X1562Y1957D03*
X1562Y1857D03*
X1562Y1757D03*
X1562Y1657D03*
X1862Y1657D03*
X1862Y1757D03*
X1862Y1857D03*
X1862Y1957D03*
X1562Y1957D03*
X1562Y1857D03*
X1562Y1757D03*
X1562Y1657D03*
X1862Y1657D03*
X1862Y1757D03*
X1862Y1857D03*
X1862Y1957D03*
X1564Y1396D03*
X1564Y1296D03*
X1564Y1196D03*
X1564Y1096D03*
X1864Y1096D03*
X1864Y1196D03*
X1864Y1296D03*
X1864Y1396D03*
X1564Y1396D03*
X1564Y1296D03*
X1564Y1196D03*
X1564Y1096D03*
X1864Y1096D03*
X1864Y1196D03*
X1864Y1296D03*
X1864Y1396D03*
X1048Y1398D03*
X1048Y1298D03*
X1048Y1198D03*
X1048Y1098D03*
X1348Y1098D03*
X1348Y1198D03*
X1348Y1298D03*
X1348Y1398D03*
X1048Y1398D03*
X1048Y1298D03*
X1048Y1198D03*
X1048Y1098D03*
X1348Y1098D03*
X1348Y1198D03*
X1348Y1298D03*
X1348Y1398D03*
G54D11*
X163Y1755D03*
X163Y1655D03*
X163Y1555D03*
X163Y1455D03*
X163Y1355D03*
X163Y1255D03*
X163Y1155D03*
X163Y1055D03*
X163Y955D03*
X163Y855D03*
X163Y755D03*
X163Y655D03*
X163Y555D03*
X163Y455D03*
X163Y355D03*
X763Y1755D03*
X763Y1655D03*
X763Y1555D03*
X763Y1455D03*
X763Y1355D03*
X763Y1255D03*
X763Y1155D03*
X763Y1055D03*
X763Y955D03*
X763Y855D03*
X763Y755D03*
X763Y655D03*
X763Y555D03*
X763Y455D03*
X763Y355D03*
G54D10*
X1061Y1956D03*
X1061Y1856D03*
X1061Y1756D03*
X1061Y1656D03*
X1361Y1656D03*
X1361Y1756D03*
X1361Y1856D03*
X1361Y1956D03*
X1061Y1956D03*
X1061Y1856D03*
X1061Y1756D03*
X1061Y1656D03*
X1361Y1656D03*
X1361Y1756D03*
X1361Y1856D03*
X1361Y1956D03*
G54D12*
X3275Y2001D03*
X3375Y2001D03*
X3475Y2001D03*
G54D13*
X3184Y730D03*
X2784Y730D03*
X1530Y753D03*
X1130Y753D03*
X2062Y1410D03*
X2462Y1410D03*
X2064Y1535D03*
X2464Y1535D03*
X2061Y1652D03*
X2461Y1652D03*
X2061Y1756D03*
X2461Y1756D03*
X2061Y1956D03*
X2461Y1956D03*
G54D14*
X1012Y235D03*
G54D15*
X1302Y356D03*
X1389Y356D03*
X1475Y356D03*
X1561Y356D03*
X1647Y356D03*
X1347Y256D03*
X1433Y256D03*
X1519Y256D03*
X1605Y256D03*
X1691Y256D03*
X1302Y156D03*
X1389Y156D03*
X1475Y156D03*
X1561Y156D03*
X1647Y156D03*
G54D14*
X1997Y235D03*
X2612Y235D03*
G54D15*
X2902Y356D03*
X2989Y356D03*
X3075Y356D03*
X3161Y356D03*
X3247Y356D03*
X2947Y256D03*
X3033Y256D03*
X3119Y256D03*
X3205Y256D03*
X3291Y256D03*
X2902Y156D03*
X2989Y156D03*
X3075Y156D03*
X3161Y156D03*
X3247Y156D03*
G54D14*
X3597Y235D03*
G54D16*
X559Y457D03*
X1283Y1461D03*
X1864Y1456D03*
X1401Y1456D03*
X632Y1812D03*
X97Y1104D03*
X515Y1104D03*
G54D13*
X3023Y1799D03*
X3279Y1799D03*
X3023Y1622D03*
X3279Y1622D03*
X3423Y1797D03*
X3679Y1797D03*
X3423Y1620D03*
X3679Y1620D03*
G54D16*
X2895Y1556D03*
X2175Y1904D03*
X2298Y1857D03*
X936Y1003D03*
G54D13*
X2891Y1010D03*
X2891Y1410D03*
G54D16*
X1421Y1087D03*
X1461Y1503D03*
X1461Y1706D03*
X2714Y1045D03*
X2467Y1244D03*
X2370Y1309D03*
X2431Y1308D03*
X2377Y268D03*
G54D13*
X1847Y890D03*
X2247Y890D03*
X3024Y1409D03*
X3424Y1409D03*
X2736Y1894D03*
X3136Y1894D03*
G54D16*
X2005Y729D03*
X2002Y957D03*
X369Y2016D03*
X985Y1562D03*
X325Y1502D03*
X518Y1504D03*
X902Y1506D03*
X2789Y886D03*
X1314Y687D03*
X1050Y451D03*
X3418Y307D03*
X1804Y109D03*
G54D17*
X3607Y782D03*
X127Y2005D03*
X2829Y2028D03*
G54D18*
X163Y1755D03*
G54D19*
X3275Y2001D03*
G04 End of Mask1*
M02*