G04 MADE WITH FRITZING*
G04 WWW.FRITZING.ORG*
G04 DOUBLE SIDED*
G04 HOLES PLATED*
G04 CONTOUR ON CENTER OF CONTOUR VECTOR*
%ASAXBY*%
%FSLAX23Y23*%
%MOIN*%
%OFA0B0*%
%SFA1.0B1.0*%
%ADD10C,0.085000*%
%ADD11C,0.062000*%
%ADD12C,0.084000*%
%ADD13C,0.210000*%
%ADD14R,0.085000X0.085000*%
%ADD15R,0.001000X0.001000*%
%LNMASK0*%
G90*
G70*
G54D10*
X2006Y1272D03*
X2006Y972D03*
X1906Y1272D03*
X1906Y972D03*
X1806Y1272D03*
X1806Y972D03*
X1706Y1272D03*
X1706Y972D03*
X1606Y1272D03*
X1606Y972D03*
X1506Y1272D03*
X1506Y972D03*
X1406Y1272D03*
X1406Y972D03*
X1306Y1272D03*
X1306Y972D03*
X2844Y829D03*
X2844Y529D03*
X2744Y829D03*
X2744Y529D03*
X2644Y829D03*
X2644Y529D03*
X2544Y829D03*
X2544Y529D03*
X2444Y829D03*
X2444Y529D03*
X2344Y829D03*
X2344Y529D03*
X2244Y829D03*
X2244Y529D03*
X2144Y829D03*
X2144Y529D03*
G54D11*
X2390Y762D03*
X2490Y762D03*
X2990Y762D03*
X3090Y762D03*
X2590Y762D03*
X2690Y762D03*
X2890Y762D03*
X2790Y762D03*
X3190Y762D03*
X3290Y762D03*
X3290Y1062D03*
X3190Y1062D03*
X3090Y1062D03*
X2990Y1062D03*
X2890Y1062D03*
X2790Y1062D03*
X2690Y1062D03*
X2590Y1062D03*
X2490Y1062D03*
X2390Y1062D03*
X2390Y762D03*
X2490Y762D03*
X2990Y762D03*
X3090Y762D03*
X2590Y762D03*
X2690Y762D03*
X2890Y762D03*
X2790Y762D03*
X3190Y762D03*
X3290Y762D03*
X3290Y1062D03*
X3190Y1062D03*
X3090Y1062D03*
X2990Y1062D03*
X2890Y1062D03*
X2790Y1062D03*
X2690Y1062D03*
X2590Y1062D03*
X2490Y1062D03*
X2390Y1062D03*
G54D10*
X1506Y1472D03*
X1806Y1472D03*
X1506Y1372D03*
X1806Y1372D03*
X1506Y1272D03*
X1806Y1272D03*
X1506Y1172D03*
X1806Y1172D03*
X1506Y1072D03*
X1806Y1072D03*
X1506Y972D03*
X1806Y972D03*
X1506Y872D03*
X1806Y872D03*
X1506Y772D03*
X1806Y772D03*
X2271Y1579D03*
X2671Y1579D03*
X2271Y1579D03*
X2671Y1579D03*
X2716Y1134D03*
X2716Y1034D03*
G54D12*
X1437Y1071D03*
X1547Y1071D03*
X1656Y1071D03*
X1765Y1071D03*
X1874Y1071D03*
X1492Y1183D03*
X1601Y1183D03*
X1710Y1183D03*
X1819Y1183D03*
G54D13*
X1163Y1127D03*
X2148Y1127D03*
G54D12*
X226Y864D03*
X335Y864D03*
X444Y864D03*
X553Y864D03*
X662Y864D03*
X281Y976D03*
X390Y976D03*
X498Y976D03*
X607Y976D03*
G54D13*
X936Y920D03*
G54D12*
X226Y164D03*
X335Y164D03*
X444Y164D03*
X553Y164D03*
X662Y164D03*
X281Y276D03*
X390Y276D03*
X498Y276D03*
X607Y276D03*
G54D13*
X936Y220D03*
G54D10*
X1806Y1272D03*
X1806Y972D03*
X1706Y1272D03*
X1706Y972D03*
X1606Y1272D03*
X1606Y972D03*
X1506Y1272D03*
X1506Y972D03*
G54D14*
X2006Y1272D03*
X2844Y829D03*
X1506Y1472D03*
X2716Y1134D03*
X1806Y1272D03*
G54D15*
X2385Y1119D02*
X2396Y1119D01*
X2485Y1119D02*
X2496Y1119D01*
X2585Y1119D02*
X2596Y1119D01*
X2685Y1119D02*
X2696Y1119D01*
X2785Y1119D02*
X2796Y1119D01*
X2885Y1119D02*
X2896Y1119D01*
X2984Y1119D02*
X2996Y1119D01*
X3084Y1119D02*
X3096Y1119D01*
X3184Y1119D02*
X3196Y1119D01*
X3284Y1119D02*
X3296Y1119D01*
X2381Y1118D02*
X2400Y1118D01*
X2481Y1118D02*
X2500Y1118D01*
X2581Y1118D02*
X2600Y1118D01*
X2681Y1118D02*
X2700Y1118D01*
X2781Y1118D02*
X2800Y1118D01*
X2881Y1118D02*
X2900Y1118D01*
X2981Y1118D02*
X3000Y1118D01*
X3081Y1118D02*
X3100Y1118D01*
X3181Y1118D02*
X3200Y1118D01*
X3281Y1118D02*
X3300Y1118D01*
X2378Y1117D02*
X2402Y1117D01*
X2478Y1117D02*
X2502Y1117D01*
X2578Y1117D02*
X2602Y1117D01*
X2678Y1117D02*
X2702Y1117D01*
X2778Y1117D02*
X2802Y1117D01*
X2878Y1117D02*
X2902Y1117D01*
X2978Y1117D02*
X3002Y1117D01*
X3078Y1117D02*
X3102Y1117D01*
X3178Y1117D02*
X3202Y1117D01*
X3278Y1117D02*
X3302Y1117D01*
X2376Y1116D02*
X2404Y1116D01*
X2476Y1116D02*
X2504Y1116D01*
X2576Y1116D02*
X2604Y1116D01*
X2676Y1116D02*
X2704Y1116D01*
X2776Y1116D02*
X2804Y1116D01*
X2876Y1116D02*
X2904Y1116D01*
X2976Y1116D02*
X3004Y1116D01*
X3076Y1116D02*
X3104Y1116D01*
X3176Y1116D02*
X3204Y1116D01*
X3276Y1116D02*
X3304Y1116D01*
X2375Y1115D02*
X2406Y1115D01*
X2475Y1115D02*
X2506Y1115D01*
X2575Y1115D02*
X2606Y1115D01*
X2675Y1115D02*
X2706Y1115D01*
X2775Y1115D02*
X2806Y1115D01*
X2875Y1115D02*
X2906Y1115D01*
X2975Y1115D02*
X3006Y1115D01*
X3075Y1115D02*
X3106Y1115D01*
X3175Y1115D02*
X3206Y1115D01*
X3275Y1115D02*
X3306Y1115D01*
X2373Y1114D02*
X2408Y1114D01*
X2473Y1114D02*
X2508Y1114D01*
X2573Y1114D02*
X2608Y1114D01*
X2673Y1114D02*
X2708Y1114D01*
X2773Y1114D02*
X2808Y1114D01*
X2873Y1114D02*
X2908Y1114D01*
X2973Y1114D02*
X3008Y1114D01*
X3073Y1114D02*
X3108Y1114D01*
X3173Y1114D02*
X3208Y1114D01*
X3273Y1114D02*
X3308Y1114D01*
X1396Y1113D02*
X1479Y1113D01*
X2372Y1113D02*
X2409Y1113D01*
X2472Y1113D02*
X2509Y1113D01*
X2572Y1113D02*
X2609Y1113D01*
X2672Y1113D02*
X2709Y1113D01*
X2772Y1113D02*
X2809Y1113D01*
X2872Y1113D02*
X2909Y1113D01*
X2972Y1113D02*
X3009Y1113D01*
X3072Y1113D02*
X3109Y1113D01*
X3172Y1113D02*
X3209Y1113D01*
X3272Y1113D02*
X3309Y1113D01*
X1396Y1112D02*
X1479Y1112D01*
X2371Y1112D02*
X2410Y1112D01*
X2471Y1112D02*
X2510Y1112D01*
X2570Y1112D02*
X2610Y1112D01*
X2670Y1112D02*
X2710Y1112D01*
X2770Y1112D02*
X2810Y1112D01*
X2870Y1112D02*
X2910Y1112D01*
X2970Y1112D02*
X3010Y1112D01*
X3070Y1112D02*
X3110Y1112D01*
X3170Y1112D02*
X3210Y1112D01*
X3270Y1112D02*
X3310Y1112D01*
X1396Y1111D02*
X1479Y1111D01*
X2369Y1111D02*
X2411Y1111D01*
X2469Y1111D02*
X2511Y1111D01*
X2569Y1111D02*
X2611Y1111D01*
X2669Y1111D02*
X2711Y1111D01*
X2769Y1111D02*
X2811Y1111D01*
X2869Y1111D02*
X2911Y1111D01*
X2969Y1111D02*
X3011Y1111D01*
X3069Y1111D02*
X3111Y1111D01*
X3169Y1111D02*
X3211Y1111D01*
X3269Y1111D02*
X3311Y1111D01*
X1396Y1110D02*
X1479Y1110D01*
X2368Y1110D02*
X2412Y1110D01*
X2468Y1110D02*
X2512Y1110D01*
X2568Y1110D02*
X2612Y1110D01*
X2668Y1110D02*
X2712Y1110D01*
X2768Y1110D02*
X2812Y1110D01*
X2868Y1110D02*
X2912Y1110D01*
X2968Y1110D02*
X3012Y1110D01*
X3068Y1110D02*
X3112Y1110D01*
X3168Y1110D02*
X3212Y1110D01*
X3268Y1110D02*
X3312Y1110D01*
X1396Y1109D02*
X1479Y1109D01*
X2368Y1109D02*
X2413Y1109D01*
X2468Y1109D02*
X2513Y1109D01*
X2568Y1109D02*
X2613Y1109D01*
X2667Y1109D02*
X2713Y1109D01*
X2767Y1109D02*
X2813Y1109D01*
X2867Y1109D02*
X2913Y1109D01*
X2967Y1109D02*
X3013Y1109D01*
X3067Y1109D02*
X3113Y1109D01*
X3167Y1109D02*
X3213Y1109D01*
X3267Y1109D02*
X3313Y1109D01*
X1396Y1108D02*
X1479Y1108D01*
X2367Y1108D02*
X2414Y1108D01*
X2467Y1108D02*
X2514Y1108D01*
X2567Y1108D02*
X2614Y1108D01*
X2667Y1108D02*
X2714Y1108D01*
X2767Y1108D02*
X2814Y1108D01*
X2867Y1108D02*
X2914Y1108D01*
X2967Y1108D02*
X3014Y1108D01*
X3067Y1108D02*
X3114Y1108D01*
X3167Y1108D02*
X3214Y1108D01*
X3267Y1108D02*
X3314Y1108D01*
X1396Y1107D02*
X1479Y1107D01*
X2366Y1107D02*
X2415Y1107D01*
X2466Y1107D02*
X2515Y1107D01*
X2566Y1107D02*
X2615Y1107D01*
X2666Y1107D02*
X2715Y1107D01*
X2766Y1107D02*
X2815Y1107D01*
X2866Y1107D02*
X2915Y1107D01*
X2966Y1107D02*
X3015Y1107D01*
X3066Y1107D02*
X3115Y1107D01*
X3166Y1107D02*
X3215Y1107D01*
X3266Y1107D02*
X3315Y1107D01*
X1396Y1106D02*
X1479Y1106D01*
X2365Y1106D02*
X2416Y1106D01*
X2465Y1106D02*
X2516Y1106D01*
X2565Y1106D02*
X2616Y1106D01*
X2665Y1106D02*
X2716Y1106D01*
X2765Y1106D02*
X2816Y1106D01*
X2865Y1106D02*
X2916Y1106D01*
X2965Y1106D02*
X3016Y1106D01*
X3065Y1106D02*
X3116Y1106D01*
X3165Y1106D02*
X3216Y1106D01*
X3265Y1106D02*
X3316Y1106D01*
X1396Y1105D02*
X1479Y1105D01*
X2365Y1105D02*
X2416Y1105D01*
X2465Y1105D02*
X2516Y1105D01*
X2565Y1105D02*
X2616Y1105D01*
X2665Y1105D02*
X2716Y1105D01*
X2765Y1105D02*
X2816Y1105D01*
X2865Y1105D02*
X2916Y1105D01*
X2965Y1105D02*
X3016Y1105D01*
X3065Y1105D02*
X3116Y1105D01*
X3165Y1105D02*
X3216Y1105D01*
X3265Y1105D02*
X3316Y1105D01*
X1396Y1104D02*
X1479Y1104D01*
X2364Y1104D02*
X2417Y1104D01*
X2464Y1104D02*
X2517Y1104D01*
X2564Y1104D02*
X2617Y1104D01*
X2664Y1104D02*
X2717Y1104D01*
X2764Y1104D02*
X2817Y1104D01*
X2864Y1104D02*
X2917Y1104D01*
X2964Y1104D02*
X3017Y1104D01*
X3064Y1104D02*
X3117Y1104D01*
X3164Y1104D02*
X3217Y1104D01*
X3264Y1104D02*
X3317Y1104D01*
X1396Y1103D02*
X1479Y1103D01*
X2364Y1103D02*
X2417Y1103D01*
X2464Y1103D02*
X2517Y1103D01*
X2564Y1103D02*
X2617Y1103D01*
X2664Y1103D02*
X2717Y1103D01*
X2764Y1103D02*
X2817Y1103D01*
X2863Y1103D02*
X2917Y1103D01*
X2963Y1103D02*
X3017Y1103D01*
X3063Y1103D02*
X3117Y1103D01*
X3163Y1103D02*
X3217Y1103D01*
X3263Y1103D02*
X3317Y1103D01*
X1396Y1102D02*
X1479Y1102D01*
X2363Y1102D02*
X2418Y1102D01*
X2463Y1102D02*
X2518Y1102D01*
X2563Y1102D02*
X2618Y1102D01*
X2663Y1102D02*
X2718Y1102D01*
X2763Y1102D02*
X2818Y1102D01*
X2863Y1102D02*
X2918Y1102D01*
X2963Y1102D02*
X3018Y1102D01*
X3063Y1102D02*
X3118Y1102D01*
X3163Y1102D02*
X3218Y1102D01*
X3263Y1102D02*
X3318Y1102D01*
X1396Y1101D02*
X1479Y1101D01*
X2363Y1101D02*
X2418Y1101D01*
X2463Y1101D02*
X2518Y1101D01*
X2563Y1101D02*
X2618Y1101D01*
X2663Y1101D02*
X2718Y1101D01*
X2763Y1101D02*
X2818Y1101D01*
X2863Y1101D02*
X2918Y1101D01*
X2963Y1101D02*
X3018Y1101D01*
X3063Y1101D02*
X3118Y1101D01*
X3162Y1101D02*
X3218Y1101D01*
X3262Y1101D02*
X3318Y1101D01*
X1396Y1100D02*
X1479Y1100D01*
X2362Y1100D02*
X2419Y1100D01*
X2462Y1100D02*
X2519Y1100D01*
X2562Y1100D02*
X2619Y1100D01*
X2662Y1100D02*
X2719Y1100D01*
X2762Y1100D02*
X2819Y1100D01*
X2862Y1100D02*
X2919Y1100D01*
X2962Y1100D02*
X3019Y1100D01*
X3062Y1100D02*
X3119Y1100D01*
X3162Y1100D02*
X3219Y1100D01*
X3262Y1100D02*
X3319Y1100D01*
X1396Y1099D02*
X1479Y1099D01*
X2362Y1099D02*
X2419Y1099D01*
X2462Y1099D02*
X2519Y1099D01*
X2562Y1099D02*
X2619Y1099D01*
X2662Y1099D02*
X2719Y1099D01*
X2762Y1099D02*
X2819Y1099D01*
X2862Y1099D02*
X2919Y1099D01*
X2962Y1099D02*
X3019Y1099D01*
X3062Y1099D02*
X3119Y1099D01*
X3162Y1099D02*
X3219Y1099D01*
X3262Y1099D02*
X3319Y1099D01*
X1396Y1098D02*
X1479Y1098D01*
X2361Y1098D02*
X2419Y1098D01*
X2461Y1098D02*
X2519Y1098D01*
X2561Y1098D02*
X2619Y1098D01*
X2661Y1098D02*
X2719Y1098D01*
X2761Y1098D02*
X2819Y1098D01*
X2861Y1098D02*
X2919Y1098D01*
X2961Y1098D02*
X3019Y1098D01*
X3061Y1098D02*
X3119Y1098D01*
X3161Y1098D02*
X3219Y1098D01*
X3261Y1098D02*
X3319Y1098D01*
X1396Y1097D02*
X1479Y1097D01*
X2361Y1097D02*
X2420Y1097D01*
X2461Y1097D02*
X2520Y1097D01*
X2561Y1097D02*
X2620Y1097D01*
X2661Y1097D02*
X2720Y1097D01*
X2761Y1097D02*
X2820Y1097D01*
X2861Y1097D02*
X2920Y1097D01*
X2961Y1097D02*
X3020Y1097D01*
X3061Y1097D02*
X3120Y1097D01*
X3161Y1097D02*
X3220Y1097D01*
X3261Y1097D02*
X3320Y1097D01*
X1396Y1096D02*
X1479Y1096D01*
X2361Y1096D02*
X2420Y1096D01*
X2461Y1096D02*
X2520Y1096D01*
X2561Y1096D02*
X2620Y1096D01*
X2661Y1096D02*
X2720Y1096D01*
X2761Y1096D02*
X2820Y1096D01*
X2861Y1096D02*
X2920Y1096D01*
X2961Y1096D02*
X3020Y1096D01*
X3061Y1096D02*
X3120Y1096D01*
X3161Y1096D02*
X3220Y1096D01*
X3261Y1096D02*
X3320Y1096D01*
X1396Y1095D02*
X1479Y1095D01*
X2361Y1095D02*
X2420Y1095D01*
X2461Y1095D02*
X2520Y1095D01*
X2561Y1095D02*
X2620Y1095D01*
X2661Y1095D02*
X2720Y1095D01*
X2761Y1095D02*
X2820Y1095D01*
X2861Y1095D02*
X2920Y1095D01*
X2961Y1095D02*
X3020Y1095D01*
X3061Y1095D02*
X3120Y1095D01*
X3161Y1095D02*
X3220Y1095D01*
X3261Y1095D02*
X3320Y1095D01*
X1396Y1094D02*
X1479Y1094D01*
X2360Y1094D02*
X2420Y1094D01*
X2460Y1094D02*
X2520Y1094D01*
X2560Y1094D02*
X2620Y1094D01*
X2660Y1094D02*
X2720Y1094D01*
X2760Y1094D02*
X2820Y1094D01*
X2860Y1094D02*
X2920Y1094D01*
X2960Y1094D02*
X3020Y1094D01*
X3060Y1094D02*
X3120Y1094D01*
X3160Y1094D02*
X3220Y1094D01*
X3260Y1094D02*
X3320Y1094D01*
X1396Y1093D02*
X1479Y1093D01*
X2360Y1093D02*
X2421Y1093D01*
X2460Y1093D02*
X2521Y1093D01*
X2560Y1093D02*
X2621Y1093D01*
X2660Y1093D02*
X2721Y1093D01*
X2760Y1093D02*
X2821Y1093D01*
X2860Y1093D02*
X2921Y1093D01*
X2960Y1093D02*
X3021Y1093D01*
X3060Y1093D02*
X3121Y1093D01*
X3160Y1093D02*
X3221Y1093D01*
X3260Y1093D02*
X3320Y1093D01*
X1396Y1092D02*
X1479Y1092D01*
X2360Y1092D02*
X2421Y1092D01*
X2460Y1092D02*
X2521Y1092D01*
X2560Y1092D02*
X2621Y1092D01*
X2660Y1092D02*
X2721Y1092D01*
X2760Y1092D02*
X2821Y1092D01*
X2860Y1092D02*
X2921Y1092D01*
X2960Y1092D02*
X3021Y1092D01*
X3060Y1092D02*
X3121Y1092D01*
X3160Y1092D02*
X3221Y1092D01*
X3260Y1092D02*
X3321Y1092D01*
X1396Y1091D02*
X1479Y1091D01*
X2360Y1091D02*
X2421Y1091D01*
X2460Y1091D02*
X2521Y1091D01*
X2560Y1091D02*
X2621Y1091D01*
X2660Y1091D02*
X2721Y1091D01*
X2760Y1091D02*
X2821Y1091D01*
X2860Y1091D02*
X2921Y1091D01*
X2960Y1091D02*
X3021Y1091D01*
X3060Y1091D02*
X3121Y1091D01*
X3160Y1091D02*
X3221Y1091D01*
X3260Y1091D02*
X3321Y1091D01*
X1396Y1090D02*
X1479Y1090D01*
X2360Y1090D02*
X2421Y1090D01*
X2460Y1090D02*
X2521Y1090D01*
X2560Y1090D02*
X2621Y1090D01*
X2660Y1090D02*
X2721Y1090D01*
X2760Y1090D02*
X2821Y1090D01*
X2860Y1090D02*
X2921Y1090D01*
X2960Y1090D02*
X3021Y1090D01*
X3060Y1090D02*
X3121Y1090D01*
X3160Y1090D02*
X3221Y1090D01*
X3260Y1090D02*
X3321Y1090D01*
X1396Y1089D02*
X1479Y1089D01*
X2360Y1089D02*
X2421Y1089D01*
X2460Y1089D02*
X2521Y1089D01*
X2560Y1089D02*
X2621Y1089D01*
X2660Y1089D02*
X2721Y1089D01*
X2760Y1089D02*
X2821Y1089D01*
X2860Y1089D02*
X2921Y1089D01*
X2960Y1089D02*
X3021Y1089D01*
X3060Y1089D02*
X3121Y1089D01*
X3160Y1089D02*
X3221Y1089D01*
X3260Y1089D02*
X3321Y1089D01*
X1396Y1088D02*
X1479Y1088D01*
X2360Y1088D02*
X2421Y1088D01*
X2460Y1088D02*
X2521Y1088D01*
X2560Y1088D02*
X2621Y1088D01*
X2660Y1088D02*
X2721Y1088D01*
X2760Y1088D02*
X2821Y1088D01*
X2860Y1088D02*
X2921Y1088D01*
X2960Y1088D02*
X3021Y1088D01*
X3060Y1088D02*
X3121Y1088D01*
X3160Y1088D02*
X3221Y1088D01*
X3260Y1088D02*
X3321Y1088D01*
X1396Y1087D02*
X1479Y1087D01*
X2360Y1087D02*
X2421Y1087D01*
X2460Y1087D02*
X2521Y1087D01*
X2560Y1087D02*
X2621Y1087D01*
X2660Y1087D02*
X2721Y1087D01*
X2760Y1087D02*
X2821Y1087D01*
X2860Y1087D02*
X2921Y1087D01*
X2960Y1087D02*
X3021Y1087D01*
X3060Y1087D02*
X3121Y1087D01*
X3160Y1087D02*
X3221Y1087D01*
X3260Y1087D02*
X3321Y1087D01*
X1396Y1086D02*
X1432Y1086D01*
X1443Y1086D02*
X1479Y1086D01*
X2360Y1086D02*
X2421Y1086D01*
X2460Y1086D02*
X2521Y1086D01*
X2560Y1086D02*
X2621Y1086D01*
X2660Y1086D02*
X2721Y1086D01*
X2760Y1086D02*
X2821Y1086D01*
X2860Y1086D02*
X2921Y1086D01*
X2960Y1086D02*
X3021Y1086D01*
X3060Y1086D02*
X3121Y1086D01*
X3160Y1086D02*
X3221Y1086D01*
X3260Y1086D02*
X3321Y1086D01*
X1396Y1085D02*
X1430Y1085D01*
X1445Y1085D02*
X1479Y1085D01*
X2360Y1085D02*
X2421Y1085D01*
X2460Y1085D02*
X2521Y1085D01*
X2560Y1085D02*
X2621Y1085D01*
X2660Y1085D02*
X2721Y1085D01*
X2760Y1085D02*
X2821Y1085D01*
X2860Y1085D02*
X2921Y1085D01*
X2960Y1085D02*
X3021Y1085D01*
X3060Y1085D02*
X3121Y1085D01*
X3160Y1085D02*
X3221Y1085D01*
X3260Y1085D02*
X3321Y1085D01*
X1396Y1084D02*
X1429Y1084D01*
X1447Y1084D02*
X1479Y1084D01*
X2360Y1084D02*
X2421Y1084D01*
X2460Y1084D02*
X2521Y1084D01*
X2560Y1084D02*
X2621Y1084D01*
X2660Y1084D02*
X2721Y1084D01*
X2760Y1084D02*
X2821Y1084D01*
X2860Y1084D02*
X2921Y1084D01*
X2960Y1084D02*
X3021Y1084D01*
X3060Y1084D02*
X3121Y1084D01*
X3160Y1084D02*
X3221Y1084D01*
X3260Y1084D02*
X3321Y1084D01*
X1396Y1083D02*
X1427Y1083D01*
X1448Y1083D02*
X1479Y1083D01*
X2360Y1083D02*
X2421Y1083D01*
X2460Y1083D02*
X2521Y1083D01*
X2560Y1083D02*
X2621Y1083D01*
X2660Y1083D02*
X2721Y1083D01*
X2760Y1083D02*
X2821Y1083D01*
X2860Y1083D02*
X2921Y1083D01*
X2960Y1083D02*
X3021Y1083D01*
X3060Y1083D02*
X3121Y1083D01*
X3160Y1083D02*
X3221Y1083D01*
X3260Y1083D02*
X3321Y1083D01*
X1396Y1082D02*
X1426Y1082D01*
X1449Y1082D02*
X1479Y1082D01*
X2360Y1082D02*
X2421Y1082D01*
X2460Y1082D02*
X2521Y1082D01*
X2560Y1082D02*
X2621Y1082D01*
X2660Y1082D02*
X2721Y1082D01*
X2760Y1082D02*
X2821Y1082D01*
X2860Y1082D02*
X2921Y1082D01*
X2960Y1082D02*
X3021Y1082D01*
X3060Y1082D02*
X3121Y1082D01*
X3160Y1082D02*
X3221Y1082D01*
X3260Y1082D02*
X3321Y1082D01*
X1396Y1081D02*
X1425Y1081D01*
X1450Y1081D02*
X1479Y1081D01*
X2360Y1081D02*
X2421Y1081D01*
X2460Y1081D02*
X2521Y1081D01*
X2560Y1081D02*
X2621Y1081D01*
X2660Y1081D02*
X2721Y1081D01*
X2760Y1081D02*
X2821Y1081D01*
X2860Y1081D02*
X2921Y1081D01*
X2960Y1081D02*
X3021Y1081D01*
X3060Y1081D02*
X3121Y1081D01*
X3160Y1081D02*
X3221Y1081D01*
X3260Y1081D02*
X3321Y1081D01*
X1396Y1080D02*
X1425Y1080D01*
X1451Y1080D02*
X1479Y1080D01*
X2360Y1080D02*
X2421Y1080D01*
X2460Y1080D02*
X2521Y1080D01*
X2560Y1080D02*
X2621Y1080D01*
X2660Y1080D02*
X2721Y1080D01*
X2760Y1080D02*
X2821Y1080D01*
X2860Y1080D02*
X2921Y1080D01*
X2960Y1080D02*
X3021Y1080D01*
X3060Y1080D02*
X3121Y1080D01*
X3160Y1080D02*
X3221Y1080D01*
X3260Y1080D02*
X3321Y1080D01*
X1396Y1079D02*
X1424Y1079D01*
X1451Y1079D02*
X1479Y1079D01*
X2360Y1079D02*
X2421Y1079D01*
X2460Y1079D02*
X2521Y1079D01*
X2560Y1079D02*
X2621Y1079D01*
X2660Y1079D02*
X2721Y1079D01*
X2760Y1079D02*
X2821Y1079D01*
X2860Y1079D02*
X2921Y1079D01*
X2960Y1079D02*
X3021Y1079D01*
X3060Y1079D02*
X3121Y1079D01*
X3160Y1079D02*
X3221Y1079D01*
X3260Y1079D02*
X3321Y1079D01*
X1396Y1078D02*
X1424Y1078D01*
X1452Y1078D02*
X1479Y1078D01*
X2360Y1078D02*
X2421Y1078D01*
X2460Y1078D02*
X2521Y1078D01*
X2560Y1078D02*
X2621Y1078D01*
X2660Y1078D02*
X2721Y1078D01*
X2760Y1078D02*
X2821Y1078D01*
X2860Y1078D02*
X2921Y1078D01*
X2960Y1078D02*
X3021Y1078D01*
X3060Y1078D02*
X3121Y1078D01*
X3160Y1078D02*
X3221Y1078D01*
X3260Y1078D02*
X3321Y1078D01*
X1396Y1077D02*
X1423Y1077D01*
X1452Y1077D02*
X1479Y1077D01*
X2360Y1077D02*
X2421Y1077D01*
X2460Y1077D02*
X2521Y1077D01*
X2560Y1077D02*
X2621Y1077D01*
X2660Y1077D02*
X2721Y1077D01*
X2760Y1077D02*
X2821Y1077D01*
X2860Y1077D02*
X2921Y1077D01*
X2960Y1077D02*
X3021Y1077D01*
X3060Y1077D02*
X3121Y1077D01*
X3160Y1077D02*
X3221Y1077D01*
X3260Y1077D02*
X3321Y1077D01*
X1396Y1076D02*
X1423Y1076D01*
X1453Y1076D02*
X1479Y1076D01*
X2360Y1076D02*
X2421Y1076D01*
X2460Y1076D02*
X2521Y1076D01*
X2560Y1076D02*
X2621Y1076D01*
X2660Y1076D02*
X2721Y1076D01*
X2760Y1076D02*
X2821Y1076D01*
X2860Y1076D02*
X2921Y1076D01*
X2960Y1076D02*
X3021Y1076D01*
X3060Y1076D02*
X3121Y1076D01*
X3160Y1076D02*
X3221Y1076D01*
X3260Y1076D02*
X3321Y1076D01*
X1396Y1075D02*
X1423Y1075D01*
X1453Y1075D02*
X1479Y1075D01*
X2360Y1075D02*
X2421Y1075D01*
X2460Y1075D02*
X2521Y1075D01*
X2560Y1075D02*
X2621Y1075D01*
X2660Y1075D02*
X2721Y1075D01*
X2760Y1075D02*
X2821Y1075D01*
X2860Y1075D02*
X2921Y1075D01*
X2960Y1075D02*
X3021Y1075D01*
X3060Y1075D02*
X3121Y1075D01*
X3160Y1075D02*
X3221Y1075D01*
X3260Y1075D02*
X3321Y1075D01*
X1396Y1074D02*
X1422Y1074D01*
X1453Y1074D02*
X1479Y1074D01*
X2360Y1074D02*
X2421Y1074D01*
X2460Y1074D02*
X2521Y1074D01*
X2560Y1074D02*
X2621Y1074D01*
X2660Y1074D02*
X2721Y1074D01*
X2760Y1074D02*
X2821Y1074D01*
X2860Y1074D02*
X2921Y1074D01*
X2960Y1074D02*
X3021Y1074D01*
X3060Y1074D02*
X3121Y1074D01*
X3160Y1074D02*
X3221Y1074D01*
X3260Y1074D02*
X3321Y1074D01*
X1396Y1073D02*
X1422Y1073D01*
X1453Y1073D02*
X1479Y1073D01*
X2360Y1073D02*
X2386Y1073D01*
X2395Y1073D02*
X2421Y1073D01*
X2460Y1073D02*
X2486Y1073D01*
X2495Y1073D02*
X2521Y1073D01*
X2560Y1073D02*
X2586Y1073D01*
X2595Y1073D02*
X2621Y1073D01*
X2660Y1073D02*
X2686Y1073D01*
X2695Y1073D02*
X2721Y1073D01*
X2760Y1073D02*
X2786Y1073D01*
X2795Y1073D02*
X2821Y1073D01*
X2860Y1073D02*
X2886Y1073D01*
X2895Y1073D02*
X2921Y1073D01*
X2960Y1073D02*
X2986Y1073D01*
X2995Y1073D02*
X3021Y1073D01*
X3060Y1073D02*
X3086Y1073D01*
X3095Y1073D02*
X3121Y1073D01*
X3160Y1073D02*
X3186Y1073D01*
X3195Y1073D02*
X3221Y1073D01*
X3260Y1073D02*
X3286Y1073D01*
X3295Y1073D02*
X3321Y1073D01*
X1396Y1072D02*
X1422Y1072D01*
X1453Y1072D02*
X1479Y1072D01*
X2360Y1072D02*
X2384Y1072D01*
X2397Y1072D02*
X2421Y1072D01*
X2460Y1072D02*
X2484Y1072D01*
X2497Y1072D02*
X2521Y1072D01*
X2560Y1072D02*
X2584Y1072D01*
X2597Y1072D02*
X2621Y1072D01*
X2660Y1072D02*
X2684Y1072D01*
X2697Y1072D02*
X2721Y1072D01*
X2760Y1072D02*
X2784Y1072D01*
X2797Y1072D02*
X2821Y1072D01*
X2860Y1072D02*
X2884Y1072D01*
X2897Y1072D02*
X2921Y1072D01*
X2960Y1072D02*
X2984Y1072D01*
X2997Y1072D02*
X3021Y1072D01*
X3060Y1072D02*
X3084Y1072D01*
X3097Y1072D02*
X3121Y1072D01*
X3160Y1072D02*
X3184Y1072D01*
X3197Y1072D02*
X3221Y1072D01*
X3260Y1072D02*
X3284Y1072D01*
X3297Y1072D02*
X3321Y1072D01*
X1396Y1071D02*
X1422Y1071D01*
X1453Y1071D02*
X1479Y1071D01*
X2360Y1071D02*
X2383Y1071D01*
X2398Y1071D02*
X2421Y1071D01*
X2460Y1071D02*
X2483Y1071D01*
X2498Y1071D02*
X2521Y1071D01*
X2560Y1071D02*
X2583Y1071D01*
X2598Y1071D02*
X2621Y1071D01*
X2660Y1071D02*
X2683Y1071D01*
X2698Y1071D02*
X2721Y1071D01*
X2760Y1071D02*
X2783Y1071D01*
X2798Y1071D02*
X2821Y1071D01*
X2860Y1071D02*
X2883Y1071D01*
X2898Y1071D02*
X2921Y1071D01*
X2960Y1071D02*
X2983Y1071D01*
X2998Y1071D02*
X3021Y1071D01*
X3060Y1071D02*
X3083Y1071D01*
X3098Y1071D02*
X3121Y1071D01*
X3160Y1071D02*
X3183Y1071D01*
X3198Y1071D02*
X3221Y1071D01*
X3260Y1071D02*
X3283Y1071D01*
X3298Y1071D02*
X3321Y1071D01*
X1396Y1070D02*
X1422Y1070D01*
X1453Y1070D02*
X1479Y1070D01*
X2360Y1070D02*
X2382Y1070D01*
X2399Y1070D02*
X2421Y1070D01*
X2460Y1070D02*
X2482Y1070D01*
X2499Y1070D02*
X2521Y1070D01*
X2560Y1070D02*
X2582Y1070D01*
X2599Y1070D02*
X2621Y1070D01*
X2660Y1070D02*
X2682Y1070D01*
X2699Y1070D02*
X2721Y1070D01*
X2760Y1070D02*
X2782Y1070D01*
X2799Y1070D02*
X2821Y1070D01*
X2860Y1070D02*
X2882Y1070D01*
X2899Y1070D02*
X2921Y1070D01*
X2960Y1070D02*
X2982Y1070D01*
X2999Y1070D02*
X3021Y1070D01*
X3060Y1070D02*
X3082Y1070D01*
X3099Y1070D02*
X3121Y1070D01*
X3160Y1070D02*
X3182Y1070D01*
X3199Y1070D02*
X3221Y1070D01*
X3260Y1070D02*
X3282Y1070D01*
X3299Y1070D02*
X3321Y1070D01*
X1396Y1069D02*
X1423Y1069D01*
X1453Y1069D02*
X1479Y1069D01*
X2360Y1069D02*
X2381Y1069D01*
X2400Y1069D02*
X2421Y1069D01*
X2460Y1069D02*
X2481Y1069D01*
X2500Y1069D02*
X2521Y1069D01*
X2560Y1069D02*
X2581Y1069D01*
X2600Y1069D02*
X2621Y1069D01*
X2660Y1069D02*
X2681Y1069D01*
X2700Y1069D02*
X2721Y1069D01*
X2760Y1069D02*
X2781Y1069D01*
X2800Y1069D02*
X2821Y1069D01*
X2860Y1069D02*
X2881Y1069D01*
X2900Y1069D02*
X2921Y1069D01*
X2960Y1069D02*
X2981Y1069D01*
X3000Y1069D02*
X3021Y1069D01*
X3060Y1069D02*
X3081Y1069D01*
X3100Y1069D02*
X3121Y1069D01*
X3160Y1069D02*
X3181Y1069D01*
X3200Y1069D02*
X3221Y1069D01*
X3260Y1069D02*
X3281Y1069D01*
X3300Y1069D02*
X3321Y1069D01*
X1396Y1068D02*
X1423Y1068D01*
X1453Y1068D02*
X1479Y1068D01*
X2360Y1068D02*
X2380Y1068D01*
X2401Y1068D02*
X2421Y1068D01*
X2460Y1068D02*
X2480Y1068D01*
X2501Y1068D02*
X2521Y1068D01*
X2560Y1068D02*
X2580Y1068D01*
X2601Y1068D02*
X2621Y1068D01*
X2660Y1068D02*
X2680Y1068D01*
X2701Y1068D02*
X2721Y1068D01*
X2760Y1068D02*
X2780Y1068D01*
X2801Y1068D02*
X2821Y1068D01*
X2860Y1068D02*
X2880Y1068D01*
X2901Y1068D02*
X2921Y1068D01*
X2960Y1068D02*
X2980Y1068D01*
X3001Y1068D02*
X3021Y1068D01*
X3060Y1068D02*
X3080Y1068D01*
X3101Y1068D02*
X3121Y1068D01*
X3160Y1068D02*
X3180Y1068D01*
X3201Y1068D02*
X3221Y1068D01*
X3260Y1068D02*
X3280Y1068D01*
X3301Y1068D02*
X3321Y1068D01*
X1396Y1067D02*
X1423Y1067D01*
X1453Y1067D02*
X1479Y1067D01*
X2360Y1067D02*
X2380Y1067D01*
X2401Y1067D02*
X2421Y1067D01*
X2460Y1067D02*
X2480Y1067D01*
X2501Y1067D02*
X2521Y1067D01*
X2560Y1067D02*
X2580Y1067D01*
X2601Y1067D02*
X2621Y1067D01*
X2660Y1067D02*
X2680Y1067D01*
X2701Y1067D02*
X2721Y1067D01*
X2760Y1067D02*
X2780Y1067D01*
X2801Y1067D02*
X2821Y1067D01*
X2860Y1067D02*
X2880Y1067D01*
X2901Y1067D02*
X2921Y1067D01*
X2960Y1067D02*
X2980Y1067D01*
X3001Y1067D02*
X3021Y1067D01*
X3060Y1067D02*
X3080Y1067D01*
X3101Y1067D02*
X3121Y1067D01*
X3160Y1067D02*
X3180Y1067D01*
X3201Y1067D02*
X3221Y1067D01*
X3260Y1067D02*
X3280Y1067D01*
X3301Y1067D02*
X3321Y1067D01*
X1396Y1066D02*
X1423Y1066D01*
X1452Y1066D02*
X1479Y1066D01*
X2360Y1066D02*
X2379Y1066D01*
X2401Y1066D02*
X2421Y1066D01*
X2460Y1066D02*
X2479Y1066D01*
X2501Y1066D02*
X2521Y1066D01*
X2560Y1066D02*
X2579Y1066D01*
X2601Y1066D02*
X2621Y1066D01*
X2660Y1066D02*
X2679Y1066D01*
X2701Y1066D02*
X2721Y1066D01*
X2760Y1066D02*
X2779Y1066D01*
X2801Y1066D02*
X2821Y1066D01*
X2860Y1066D02*
X2879Y1066D01*
X2901Y1066D02*
X2921Y1066D01*
X2960Y1066D02*
X2979Y1066D01*
X3001Y1066D02*
X3021Y1066D01*
X3060Y1066D02*
X3079Y1066D01*
X3101Y1066D02*
X3121Y1066D01*
X3160Y1066D02*
X3179Y1066D01*
X3201Y1066D02*
X3221Y1066D01*
X3260Y1066D02*
X3279Y1066D01*
X3301Y1066D02*
X3321Y1066D01*
X1396Y1065D02*
X1424Y1065D01*
X1452Y1065D02*
X1479Y1065D01*
X2360Y1065D02*
X2379Y1065D01*
X2402Y1065D02*
X2421Y1065D01*
X2460Y1065D02*
X2479Y1065D01*
X2502Y1065D02*
X2521Y1065D01*
X2560Y1065D02*
X2579Y1065D01*
X2602Y1065D02*
X2621Y1065D01*
X2660Y1065D02*
X2679Y1065D01*
X2702Y1065D02*
X2721Y1065D01*
X2760Y1065D02*
X2779Y1065D01*
X2802Y1065D02*
X2821Y1065D01*
X2860Y1065D02*
X2879Y1065D01*
X2902Y1065D02*
X2921Y1065D01*
X2960Y1065D02*
X2979Y1065D01*
X3002Y1065D02*
X3021Y1065D01*
X3060Y1065D02*
X3079Y1065D01*
X3102Y1065D02*
X3121Y1065D01*
X3160Y1065D02*
X3179Y1065D01*
X3202Y1065D02*
X3221Y1065D01*
X3260Y1065D02*
X3279Y1065D01*
X3302Y1065D02*
X3321Y1065D01*
X1396Y1064D02*
X1424Y1064D01*
X1451Y1064D02*
X1479Y1064D01*
X2360Y1064D02*
X2379Y1064D01*
X2402Y1064D02*
X2421Y1064D01*
X2460Y1064D02*
X2479Y1064D01*
X2502Y1064D02*
X2521Y1064D01*
X2560Y1064D02*
X2579Y1064D01*
X2602Y1064D02*
X2621Y1064D01*
X2660Y1064D02*
X2679Y1064D01*
X2702Y1064D02*
X2721Y1064D01*
X2760Y1064D02*
X2779Y1064D01*
X2802Y1064D02*
X2821Y1064D01*
X2860Y1064D02*
X2879Y1064D01*
X2902Y1064D02*
X2921Y1064D01*
X2960Y1064D02*
X2979Y1064D01*
X3002Y1064D02*
X3021Y1064D01*
X3060Y1064D02*
X3079Y1064D01*
X3102Y1064D02*
X3121Y1064D01*
X3160Y1064D02*
X3179Y1064D01*
X3202Y1064D02*
X3221Y1064D01*
X3260Y1064D02*
X3279Y1064D01*
X3302Y1064D02*
X3321Y1064D01*
X1396Y1063D02*
X1425Y1063D01*
X1450Y1063D02*
X1479Y1063D01*
X2360Y1063D02*
X2379Y1063D01*
X2402Y1063D02*
X2421Y1063D01*
X2460Y1063D02*
X2479Y1063D01*
X2502Y1063D02*
X2521Y1063D01*
X2560Y1063D02*
X2579Y1063D01*
X2602Y1063D02*
X2621Y1063D01*
X2660Y1063D02*
X2679Y1063D01*
X2702Y1063D02*
X2721Y1063D01*
X2760Y1063D02*
X2779Y1063D01*
X2802Y1063D02*
X2821Y1063D01*
X2860Y1063D02*
X2879Y1063D01*
X2902Y1063D02*
X2921Y1063D01*
X2960Y1063D02*
X2979Y1063D01*
X3002Y1063D02*
X3021Y1063D01*
X3060Y1063D02*
X3079Y1063D01*
X3102Y1063D02*
X3121Y1063D01*
X3160Y1063D02*
X3179Y1063D01*
X3202Y1063D02*
X3221Y1063D01*
X3260Y1063D02*
X3279Y1063D01*
X3302Y1063D02*
X3321Y1063D01*
X1396Y1062D02*
X1426Y1062D01*
X1450Y1062D02*
X1479Y1062D01*
X2360Y1062D02*
X2379Y1062D01*
X2402Y1062D02*
X2421Y1062D01*
X2460Y1062D02*
X2479Y1062D01*
X2502Y1062D02*
X2521Y1062D01*
X2560Y1062D02*
X2579Y1062D01*
X2602Y1062D02*
X2621Y1062D01*
X2660Y1062D02*
X2679Y1062D01*
X2702Y1062D02*
X2721Y1062D01*
X2760Y1062D02*
X2779Y1062D01*
X2802Y1062D02*
X2821Y1062D01*
X2860Y1062D02*
X2879Y1062D01*
X2902Y1062D02*
X2921Y1062D01*
X2960Y1062D02*
X2979Y1062D01*
X3002Y1062D02*
X3021Y1062D01*
X3060Y1062D02*
X3079Y1062D01*
X3102Y1062D02*
X3121Y1062D01*
X3160Y1062D02*
X3179Y1062D01*
X3202Y1062D02*
X3221Y1062D01*
X3260Y1062D02*
X3279Y1062D01*
X3302Y1062D02*
X3321Y1062D01*
X1396Y1061D02*
X1427Y1061D01*
X1449Y1061D02*
X1479Y1061D01*
X2360Y1061D02*
X2379Y1061D01*
X2402Y1061D02*
X2421Y1061D01*
X2460Y1061D02*
X2479Y1061D01*
X2502Y1061D02*
X2521Y1061D01*
X2560Y1061D02*
X2579Y1061D01*
X2602Y1061D02*
X2621Y1061D01*
X2660Y1061D02*
X2679Y1061D01*
X2702Y1061D02*
X2721Y1061D01*
X2760Y1061D02*
X2779Y1061D01*
X2802Y1061D02*
X2821Y1061D01*
X2860Y1061D02*
X2879Y1061D01*
X2902Y1061D02*
X2921Y1061D01*
X2960Y1061D02*
X2979Y1061D01*
X3002Y1061D02*
X3021Y1061D01*
X3060Y1061D02*
X3079Y1061D01*
X3102Y1061D02*
X3121Y1061D01*
X3160Y1061D02*
X3179Y1061D01*
X3202Y1061D02*
X3221Y1061D01*
X3260Y1061D02*
X3279Y1061D01*
X3302Y1061D02*
X3321Y1061D01*
X1396Y1060D02*
X1428Y1060D01*
X1447Y1060D02*
X1479Y1060D01*
X2360Y1060D02*
X2379Y1060D01*
X2402Y1060D02*
X2421Y1060D01*
X2460Y1060D02*
X2479Y1060D01*
X2502Y1060D02*
X2521Y1060D01*
X2560Y1060D02*
X2579Y1060D01*
X2602Y1060D02*
X2621Y1060D01*
X2660Y1060D02*
X2679Y1060D01*
X2702Y1060D02*
X2721Y1060D01*
X2760Y1060D02*
X2779Y1060D01*
X2802Y1060D02*
X2821Y1060D01*
X2860Y1060D02*
X2879Y1060D01*
X2902Y1060D02*
X2921Y1060D01*
X2960Y1060D02*
X2979Y1060D01*
X3002Y1060D02*
X3021Y1060D01*
X3060Y1060D02*
X3079Y1060D01*
X3102Y1060D02*
X3121Y1060D01*
X3160Y1060D02*
X3179Y1060D01*
X3202Y1060D02*
X3221Y1060D01*
X3260Y1060D02*
X3279Y1060D01*
X3302Y1060D02*
X3321Y1060D01*
X1396Y1059D02*
X1429Y1059D01*
X1446Y1059D02*
X1479Y1059D01*
X2360Y1059D02*
X2380Y1059D01*
X2401Y1059D02*
X2421Y1059D01*
X2460Y1059D02*
X2480Y1059D01*
X2501Y1059D02*
X2521Y1059D01*
X2560Y1059D02*
X2580Y1059D01*
X2601Y1059D02*
X2621Y1059D01*
X2660Y1059D02*
X2680Y1059D01*
X2701Y1059D02*
X2721Y1059D01*
X2760Y1059D02*
X2780Y1059D01*
X2801Y1059D02*
X2821Y1059D01*
X2860Y1059D02*
X2880Y1059D01*
X2901Y1059D02*
X2921Y1059D01*
X2960Y1059D02*
X2979Y1059D01*
X3001Y1059D02*
X3021Y1059D01*
X3060Y1059D02*
X3079Y1059D01*
X3101Y1059D02*
X3121Y1059D01*
X3160Y1059D02*
X3179Y1059D01*
X3201Y1059D02*
X3221Y1059D01*
X3260Y1059D02*
X3279Y1059D01*
X3301Y1059D02*
X3321Y1059D01*
X1396Y1058D02*
X1431Y1058D01*
X1444Y1058D02*
X1479Y1058D01*
X2360Y1058D02*
X2380Y1058D01*
X2401Y1058D02*
X2421Y1058D01*
X2460Y1058D02*
X2480Y1058D01*
X2501Y1058D02*
X2521Y1058D01*
X2560Y1058D02*
X2580Y1058D01*
X2601Y1058D02*
X2621Y1058D01*
X2660Y1058D02*
X2680Y1058D01*
X2701Y1058D02*
X2721Y1058D01*
X2760Y1058D02*
X2780Y1058D01*
X2801Y1058D02*
X2821Y1058D01*
X2860Y1058D02*
X2880Y1058D01*
X2901Y1058D02*
X2921Y1058D01*
X2960Y1058D02*
X2980Y1058D01*
X3001Y1058D02*
X3021Y1058D01*
X3060Y1058D02*
X3080Y1058D01*
X3101Y1058D02*
X3121Y1058D01*
X3160Y1058D02*
X3180Y1058D01*
X3201Y1058D02*
X3221Y1058D01*
X3260Y1058D02*
X3280Y1058D01*
X3301Y1058D02*
X3321Y1058D01*
X1396Y1057D02*
X1435Y1057D01*
X1440Y1057D02*
X1479Y1057D01*
X2360Y1057D02*
X2381Y1057D01*
X2400Y1057D02*
X2421Y1057D01*
X2460Y1057D02*
X2481Y1057D01*
X2500Y1057D02*
X2521Y1057D01*
X2560Y1057D02*
X2581Y1057D01*
X2600Y1057D02*
X2621Y1057D01*
X2660Y1057D02*
X2680Y1057D01*
X2700Y1057D02*
X2721Y1057D01*
X2760Y1057D02*
X2780Y1057D01*
X2800Y1057D02*
X2821Y1057D01*
X2860Y1057D02*
X2880Y1057D01*
X2900Y1057D02*
X2921Y1057D01*
X2960Y1057D02*
X2980Y1057D01*
X3000Y1057D02*
X3021Y1057D01*
X3060Y1057D02*
X3080Y1057D01*
X3100Y1057D02*
X3121Y1057D01*
X3160Y1057D02*
X3180Y1057D01*
X3200Y1057D02*
X3221Y1057D01*
X3260Y1057D02*
X3280Y1057D01*
X3300Y1057D02*
X3321Y1057D01*
X1396Y1056D02*
X1479Y1056D01*
X2360Y1056D02*
X2381Y1056D01*
X2400Y1056D02*
X2421Y1056D01*
X2460Y1056D02*
X2481Y1056D01*
X2500Y1056D02*
X2521Y1056D01*
X2560Y1056D02*
X2581Y1056D01*
X2600Y1056D02*
X2621Y1056D01*
X2660Y1056D02*
X2681Y1056D01*
X2700Y1056D02*
X2721Y1056D01*
X2760Y1056D02*
X2781Y1056D01*
X2800Y1056D02*
X2821Y1056D01*
X2860Y1056D02*
X2881Y1056D01*
X2900Y1056D02*
X2921Y1056D01*
X2960Y1056D02*
X2981Y1056D01*
X3000Y1056D02*
X3021Y1056D01*
X3060Y1056D02*
X3081Y1056D01*
X3100Y1056D02*
X3121Y1056D01*
X3160Y1056D02*
X3181Y1056D01*
X3200Y1056D02*
X3221Y1056D01*
X3260Y1056D02*
X3281Y1056D01*
X3300Y1056D02*
X3321Y1056D01*
X1396Y1055D02*
X1479Y1055D01*
X2360Y1055D02*
X2382Y1055D01*
X2399Y1055D02*
X2421Y1055D01*
X2460Y1055D02*
X2482Y1055D01*
X2499Y1055D02*
X2521Y1055D01*
X2560Y1055D02*
X2582Y1055D01*
X2599Y1055D02*
X2621Y1055D01*
X2660Y1055D02*
X2682Y1055D01*
X2699Y1055D02*
X2721Y1055D01*
X2760Y1055D02*
X2782Y1055D01*
X2799Y1055D02*
X2821Y1055D01*
X2860Y1055D02*
X2882Y1055D01*
X2899Y1055D02*
X2921Y1055D01*
X2960Y1055D02*
X2982Y1055D01*
X2999Y1055D02*
X3021Y1055D01*
X3060Y1055D02*
X3082Y1055D01*
X3099Y1055D02*
X3121Y1055D01*
X3160Y1055D02*
X3182Y1055D01*
X3199Y1055D02*
X3221Y1055D01*
X3260Y1055D02*
X3282Y1055D01*
X3299Y1055D02*
X3321Y1055D01*
X1396Y1054D02*
X1479Y1054D01*
X2360Y1054D02*
X2383Y1054D01*
X2398Y1054D02*
X2421Y1054D01*
X2460Y1054D02*
X2483Y1054D01*
X2498Y1054D02*
X2521Y1054D01*
X2560Y1054D02*
X2583Y1054D01*
X2598Y1054D02*
X2621Y1054D01*
X2660Y1054D02*
X2683Y1054D01*
X2698Y1054D02*
X2721Y1054D01*
X2760Y1054D02*
X2783Y1054D01*
X2798Y1054D02*
X2821Y1054D01*
X2860Y1054D02*
X2883Y1054D01*
X2898Y1054D02*
X2921Y1054D01*
X2960Y1054D02*
X2983Y1054D01*
X2998Y1054D02*
X3021Y1054D01*
X3060Y1054D02*
X3083Y1054D01*
X3098Y1054D02*
X3121Y1054D01*
X3160Y1054D02*
X3183Y1054D01*
X3198Y1054D02*
X3221Y1054D01*
X3260Y1054D02*
X3283Y1054D01*
X3298Y1054D02*
X3321Y1054D01*
X1396Y1053D02*
X1479Y1053D01*
X2360Y1053D02*
X2385Y1053D01*
X2396Y1053D02*
X2421Y1053D01*
X2460Y1053D02*
X2485Y1053D01*
X2496Y1053D02*
X2521Y1053D01*
X2560Y1053D02*
X2585Y1053D01*
X2596Y1053D02*
X2621Y1053D01*
X2660Y1053D02*
X2685Y1053D01*
X2696Y1053D02*
X2721Y1053D01*
X2760Y1053D02*
X2785Y1053D01*
X2796Y1053D02*
X2821Y1053D01*
X2860Y1053D02*
X2885Y1053D01*
X2896Y1053D02*
X2921Y1053D01*
X2960Y1053D02*
X2985Y1053D01*
X2996Y1053D02*
X3021Y1053D01*
X3060Y1053D02*
X3085Y1053D01*
X3096Y1053D02*
X3121Y1053D01*
X3160Y1053D02*
X3185Y1053D01*
X3196Y1053D02*
X3221Y1053D01*
X3260Y1053D02*
X3285Y1053D01*
X3296Y1053D02*
X3321Y1053D01*
X1396Y1052D02*
X1479Y1052D01*
X2360Y1052D02*
X2387Y1052D01*
X2393Y1052D02*
X2421Y1052D01*
X2460Y1052D02*
X2487Y1052D01*
X2493Y1052D02*
X2521Y1052D01*
X2560Y1052D02*
X2587Y1052D01*
X2593Y1052D02*
X2621Y1052D01*
X2660Y1052D02*
X2687Y1052D01*
X2693Y1052D02*
X2721Y1052D01*
X2760Y1052D02*
X2787Y1052D01*
X2793Y1052D02*
X2821Y1052D01*
X2860Y1052D02*
X2887Y1052D01*
X2893Y1052D02*
X2921Y1052D01*
X2960Y1052D02*
X2987Y1052D01*
X2993Y1052D02*
X3021Y1052D01*
X3060Y1052D02*
X3087Y1052D01*
X3093Y1052D02*
X3121Y1052D01*
X3160Y1052D02*
X3187Y1052D01*
X3193Y1052D02*
X3221Y1052D01*
X3260Y1052D02*
X3287Y1052D01*
X3293Y1052D02*
X3321Y1052D01*
X1396Y1051D02*
X1479Y1051D01*
X2360Y1051D02*
X2421Y1051D01*
X2460Y1051D02*
X2521Y1051D01*
X2560Y1051D02*
X2621Y1051D01*
X2660Y1051D02*
X2721Y1051D01*
X2760Y1051D02*
X2821Y1051D01*
X2860Y1051D02*
X2921Y1051D01*
X2960Y1051D02*
X3021Y1051D01*
X3060Y1051D02*
X3121Y1051D01*
X3160Y1051D02*
X3221Y1051D01*
X3260Y1051D02*
X3321Y1051D01*
X1396Y1050D02*
X1479Y1050D01*
X2360Y1050D02*
X2421Y1050D01*
X2460Y1050D02*
X2521Y1050D01*
X2560Y1050D02*
X2621Y1050D01*
X2660Y1050D02*
X2721Y1050D01*
X2760Y1050D02*
X2821Y1050D01*
X2860Y1050D02*
X2921Y1050D01*
X2960Y1050D02*
X3021Y1050D01*
X3060Y1050D02*
X3121Y1050D01*
X3160Y1050D02*
X3221Y1050D01*
X3260Y1050D02*
X3321Y1050D01*
X1396Y1049D02*
X1479Y1049D01*
X2360Y1049D02*
X2421Y1049D01*
X2460Y1049D02*
X2521Y1049D01*
X2560Y1049D02*
X2621Y1049D01*
X2660Y1049D02*
X2721Y1049D01*
X2760Y1049D02*
X2821Y1049D01*
X2860Y1049D02*
X2921Y1049D01*
X2960Y1049D02*
X3021Y1049D01*
X3060Y1049D02*
X3121Y1049D01*
X3160Y1049D02*
X3221Y1049D01*
X3260Y1049D02*
X3321Y1049D01*
X1396Y1048D02*
X1479Y1048D01*
X2360Y1048D02*
X2421Y1048D01*
X2460Y1048D02*
X2521Y1048D01*
X2560Y1048D02*
X2621Y1048D01*
X2660Y1048D02*
X2721Y1048D01*
X2760Y1048D02*
X2821Y1048D01*
X2860Y1048D02*
X2921Y1048D01*
X2960Y1048D02*
X3021Y1048D01*
X3060Y1048D02*
X3121Y1048D01*
X3160Y1048D02*
X3221Y1048D01*
X3260Y1048D02*
X3321Y1048D01*
X1396Y1047D02*
X1479Y1047D01*
X2360Y1047D02*
X2421Y1047D01*
X2460Y1047D02*
X2521Y1047D01*
X2560Y1047D02*
X2621Y1047D01*
X2660Y1047D02*
X2721Y1047D01*
X2760Y1047D02*
X2821Y1047D01*
X2860Y1047D02*
X2921Y1047D01*
X2960Y1047D02*
X3021Y1047D01*
X3060Y1047D02*
X3121Y1047D01*
X3160Y1047D02*
X3221Y1047D01*
X3260Y1047D02*
X3321Y1047D01*
X1396Y1046D02*
X1479Y1046D01*
X2360Y1046D02*
X2421Y1046D01*
X2460Y1046D02*
X2521Y1046D01*
X2560Y1046D02*
X2621Y1046D01*
X2660Y1046D02*
X2721Y1046D01*
X2760Y1046D02*
X2821Y1046D01*
X2860Y1046D02*
X2921Y1046D01*
X2960Y1046D02*
X3021Y1046D01*
X3060Y1046D02*
X3121Y1046D01*
X3160Y1046D02*
X3221Y1046D01*
X3260Y1046D02*
X3321Y1046D01*
X1396Y1045D02*
X1479Y1045D01*
X2360Y1045D02*
X2421Y1045D01*
X2460Y1045D02*
X2521Y1045D01*
X2560Y1045D02*
X2621Y1045D01*
X2660Y1045D02*
X2721Y1045D01*
X2760Y1045D02*
X2821Y1045D01*
X2860Y1045D02*
X2921Y1045D01*
X2960Y1045D02*
X3021Y1045D01*
X3060Y1045D02*
X3121Y1045D01*
X3160Y1045D02*
X3221Y1045D01*
X3260Y1045D02*
X3321Y1045D01*
X1396Y1044D02*
X1479Y1044D01*
X2360Y1044D02*
X2421Y1044D01*
X2460Y1044D02*
X2521Y1044D01*
X2560Y1044D02*
X2621Y1044D01*
X2660Y1044D02*
X2721Y1044D01*
X2760Y1044D02*
X2821Y1044D01*
X2860Y1044D02*
X2921Y1044D01*
X2960Y1044D02*
X3021Y1044D01*
X3060Y1044D02*
X3121Y1044D01*
X3160Y1044D02*
X3221Y1044D01*
X3260Y1044D02*
X3321Y1044D01*
X1396Y1043D02*
X1479Y1043D01*
X2360Y1043D02*
X2421Y1043D01*
X2460Y1043D02*
X2521Y1043D01*
X2560Y1043D02*
X2621Y1043D01*
X2660Y1043D02*
X2721Y1043D01*
X2760Y1043D02*
X2821Y1043D01*
X2860Y1043D02*
X2921Y1043D01*
X2960Y1043D02*
X3021Y1043D01*
X3060Y1043D02*
X3121Y1043D01*
X3160Y1043D02*
X3221Y1043D01*
X3260Y1043D02*
X3321Y1043D01*
X1396Y1042D02*
X1479Y1042D01*
X2360Y1042D02*
X2421Y1042D01*
X2460Y1042D02*
X2521Y1042D01*
X2560Y1042D02*
X2621Y1042D01*
X2660Y1042D02*
X2721Y1042D01*
X2760Y1042D02*
X2821Y1042D01*
X2860Y1042D02*
X2921Y1042D01*
X2960Y1042D02*
X3021Y1042D01*
X3060Y1042D02*
X3121Y1042D01*
X3160Y1042D02*
X3221Y1042D01*
X3260Y1042D02*
X3321Y1042D01*
X1396Y1041D02*
X1479Y1041D01*
X2360Y1041D02*
X2421Y1041D01*
X2460Y1041D02*
X2521Y1041D01*
X2560Y1041D02*
X2621Y1041D01*
X2660Y1041D02*
X2721Y1041D01*
X2760Y1041D02*
X2821Y1041D01*
X2860Y1041D02*
X2921Y1041D01*
X2960Y1041D02*
X3021Y1041D01*
X3060Y1041D02*
X3121Y1041D01*
X3160Y1041D02*
X3221Y1041D01*
X3260Y1041D02*
X3321Y1041D01*
X1396Y1040D02*
X1479Y1040D01*
X2360Y1040D02*
X2421Y1040D01*
X2460Y1040D02*
X2521Y1040D01*
X2560Y1040D02*
X2621Y1040D01*
X2660Y1040D02*
X2721Y1040D01*
X2760Y1040D02*
X2821Y1040D01*
X2860Y1040D02*
X2921Y1040D01*
X2960Y1040D02*
X3021Y1040D01*
X3060Y1040D02*
X3121Y1040D01*
X3160Y1040D02*
X3221Y1040D01*
X3260Y1040D02*
X3321Y1040D01*
X1396Y1039D02*
X1479Y1039D01*
X2360Y1039D02*
X2421Y1039D01*
X2460Y1039D02*
X2521Y1039D01*
X2560Y1039D02*
X2621Y1039D01*
X2660Y1039D02*
X2721Y1039D01*
X2760Y1039D02*
X2821Y1039D01*
X2860Y1039D02*
X2921Y1039D01*
X2960Y1039D02*
X3021Y1039D01*
X3060Y1039D02*
X3121Y1039D01*
X3160Y1039D02*
X3221Y1039D01*
X3260Y1039D02*
X3321Y1039D01*
X1396Y1038D02*
X1479Y1038D01*
X2360Y1038D02*
X2421Y1038D01*
X2460Y1038D02*
X2521Y1038D01*
X2560Y1038D02*
X2621Y1038D01*
X2660Y1038D02*
X2721Y1038D01*
X2760Y1038D02*
X2821Y1038D01*
X2860Y1038D02*
X2921Y1038D01*
X2960Y1038D02*
X3021Y1038D01*
X3060Y1038D02*
X3121Y1038D01*
X3160Y1038D02*
X3221Y1038D01*
X3260Y1038D02*
X3321Y1038D01*
X1396Y1037D02*
X1479Y1037D01*
X2360Y1037D02*
X2421Y1037D01*
X2460Y1037D02*
X2521Y1037D01*
X2560Y1037D02*
X2621Y1037D01*
X2660Y1037D02*
X2721Y1037D01*
X2760Y1037D02*
X2821Y1037D01*
X2860Y1037D02*
X2921Y1037D01*
X2960Y1037D02*
X3021Y1037D01*
X3060Y1037D02*
X3121Y1037D01*
X3160Y1037D02*
X3221Y1037D01*
X3260Y1037D02*
X3321Y1037D01*
X1396Y1036D02*
X1479Y1036D01*
X2360Y1036D02*
X2421Y1036D01*
X2460Y1036D02*
X2521Y1036D01*
X2560Y1036D02*
X2621Y1036D01*
X2660Y1036D02*
X2721Y1036D01*
X2760Y1036D02*
X2821Y1036D01*
X2860Y1036D02*
X2921Y1036D01*
X2960Y1036D02*
X3021Y1036D01*
X3060Y1036D02*
X3121Y1036D01*
X3160Y1036D02*
X3221Y1036D01*
X3260Y1036D02*
X3321Y1036D01*
X1396Y1035D02*
X1479Y1035D01*
X2360Y1035D02*
X2421Y1035D01*
X2460Y1035D02*
X2521Y1035D01*
X2560Y1035D02*
X2621Y1035D01*
X2660Y1035D02*
X2721Y1035D01*
X2760Y1035D02*
X2821Y1035D01*
X2860Y1035D02*
X2921Y1035D01*
X2960Y1035D02*
X3021Y1035D01*
X3060Y1035D02*
X3121Y1035D01*
X3160Y1035D02*
X3221Y1035D01*
X3260Y1035D02*
X3321Y1035D01*
X1396Y1034D02*
X1479Y1034D01*
X2360Y1034D02*
X2421Y1034D01*
X2460Y1034D02*
X2521Y1034D01*
X2560Y1034D02*
X2621Y1034D01*
X2660Y1034D02*
X2721Y1034D01*
X2760Y1034D02*
X2821Y1034D01*
X2860Y1034D02*
X2921Y1034D01*
X2960Y1034D02*
X3021Y1034D01*
X3060Y1034D02*
X3121Y1034D01*
X3160Y1034D02*
X3221Y1034D01*
X3260Y1034D02*
X3321Y1034D01*
X1396Y1033D02*
X1479Y1033D01*
X2360Y1033D02*
X2421Y1033D01*
X2460Y1033D02*
X2521Y1033D01*
X2560Y1033D02*
X2621Y1033D01*
X2660Y1033D02*
X2721Y1033D01*
X2760Y1033D02*
X2821Y1033D01*
X2860Y1033D02*
X2921Y1033D01*
X2960Y1033D02*
X3021Y1033D01*
X3060Y1033D02*
X3121Y1033D01*
X3160Y1033D02*
X3221Y1033D01*
X3260Y1033D02*
X3321Y1033D01*
X1396Y1032D02*
X1479Y1032D01*
X2360Y1032D02*
X2421Y1032D01*
X2460Y1032D02*
X2520Y1032D01*
X2560Y1032D02*
X2620Y1032D01*
X2660Y1032D02*
X2720Y1032D01*
X2760Y1032D02*
X2820Y1032D01*
X2860Y1032D02*
X2920Y1032D01*
X2960Y1032D02*
X3020Y1032D01*
X3060Y1032D02*
X3120Y1032D01*
X3160Y1032D02*
X3220Y1032D01*
X3260Y1032D02*
X3320Y1032D01*
X1396Y1031D02*
X1479Y1031D01*
X2361Y1031D02*
X2420Y1031D01*
X2461Y1031D02*
X2520Y1031D01*
X2561Y1031D02*
X2620Y1031D01*
X2661Y1031D02*
X2720Y1031D01*
X2761Y1031D02*
X2820Y1031D01*
X2860Y1031D02*
X2920Y1031D01*
X2960Y1031D02*
X3020Y1031D01*
X3060Y1031D02*
X3120Y1031D01*
X3160Y1031D02*
X3220Y1031D01*
X3260Y1031D02*
X3320Y1031D01*
X1397Y1030D02*
X1479Y1030D01*
X2361Y1030D02*
X2420Y1030D01*
X2461Y1030D02*
X2520Y1030D01*
X2561Y1030D02*
X2620Y1030D01*
X2661Y1030D02*
X2720Y1030D01*
X2761Y1030D02*
X2820Y1030D01*
X2861Y1030D02*
X2920Y1030D01*
X2961Y1030D02*
X3020Y1030D01*
X3061Y1030D02*
X3120Y1030D01*
X3161Y1030D02*
X3220Y1030D01*
X3261Y1030D02*
X3320Y1030D01*
X2361Y1029D02*
X2420Y1029D01*
X2461Y1029D02*
X2520Y1029D01*
X2561Y1029D02*
X2620Y1029D01*
X2661Y1029D02*
X2720Y1029D01*
X2761Y1029D02*
X2820Y1029D01*
X2861Y1029D02*
X2920Y1029D01*
X2961Y1029D02*
X3020Y1029D01*
X3061Y1029D02*
X3120Y1029D01*
X3161Y1029D02*
X3220Y1029D01*
X3261Y1029D02*
X3320Y1029D01*
X2361Y1028D02*
X2420Y1028D01*
X2461Y1028D02*
X2520Y1028D01*
X2561Y1028D02*
X2620Y1028D01*
X2661Y1028D02*
X2720Y1028D01*
X2761Y1028D02*
X2820Y1028D01*
X2861Y1028D02*
X2920Y1028D01*
X2961Y1028D02*
X3020Y1028D01*
X3061Y1028D02*
X3120Y1028D01*
X3161Y1028D02*
X3220Y1028D01*
X3261Y1028D02*
X3320Y1028D01*
X2362Y1027D02*
X2419Y1027D01*
X2462Y1027D02*
X2519Y1027D01*
X2562Y1027D02*
X2619Y1027D01*
X2662Y1027D02*
X2719Y1027D01*
X2762Y1027D02*
X2819Y1027D01*
X2862Y1027D02*
X2919Y1027D01*
X2962Y1027D02*
X3019Y1027D01*
X3062Y1027D02*
X3119Y1027D01*
X3162Y1027D02*
X3219Y1027D01*
X3262Y1027D02*
X3319Y1027D01*
X2362Y1026D02*
X2419Y1026D01*
X2462Y1026D02*
X2519Y1026D01*
X2562Y1026D02*
X2619Y1026D01*
X2662Y1026D02*
X2719Y1026D01*
X2762Y1026D02*
X2819Y1026D01*
X2862Y1026D02*
X2919Y1026D01*
X2962Y1026D02*
X3019Y1026D01*
X3062Y1026D02*
X3119Y1026D01*
X3162Y1026D02*
X3219Y1026D01*
X3262Y1026D02*
X3319Y1026D01*
X2362Y1025D02*
X2419Y1025D01*
X2462Y1025D02*
X2519Y1025D01*
X2562Y1025D02*
X2619Y1025D01*
X2662Y1025D02*
X2718Y1025D01*
X2762Y1025D02*
X2818Y1025D01*
X2862Y1025D02*
X2918Y1025D01*
X2962Y1025D02*
X3018Y1025D01*
X3062Y1025D02*
X3118Y1025D01*
X3162Y1025D02*
X3218Y1025D01*
X3262Y1025D02*
X3318Y1025D01*
X2363Y1024D02*
X2418Y1024D01*
X2463Y1024D02*
X2518Y1024D01*
X2563Y1024D02*
X2618Y1024D01*
X2663Y1024D02*
X2718Y1024D01*
X2763Y1024D02*
X2818Y1024D01*
X2863Y1024D02*
X2918Y1024D01*
X2963Y1024D02*
X3018Y1024D01*
X3063Y1024D02*
X3118Y1024D01*
X3163Y1024D02*
X3218Y1024D01*
X3263Y1024D02*
X3318Y1024D01*
X2363Y1023D02*
X2418Y1023D01*
X2463Y1023D02*
X2518Y1023D01*
X2563Y1023D02*
X2618Y1023D01*
X2663Y1023D02*
X2718Y1023D01*
X2763Y1023D02*
X2818Y1023D01*
X2863Y1023D02*
X2918Y1023D01*
X2963Y1023D02*
X3018Y1023D01*
X3063Y1023D02*
X3118Y1023D01*
X3163Y1023D02*
X3218Y1023D01*
X3263Y1023D02*
X3318Y1023D01*
X2364Y1022D02*
X2417Y1022D01*
X2464Y1022D02*
X2517Y1022D01*
X2564Y1022D02*
X2617Y1022D01*
X2664Y1022D02*
X2717Y1022D01*
X2764Y1022D02*
X2817Y1022D01*
X2864Y1022D02*
X2917Y1022D01*
X2964Y1022D02*
X3017Y1022D01*
X3064Y1022D02*
X3117Y1022D01*
X3164Y1022D02*
X3217Y1022D01*
X3264Y1022D02*
X3317Y1022D01*
X2364Y1021D02*
X2417Y1021D01*
X2464Y1021D02*
X2517Y1021D01*
X2564Y1021D02*
X2617Y1021D01*
X2664Y1021D02*
X2717Y1021D01*
X2764Y1021D02*
X2816Y1021D01*
X2864Y1021D02*
X2916Y1021D01*
X2964Y1021D02*
X3016Y1021D01*
X3064Y1021D02*
X3116Y1021D01*
X3164Y1021D02*
X3216Y1021D01*
X3264Y1021D02*
X3316Y1021D01*
X2365Y1020D02*
X2416Y1020D01*
X2465Y1020D02*
X2516Y1020D01*
X2565Y1020D02*
X2616Y1020D01*
X2665Y1020D02*
X2716Y1020D01*
X2765Y1020D02*
X2816Y1020D01*
X2865Y1020D02*
X2916Y1020D01*
X2965Y1020D02*
X3016Y1020D01*
X3065Y1020D02*
X3116Y1020D01*
X3165Y1020D02*
X3216Y1020D01*
X3265Y1020D02*
X3316Y1020D01*
X2366Y1019D02*
X2415Y1019D01*
X2466Y1019D02*
X2515Y1019D01*
X2566Y1019D02*
X2615Y1019D01*
X2666Y1019D02*
X2715Y1019D01*
X2766Y1019D02*
X2815Y1019D01*
X2866Y1019D02*
X2915Y1019D01*
X2966Y1019D02*
X3015Y1019D01*
X3066Y1019D02*
X3115Y1019D01*
X3166Y1019D02*
X3215Y1019D01*
X3266Y1019D02*
X3315Y1019D01*
X2366Y1018D02*
X2415Y1018D01*
X2466Y1018D02*
X2515Y1018D01*
X2566Y1018D02*
X2615Y1018D01*
X2666Y1018D02*
X2715Y1018D01*
X2766Y1018D02*
X2815Y1018D01*
X2866Y1018D02*
X2915Y1018D01*
X2966Y1018D02*
X3015Y1018D01*
X3066Y1018D02*
X3114Y1018D01*
X3166Y1018D02*
X3214Y1018D01*
X3266Y1018D02*
X3314Y1018D01*
X2367Y1017D02*
X2414Y1017D01*
X2467Y1017D02*
X2514Y1017D01*
X2567Y1017D02*
X2614Y1017D01*
X2667Y1017D02*
X2714Y1017D01*
X2767Y1017D02*
X2814Y1017D01*
X2867Y1017D02*
X2914Y1017D01*
X2967Y1017D02*
X3014Y1017D01*
X3067Y1017D02*
X3114Y1017D01*
X3167Y1017D02*
X3214Y1017D01*
X3267Y1017D02*
X3314Y1017D01*
X2368Y1016D02*
X2413Y1016D01*
X2468Y1016D02*
X2513Y1016D01*
X2568Y1016D02*
X2613Y1016D01*
X2668Y1016D02*
X2713Y1016D01*
X2768Y1016D02*
X2813Y1016D01*
X2868Y1016D02*
X2913Y1016D01*
X2968Y1016D02*
X3013Y1016D01*
X3068Y1016D02*
X3113Y1016D01*
X3168Y1016D02*
X3213Y1016D01*
X3268Y1016D02*
X3313Y1016D01*
X2369Y1015D02*
X2412Y1015D01*
X2469Y1015D02*
X2512Y1015D01*
X2569Y1015D02*
X2612Y1015D01*
X2669Y1015D02*
X2712Y1015D01*
X2769Y1015D02*
X2812Y1015D01*
X2869Y1015D02*
X2912Y1015D01*
X2969Y1015D02*
X3012Y1015D01*
X3069Y1015D02*
X3112Y1015D01*
X3169Y1015D02*
X3212Y1015D01*
X3269Y1015D02*
X3312Y1015D01*
X2370Y1014D02*
X2411Y1014D01*
X2470Y1014D02*
X2511Y1014D01*
X2570Y1014D02*
X2611Y1014D01*
X2670Y1014D02*
X2711Y1014D01*
X2770Y1014D02*
X2811Y1014D01*
X2870Y1014D02*
X2911Y1014D01*
X2970Y1014D02*
X3011Y1014D01*
X3070Y1014D02*
X3111Y1014D01*
X3170Y1014D02*
X3211Y1014D01*
X3270Y1014D02*
X3311Y1014D01*
X1Y1013D02*
X1Y1013D01*
X2371Y1013D02*
X2410Y1013D01*
X2471Y1013D02*
X2510Y1013D01*
X2571Y1013D02*
X2610Y1013D01*
X2671Y1013D02*
X2710Y1013D01*
X2771Y1013D02*
X2810Y1013D01*
X2871Y1013D02*
X2910Y1013D01*
X2971Y1013D02*
X3010Y1013D01*
X3071Y1013D02*
X3110Y1013D01*
X3171Y1013D02*
X3210Y1013D01*
X3271Y1013D02*
X3310Y1013D01*
X1Y1012D02*
X3Y1012D01*
X2372Y1012D02*
X2409Y1012D01*
X2472Y1012D02*
X2508Y1012D01*
X2572Y1012D02*
X2608Y1012D01*
X2672Y1012D02*
X2708Y1012D01*
X2772Y1012D02*
X2808Y1012D01*
X2872Y1012D02*
X2908Y1012D01*
X2972Y1012D02*
X3008Y1012D01*
X3072Y1012D02*
X3108Y1012D01*
X3172Y1012D02*
X3208Y1012D01*
X3272Y1012D02*
X3308Y1012D01*
X1Y1011D02*
X4Y1011D01*
X2374Y1011D02*
X2407Y1011D01*
X2474Y1011D02*
X2507Y1011D01*
X2574Y1011D02*
X2607Y1011D01*
X2674Y1011D02*
X2707Y1011D01*
X2774Y1011D02*
X2807Y1011D01*
X2874Y1011D02*
X2907Y1011D01*
X2974Y1011D02*
X3007Y1011D01*
X3074Y1011D02*
X3107Y1011D01*
X3174Y1011D02*
X3207Y1011D01*
X3274Y1011D02*
X3307Y1011D01*
X1Y1010D02*
X6Y1010D01*
X2375Y1010D02*
X2405Y1010D01*
X2475Y1010D02*
X2505Y1010D01*
X2575Y1010D02*
X2605Y1010D01*
X2675Y1010D02*
X2705Y1010D01*
X2775Y1010D02*
X2805Y1010D01*
X2875Y1010D02*
X2905Y1010D01*
X2975Y1010D02*
X3005Y1010D01*
X3075Y1010D02*
X3105Y1010D01*
X3175Y1010D02*
X3205Y1010D01*
X3275Y1010D02*
X3305Y1010D01*
X1Y1009D02*
X7Y1009D01*
X2377Y1009D02*
X2404Y1009D01*
X2477Y1009D02*
X2504Y1009D01*
X2577Y1009D02*
X2603Y1009D01*
X2677Y1009D02*
X2703Y1009D01*
X2777Y1009D02*
X2803Y1009D01*
X2877Y1009D02*
X2903Y1009D01*
X2977Y1009D02*
X3003Y1009D01*
X3077Y1009D02*
X3103Y1009D01*
X3177Y1009D02*
X3203Y1009D01*
X3277Y1009D02*
X3303Y1009D01*
X1Y1008D02*
X9Y1008D01*
X2380Y1008D02*
X2401Y1008D01*
X2480Y1008D02*
X2501Y1008D01*
X2580Y1008D02*
X2601Y1008D01*
X2680Y1008D02*
X2701Y1008D01*
X2780Y1008D02*
X2801Y1008D01*
X2880Y1008D02*
X2901Y1008D01*
X2980Y1008D02*
X3001Y1008D01*
X3080Y1008D02*
X3101Y1008D01*
X3180Y1008D02*
X3201Y1008D01*
X3280Y1008D02*
X3301Y1008D01*
X1Y1007D02*
X11Y1007D01*
X2383Y1007D02*
X2398Y1007D01*
X2483Y1007D02*
X2498Y1007D01*
X2583Y1007D02*
X2598Y1007D01*
X2683Y1007D02*
X2698Y1007D01*
X2783Y1007D02*
X2798Y1007D01*
X2883Y1007D02*
X2898Y1007D01*
X2982Y1007D02*
X2998Y1007D01*
X3082Y1007D02*
X3098Y1007D01*
X3182Y1007D02*
X3198Y1007D01*
X3282Y1007D02*
X3298Y1007D01*
X1Y1006D02*
X12Y1006D01*
X2387Y1006D02*
X2394Y1006D01*
X2487Y1006D02*
X2494Y1006D01*
X2587Y1006D02*
X2594Y1006D01*
X2687Y1006D02*
X2694Y1006D01*
X2787Y1006D02*
X2794Y1006D01*
X2887Y1006D02*
X2894Y1006D01*
X2987Y1006D02*
X2994Y1006D01*
X3087Y1006D02*
X3094Y1006D01*
X3187Y1006D02*
X3194Y1006D01*
X3287Y1006D02*
X3294Y1006D01*
X1Y1005D02*
X13Y1005D01*
X1Y1004D02*
X15Y1004D01*
X1Y1003D02*
X16Y1003D01*
X1Y1002D02*
X17Y1002D01*
X1Y1001D02*
X19Y1001D01*
X1Y1000D02*
X20Y1000D01*
X1Y999D02*
X21Y999D01*
X1Y998D02*
X22Y998D01*
X1Y997D02*
X23Y997D01*
X1Y996D02*
X24Y996D01*
X1Y995D02*
X25Y995D01*
X1Y994D02*
X26Y994D01*
X1Y993D02*
X27Y993D01*
X1Y992D02*
X28Y992D01*
X1Y991D02*
X29Y991D01*
X1Y990D02*
X30Y990D01*
X1Y989D02*
X31Y989D01*
X1Y988D02*
X32Y988D01*
X1Y987D02*
X33Y987D01*
X1Y986D02*
X33Y986D01*
X1Y985D02*
X34Y985D01*
X1Y984D02*
X35Y984D01*
X1Y983D02*
X36Y983D01*
X1Y982D02*
X36Y982D01*
X1Y981D02*
X37Y981D01*
X1Y980D02*
X38Y980D01*
X1Y979D02*
X39Y979D01*
X1Y978D02*
X39Y978D01*
X1Y977D02*
X40Y977D01*
X1Y976D02*
X41Y976D01*
X1Y975D02*
X41Y975D01*
X1Y974D02*
X42Y974D01*
X1Y973D02*
X42Y973D01*
X1Y972D02*
X43Y972D01*
X1Y971D02*
X44Y971D01*
X1Y970D02*
X44Y970D01*
X1Y969D02*
X45Y969D01*
X1Y968D02*
X45Y968D01*
X1Y967D02*
X46Y967D01*
X1Y966D02*
X46Y966D01*
X1Y965D02*
X47Y965D01*
X1Y964D02*
X47Y964D01*
X1Y963D02*
X48Y963D01*
X1Y962D02*
X48Y962D01*
X1Y961D02*
X49Y961D01*
X1Y960D02*
X49Y960D01*
X1Y959D02*
X49Y959D01*
X1Y958D02*
X50Y958D01*
X1Y957D02*
X50Y957D01*
X1Y956D02*
X50Y956D01*
X1Y955D02*
X51Y955D01*
X1Y954D02*
X51Y954D01*
X1Y953D02*
X51Y953D01*
X1Y952D02*
X52Y952D01*
X1Y951D02*
X52Y951D01*
X1Y950D02*
X52Y950D01*
X1Y949D02*
X53Y949D01*
X1Y948D02*
X53Y948D01*
X1Y947D02*
X53Y947D01*
X1Y946D02*
X53Y946D01*
X1Y945D02*
X54Y945D01*
X1Y944D02*
X54Y944D01*
X1Y943D02*
X54Y943D01*
X1Y942D02*
X54Y942D01*
X1Y941D02*
X55Y941D01*
X1Y940D02*
X55Y940D01*
X1Y939D02*
X55Y939D01*
X1Y938D02*
X55Y938D01*
X1Y937D02*
X55Y937D01*
X1Y936D02*
X56Y936D01*
X1Y935D02*
X56Y935D01*
X1Y934D02*
X56Y934D01*
X1Y933D02*
X56Y933D01*
X1Y932D02*
X56Y932D01*
X1Y931D02*
X56Y931D01*
X1Y930D02*
X56Y930D01*
X1Y929D02*
X56Y929D01*
X1Y928D02*
X56Y928D01*
X1Y927D02*
X57Y927D01*
X1Y926D02*
X57Y926D01*
X1Y925D02*
X57Y925D01*
X1Y924D02*
X57Y924D01*
X1Y923D02*
X57Y923D01*
X1Y922D02*
X57Y922D01*
X1Y921D02*
X57Y921D01*
X1Y920D02*
X57Y920D01*
X1Y919D02*
X57Y919D01*
X1Y918D02*
X57Y918D01*
X1Y917D02*
X57Y917D01*
X1Y916D02*
X57Y916D01*
X1Y915D02*
X57Y915D01*
X1Y914D02*
X57Y914D01*
X1Y913D02*
X56Y913D01*
X1Y912D02*
X56Y912D01*
X1Y911D02*
X56Y911D01*
X1Y910D02*
X56Y910D01*
X1Y909D02*
X56Y909D01*
X1Y908D02*
X56Y908D01*
X1Y907D02*
X56Y907D01*
X1Y906D02*
X56Y906D01*
X185Y906D02*
X268Y906D01*
X1Y905D02*
X56Y905D01*
X185Y905D02*
X268Y905D01*
X1Y904D02*
X55Y904D01*
X185Y904D02*
X268Y904D01*
X1Y903D02*
X55Y903D01*
X185Y903D02*
X268Y903D01*
X1Y902D02*
X55Y902D01*
X185Y902D02*
X268Y902D01*
X1Y901D02*
X55Y901D01*
X185Y901D02*
X268Y901D01*
X1Y900D02*
X55Y900D01*
X185Y900D02*
X268Y900D01*
X1Y899D02*
X55Y899D01*
X185Y899D02*
X268Y899D01*
X1Y898D02*
X54Y898D01*
X185Y898D02*
X268Y898D01*
X1Y897D02*
X54Y897D01*
X185Y897D02*
X268Y897D01*
X1Y896D02*
X54Y896D01*
X185Y896D02*
X268Y896D01*
X1Y895D02*
X54Y895D01*
X185Y895D02*
X268Y895D01*
X1Y894D02*
X53Y894D01*
X185Y894D02*
X268Y894D01*
X1Y893D02*
X53Y893D01*
X185Y893D02*
X268Y893D01*
X1Y892D02*
X53Y892D01*
X185Y892D02*
X268Y892D01*
X1Y891D02*
X53Y891D01*
X185Y891D02*
X268Y891D01*
X1Y890D02*
X52Y890D01*
X185Y890D02*
X268Y890D01*
X1Y889D02*
X52Y889D01*
X185Y889D02*
X268Y889D01*
X1Y888D02*
X52Y888D01*
X185Y888D02*
X268Y888D01*
X1Y887D02*
X51Y887D01*
X185Y887D02*
X268Y887D01*
X1Y886D02*
X51Y886D01*
X185Y886D02*
X268Y886D01*
X1Y885D02*
X51Y885D01*
X185Y885D02*
X268Y885D01*
X1Y884D02*
X50Y884D01*
X185Y884D02*
X268Y884D01*
X1Y883D02*
X50Y883D01*
X185Y883D02*
X268Y883D01*
X1Y882D02*
X50Y882D01*
X185Y882D02*
X268Y882D01*
X1Y881D02*
X49Y881D01*
X185Y881D02*
X268Y881D01*
X1Y880D02*
X49Y880D01*
X185Y880D02*
X268Y880D01*
X1Y879D02*
X48Y879D01*
X185Y879D02*
X223Y879D01*
X230Y879D02*
X268Y879D01*
X1Y878D02*
X48Y878D01*
X185Y878D02*
X220Y878D01*
X233Y878D02*
X268Y878D01*
X1Y877D02*
X48Y877D01*
X185Y877D02*
X218Y877D01*
X235Y877D02*
X268Y877D01*
X1Y876D02*
X47Y876D01*
X185Y876D02*
X217Y876D01*
X236Y876D02*
X268Y876D01*
X1Y875D02*
X47Y875D01*
X185Y875D02*
X215Y875D01*
X237Y875D02*
X268Y875D01*
X1Y874D02*
X46Y874D01*
X185Y874D02*
X214Y874D01*
X238Y874D02*
X268Y874D01*
X1Y873D02*
X46Y873D01*
X185Y873D02*
X214Y873D01*
X239Y873D02*
X268Y873D01*
X1Y872D02*
X45Y872D01*
X185Y872D02*
X213Y872D01*
X240Y872D02*
X268Y872D01*
X1Y871D02*
X45Y871D01*
X185Y871D02*
X212Y871D01*
X240Y871D02*
X268Y871D01*
X1Y870D02*
X44Y870D01*
X185Y870D02*
X212Y870D01*
X241Y870D02*
X268Y870D01*
X1Y869D02*
X43Y869D01*
X185Y869D02*
X212Y869D01*
X241Y869D02*
X268Y869D01*
X1Y868D02*
X43Y868D01*
X185Y868D02*
X211Y868D01*
X241Y868D02*
X268Y868D01*
X1Y867D02*
X42Y867D01*
X185Y867D02*
X211Y867D01*
X242Y867D02*
X268Y867D01*
X1Y866D02*
X42Y866D01*
X185Y866D02*
X211Y866D01*
X242Y866D02*
X268Y866D01*
X1Y865D02*
X41Y865D01*
X185Y865D02*
X211Y865D01*
X242Y865D02*
X268Y865D01*
X1Y864D02*
X40Y864D01*
X185Y864D02*
X211Y864D01*
X242Y864D02*
X268Y864D01*
X1Y863D02*
X40Y863D01*
X185Y863D02*
X211Y863D01*
X242Y863D02*
X268Y863D01*
X1Y862D02*
X39Y862D01*
X185Y862D02*
X211Y862D01*
X242Y862D02*
X268Y862D01*
X1Y861D02*
X38Y861D01*
X185Y861D02*
X211Y861D01*
X241Y861D02*
X268Y861D01*
X1Y860D02*
X38Y860D01*
X185Y860D02*
X211Y860D01*
X241Y860D02*
X268Y860D01*
X1Y859D02*
X37Y859D01*
X185Y859D02*
X212Y859D01*
X241Y859D02*
X268Y859D01*
X1Y858D02*
X36Y858D01*
X185Y858D02*
X212Y858D01*
X240Y858D02*
X268Y858D01*
X1Y857D02*
X35Y857D01*
X185Y857D02*
X213Y857D01*
X240Y857D02*
X268Y857D01*
X1Y856D02*
X35Y856D01*
X185Y856D02*
X213Y856D01*
X239Y856D02*
X268Y856D01*
X1Y855D02*
X34Y855D01*
X185Y855D02*
X214Y855D01*
X239Y855D02*
X268Y855D01*
X1Y854D02*
X33Y854D01*
X185Y854D02*
X215Y854D01*
X238Y854D02*
X268Y854D01*
X1Y853D02*
X32Y853D01*
X185Y853D02*
X216Y853D01*
X237Y853D02*
X268Y853D01*
X1Y852D02*
X32Y852D01*
X185Y852D02*
X217Y852D01*
X235Y852D02*
X268Y852D01*
X1Y851D02*
X31Y851D01*
X185Y851D02*
X219Y851D01*
X234Y851D02*
X268Y851D01*
X1Y850D02*
X30Y850D01*
X185Y850D02*
X221Y850D01*
X231Y850D02*
X268Y850D01*
X1Y849D02*
X29Y849D01*
X185Y849D02*
X268Y849D01*
X1Y848D02*
X28Y848D01*
X185Y848D02*
X268Y848D01*
X1Y847D02*
X27Y847D01*
X185Y847D02*
X268Y847D01*
X1Y846D02*
X26Y846D01*
X185Y846D02*
X268Y846D01*
X1Y845D02*
X25Y845D01*
X185Y845D02*
X268Y845D01*
X1Y844D02*
X24Y844D01*
X185Y844D02*
X268Y844D01*
X1Y843D02*
X23Y843D01*
X185Y843D02*
X268Y843D01*
X1Y842D02*
X22Y842D01*
X185Y842D02*
X268Y842D01*
X1Y841D02*
X21Y841D01*
X185Y841D02*
X268Y841D01*
X1Y840D02*
X19Y840D01*
X185Y840D02*
X268Y840D01*
X1Y839D02*
X18Y839D01*
X185Y839D02*
X268Y839D01*
X1Y838D02*
X17Y838D01*
X185Y838D02*
X268Y838D01*
X1Y837D02*
X16Y837D01*
X185Y837D02*
X268Y837D01*
X1Y836D02*
X14Y836D01*
X185Y836D02*
X268Y836D01*
X1Y835D02*
X13Y835D01*
X185Y835D02*
X268Y835D01*
X1Y834D02*
X12Y834D01*
X185Y834D02*
X268Y834D01*
X1Y833D02*
X10Y833D01*
X185Y833D02*
X268Y833D01*
X1Y832D02*
X8Y832D01*
X185Y832D02*
X268Y832D01*
X1Y831D02*
X7Y831D01*
X185Y831D02*
X268Y831D01*
X1Y830D02*
X5Y830D01*
X185Y830D02*
X268Y830D01*
X1Y829D02*
X4Y829D01*
X185Y829D02*
X268Y829D01*
X1Y828D02*
X2Y828D01*
X185Y828D02*
X268Y828D01*
X185Y827D02*
X268Y827D01*
X185Y826D02*
X268Y826D01*
X185Y825D02*
X268Y825D01*
X185Y824D02*
X268Y824D01*
X185Y823D02*
X268Y823D01*
X2384Y819D02*
X2396Y819D01*
X2484Y819D02*
X2496Y819D01*
X2584Y819D02*
X2596Y819D01*
X2684Y819D02*
X2696Y819D01*
X2784Y819D02*
X2796Y819D01*
X2884Y819D02*
X2896Y819D01*
X2984Y819D02*
X2996Y819D01*
X3084Y819D02*
X3096Y819D01*
X3184Y819D02*
X3196Y819D01*
X3284Y819D02*
X3296Y819D01*
X2381Y818D02*
X2400Y818D01*
X2481Y818D02*
X2500Y818D01*
X2581Y818D02*
X2600Y818D01*
X2681Y818D02*
X2700Y818D01*
X2781Y818D02*
X2800Y818D01*
X2881Y818D02*
X2900Y818D01*
X2981Y818D02*
X3000Y818D01*
X3081Y818D02*
X3100Y818D01*
X3181Y818D02*
X3200Y818D01*
X3281Y818D02*
X3300Y818D01*
X2378Y817D02*
X2402Y817D01*
X2478Y817D02*
X2502Y817D01*
X2578Y817D02*
X2602Y817D01*
X2678Y817D02*
X2702Y817D01*
X2778Y817D02*
X2802Y817D01*
X2878Y817D02*
X2902Y817D01*
X2978Y817D02*
X3002Y817D01*
X3078Y817D02*
X3102Y817D01*
X3178Y817D02*
X3202Y817D01*
X3278Y817D02*
X3302Y817D01*
X2376Y816D02*
X2405Y816D01*
X2476Y816D02*
X2505Y816D01*
X2576Y816D02*
X2605Y816D01*
X2676Y816D02*
X2705Y816D01*
X2776Y816D02*
X2805Y816D01*
X2876Y816D02*
X2905Y816D01*
X2976Y816D02*
X3004Y816D01*
X3076Y816D02*
X3104Y816D01*
X3176Y816D02*
X3204Y816D01*
X3276Y816D02*
X3304Y816D01*
X2375Y815D02*
X2406Y815D01*
X2475Y815D02*
X2506Y815D01*
X2575Y815D02*
X2606Y815D01*
X2675Y815D02*
X2706Y815D01*
X2775Y815D02*
X2806Y815D01*
X2875Y815D02*
X2906Y815D01*
X2975Y815D02*
X3006Y815D01*
X3075Y815D02*
X3106Y815D01*
X3175Y815D02*
X3206Y815D01*
X3275Y815D02*
X3306Y815D01*
X2373Y814D02*
X2408Y814D01*
X2473Y814D02*
X2508Y814D01*
X2573Y814D02*
X2608Y814D01*
X2673Y814D02*
X2708Y814D01*
X2773Y814D02*
X2808Y814D01*
X2873Y814D02*
X2908Y814D01*
X2973Y814D02*
X3008Y814D01*
X3073Y814D02*
X3108Y814D01*
X3173Y814D02*
X3208Y814D01*
X3273Y814D02*
X3308Y814D01*
X2372Y813D02*
X2409Y813D01*
X2472Y813D02*
X2509Y813D01*
X2572Y813D02*
X2609Y813D01*
X2672Y813D02*
X2709Y813D01*
X2772Y813D02*
X2809Y813D01*
X2872Y813D02*
X2909Y813D01*
X2972Y813D02*
X3009Y813D01*
X3072Y813D02*
X3109Y813D01*
X3172Y813D02*
X3209Y813D01*
X3272Y813D02*
X3309Y813D01*
X2370Y812D02*
X2410Y812D01*
X2470Y812D02*
X2510Y812D01*
X2570Y812D02*
X2610Y812D01*
X2670Y812D02*
X2710Y812D01*
X2770Y812D02*
X2810Y812D01*
X2870Y812D02*
X2910Y812D01*
X2970Y812D02*
X3010Y812D01*
X3070Y812D02*
X3110Y812D01*
X3170Y812D02*
X3210Y812D01*
X3270Y812D02*
X3310Y812D01*
X2369Y811D02*
X2412Y811D01*
X2469Y811D02*
X2512Y811D01*
X2569Y811D02*
X2611Y811D01*
X2669Y811D02*
X2711Y811D01*
X2769Y811D02*
X2811Y811D01*
X2869Y811D02*
X2911Y811D01*
X2969Y811D02*
X3011Y811D01*
X3069Y811D02*
X3111Y811D01*
X3169Y811D02*
X3211Y811D01*
X3269Y811D02*
X3311Y811D01*
X2368Y810D02*
X2412Y810D01*
X2468Y810D02*
X2512Y810D01*
X2568Y810D02*
X2612Y810D01*
X2668Y810D02*
X2712Y810D01*
X2768Y810D02*
X2812Y810D01*
X2868Y810D02*
X2912Y810D01*
X2968Y810D02*
X3012Y810D01*
X3068Y810D02*
X3112Y810D01*
X3168Y810D02*
X3212Y810D01*
X3268Y810D02*
X3312Y810D01*
X2368Y809D02*
X2413Y809D01*
X2468Y809D02*
X2513Y809D01*
X2567Y809D02*
X2613Y809D01*
X2667Y809D02*
X2713Y809D01*
X2767Y809D02*
X2813Y809D01*
X2867Y809D02*
X2913Y809D01*
X2967Y809D02*
X3013Y809D01*
X3067Y809D02*
X3113Y809D01*
X3167Y809D02*
X3213Y809D01*
X3267Y809D02*
X3313Y809D01*
X2367Y808D02*
X2414Y808D01*
X2467Y808D02*
X2514Y808D01*
X2567Y808D02*
X2614Y808D01*
X2667Y808D02*
X2714Y808D01*
X2767Y808D02*
X2814Y808D01*
X2867Y808D02*
X2914Y808D01*
X2967Y808D02*
X3014Y808D01*
X3067Y808D02*
X3114Y808D01*
X3167Y808D02*
X3214Y808D01*
X3267Y808D02*
X3314Y808D01*
X2366Y807D02*
X2415Y807D01*
X2466Y807D02*
X2515Y807D01*
X2566Y807D02*
X2615Y807D01*
X2666Y807D02*
X2715Y807D01*
X2766Y807D02*
X2815Y807D01*
X2866Y807D02*
X2915Y807D01*
X2966Y807D02*
X3015Y807D01*
X3066Y807D02*
X3115Y807D01*
X3166Y807D02*
X3215Y807D01*
X3266Y807D02*
X3315Y807D01*
X2365Y806D02*
X2416Y806D01*
X2465Y806D02*
X2516Y806D01*
X2565Y806D02*
X2616Y806D01*
X2665Y806D02*
X2716Y806D01*
X2765Y806D02*
X2816Y806D01*
X2865Y806D02*
X2916Y806D01*
X2965Y806D02*
X3016Y806D01*
X3065Y806D02*
X3116Y806D01*
X3165Y806D02*
X3216Y806D01*
X3265Y806D02*
X3316Y806D01*
X2365Y805D02*
X2416Y805D01*
X2465Y805D02*
X2516Y805D01*
X2565Y805D02*
X2616Y805D01*
X2665Y805D02*
X2716Y805D01*
X2765Y805D02*
X2816Y805D01*
X2865Y805D02*
X2916Y805D01*
X2965Y805D02*
X3016Y805D01*
X3065Y805D02*
X3116Y805D01*
X3165Y805D02*
X3216Y805D01*
X3265Y805D02*
X3316Y805D01*
X2364Y804D02*
X2417Y804D01*
X2464Y804D02*
X2517Y804D01*
X2564Y804D02*
X2617Y804D01*
X2664Y804D02*
X2717Y804D01*
X2764Y804D02*
X2817Y804D01*
X2864Y804D02*
X2917Y804D01*
X2964Y804D02*
X3017Y804D01*
X3064Y804D02*
X3117Y804D01*
X3164Y804D02*
X3217Y804D01*
X3264Y804D02*
X3317Y804D01*
X2364Y803D02*
X2417Y803D01*
X2464Y803D02*
X2517Y803D01*
X2564Y803D02*
X2617Y803D01*
X2663Y803D02*
X2717Y803D01*
X2763Y803D02*
X2817Y803D01*
X2863Y803D02*
X2917Y803D01*
X2963Y803D02*
X3017Y803D01*
X3063Y803D02*
X3117Y803D01*
X3163Y803D02*
X3217Y803D01*
X3263Y803D02*
X3317Y803D01*
X2363Y802D02*
X2418Y802D01*
X2463Y802D02*
X2518Y802D01*
X2563Y802D02*
X2618Y802D01*
X2663Y802D02*
X2718Y802D01*
X2763Y802D02*
X2818Y802D01*
X2863Y802D02*
X2918Y802D01*
X2963Y802D02*
X3018Y802D01*
X3063Y802D02*
X3118Y802D01*
X3163Y802D02*
X3218Y802D01*
X3263Y802D02*
X3318Y802D01*
X2363Y801D02*
X2418Y801D01*
X2463Y801D02*
X2518Y801D01*
X2563Y801D02*
X2618Y801D01*
X2663Y801D02*
X2718Y801D01*
X2763Y801D02*
X2818Y801D01*
X2863Y801D02*
X2918Y801D01*
X2963Y801D02*
X3018Y801D01*
X3062Y801D02*
X3118Y801D01*
X3162Y801D02*
X3218Y801D01*
X3262Y801D02*
X3318Y801D01*
X2362Y800D02*
X2419Y800D01*
X2462Y800D02*
X2519Y800D01*
X2562Y800D02*
X2619Y800D01*
X2662Y800D02*
X2719Y800D01*
X2762Y800D02*
X2819Y800D01*
X2862Y800D02*
X2919Y800D01*
X2962Y800D02*
X3019Y800D01*
X3062Y800D02*
X3119Y800D01*
X3162Y800D02*
X3219Y800D01*
X3262Y800D02*
X3319Y800D01*
X2362Y799D02*
X2419Y799D01*
X2462Y799D02*
X2519Y799D01*
X2562Y799D02*
X2619Y799D01*
X2662Y799D02*
X2719Y799D01*
X2762Y799D02*
X2819Y799D01*
X2862Y799D02*
X2919Y799D01*
X2962Y799D02*
X3019Y799D01*
X3062Y799D02*
X3119Y799D01*
X3162Y799D02*
X3219Y799D01*
X3262Y799D02*
X3319Y799D01*
X2361Y798D02*
X2419Y798D01*
X2461Y798D02*
X2519Y798D01*
X2561Y798D02*
X2619Y798D01*
X2661Y798D02*
X2719Y798D01*
X2761Y798D02*
X2819Y798D01*
X2861Y798D02*
X2919Y798D01*
X2961Y798D02*
X3019Y798D01*
X3061Y798D02*
X3119Y798D01*
X3161Y798D02*
X3219Y798D01*
X3261Y798D02*
X3319Y798D01*
X2361Y797D02*
X2420Y797D01*
X2461Y797D02*
X2520Y797D01*
X2561Y797D02*
X2620Y797D01*
X2661Y797D02*
X2720Y797D01*
X2761Y797D02*
X2820Y797D01*
X2861Y797D02*
X2920Y797D01*
X2961Y797D02*
X3020Y797D01*
X3061Y797D02*
X3120Y797D01*
X3161Y797D02*
X3220Y797D01*
X3261Y797D02*
X3320Y797D01*
X2361Y796D02*
X2420Y796D01*
X2461Y796D02*
X2520Y796D01*
X2561Y796D02*
X2620Y796D01*
X2661Y796D02*
X2720Y796D01*
X2761Y796D02*
X2820Y796D01*
X2861Y796D02*
X2920Y796D01*
X2961Y796D02*
X3020Y796D01*
X3061Y796D02*
X3120Y796D01*
X3161Y796D02*
X3220Y796D01*
X3261Y796D02*
X3320Y796D01*
X2361Y795D02*
X2420Y795D01*
X2461Y795D02*
X2520Y795D01*
X2561Y795D02*
X2620Y795D01*
X2661Y795D02*
X2720Y795D01*
X2761Y795D02*
X2820Y795D01*
X2861Y795D02*
X2920Y795D01*
X2961Y795D02*
X3020Y795D01*
X3061Y795D02*
X3120Y795D01*
X3161Y795D02*
X3220Y795D01*
X3261Y795D02*
X3320Y795D01*
X2360Y794D02*
X2420Y794D01*
X2460Y794D02*
X2520Y794D01*
X2560Y794D02*
X2620Y794D01*
X2660Y794D02*
X2720Y794D01*
X2760Y794D02*
X2820Y794D01*
X2860Y794D02*
X2920Y794D01*
X2960Y794D02*
X3020Y794D01*
X3060Y794D02*
X3120Y794D01*
X3160Y794D02*
X3220Y794D01*
X3260Y794D02*
X3320Y794D01*
X2360Y793D02*
X2421Y793D01*
X2460Y793D02*
X2521Y793D01*
X2560Y793D02*
X2621Y793D01*
X2660Y793D02*
X2721Y793D01*
X2760Y793D02*
X2821Y793D01*
X2860Y793D02*
X2921Y793D01*
X2960Y793D02*
X3021Y793D01*
X3060Y793D02*
X3121Y793D01*
X3160Y793D02*
X3221Y793D01*
X3260Y793D02*
X3321Y793D01*
X2360Y792D02*
X2421Y792D01*
X2460Y792D02*
X2521Y792D01*
X2560Y792D02*
X2621Y792D01*
X2660Y792D02*
X2721Y792D01*
X2760Y792D02*
X2821Y792D01*
X2860Y792D02*
X2921Y792D01*
X2960Y792D02*
X3021Y792D01*
X3060Y792D02*
X3121Y792D01*
X3160Y792D02*
X3221Y792D01*
X3260Y792D02*
X3321Y792D01*
X2360Y791D02*
X2421Y791D01*
X2460Y791D02*
X2521Y791D01*
X2560Y791D02*
X2621Y791D01*
X2660Y791D02*
X2721Y791D01*
X2760Y791D02*
X2821Y791D01*
X2860Y791D02*
X2921Y791D01*
X2960Y791D02*
X3021Y791D01*
X3060Y791D02*
X3121Y791D01*
X3160Y791D02*
X3221Y791D01*
X3260Y791D02*
X3321Y791D01*
X2360Y790D02*
X2421Y790D01*
X2460Y790D02*
X2521Y790D01*
X2560Y790D02*
X2621Y790D01*
X2660Y790D02*
X2721Y790D01*
X2760Y790D02*
X2821Y790D01*
X2860Y790D02*
X2921Y790D01*
X2960Y790D02*
X3021Y790D01*
X3060Y790D02*
X3121Y790D01*
X3160Y790D02*
X3221Y790D01*
X3260Y790D02*
X3321Y790D01*
X2360Y789D02*
X2421Y789D01*
X2460Y789D02*
X2521Y789D01*
X2560Y789D02*
X2621Y789D01*
X2660Y789D02*
X2721Y789D01*
X2760Y789D02*
X2821Y789D01*
X2860Y789D02*
X2921Y789D01*
X2960Y789D02*
X3021Y789D01*
X3060Y789D02*
X3121Y789D01*
X3160Y789D02*
X3221Y789D01*
X3260Y789D02*
X3321Y789D01*
X2360Y788D02*
X2421Y788D01*
X2460Y788D02*
X2521Y788D01*
X2560Y788D02*
X2621Y788D01*
X2660Y788D02*
X2721Y788D01*
X2760Y788D02*
X2821Y788D01*
X2860Y788D02*
X2921Y788D01*
X2960Y788D02*
X3021Y788D01*
X3060Y788D02*
X3121Y788D01*
X3160Y788D02*
X3221Y788D01*
X3260Y788D02*
X3321Y788D01*
X2360Y787D02*
X2421Y787D01*
X2460Y787D02*
X2521Y787D01*
X2560Y787D02*
X2621Y787D01*
X2660Y787D02*
X2721Y787D01*
X2760Y787D02*
X2821Y787D01*
X2860Y787D02*
X2921Y787D01*
X2960Y787D02*
X3021Y787D01*
X3060Y787D02*
X3121Y787D01*
X3160Y787D02*
X3221Y787D01*
X3260Y787D02*
X3321Y787D01*
X2360Y786D02*
X2421Y786D01*
X2460Y786D02*
X2521Y786D01*
X2560Y786D02*
X2621Y786D01*
X2660Y786D02*
X2721Y786D01*
X2760Y786D02*
X2821Y786D01*
X2860Y786D02*
X2921Y786D01*
X2960Y786D02*
X3021Y786D01*
X3060Y786D02*
X3121Y786D01*
X3160Y786D02*
X3221Y786D01*
X3260Y786D02*
X3321Y786D01*
X2360Y785D02*
X2421Y785D01*
X2460Y785D02*
X2521Y785D01*
X2560Y785D02*
X2621Y785D01*
X2660Y785D02*
X2721Y785D01*
X2760Y785D02*
X2821Y785D01*
X2860Y785D02*
X2921Y785D01*
X2960Y785D02*
X3021Y785D01*
X3060Y785D02*
X3121Y785D01*
X3160Y785D02*
X3221Y785D01*
X3260Y785D02*
X3321Y785D01*
X2360Y784D02*
X2421Y784D01*
X2460Y784D02*
X2521Y784D01*
X2560Y784D02*
X2621Y784D01*
X2660Y784D02*
X2721Y784D01*
X2760Y784D02*
X2821Y784D01*
X2860Y784D02*
X2921Y784D01*
X2960Y784D02*
X3021Y784D01*
X3060Y784D02*
X3121Y784D01*
X3160Y784D02*
X3221Y784D01*
X3260Y784D02*
X3321Y784D01*
X2360Y783D02*
X2421Y783D01*
X2460Y783D02*
X2521Y783D01*
X2560Y783D02*
X2621Y783D01*
X2660Y783D02*
X2721Y783D01*
X2760Y783D02*
X2821Y783D01*
X2860Y783D02*
X2921Y783D01*
X2960Y783D02*
X3021Y783D01*
X3060Y783D02*
X3121Y783D01*
X3160Y783D02*
X3221Y783D01*
X3260Y783D02*
X3321Y783D01*
X2360Y782D02*
X2421Y782D01*
X2460Y782D02*
X2521Y782D01*
X2560Y782D02*
X2621Y782D01*
X2660Y782D02*
X2721Y782D01*
X2760Y782D02*
X2821Y782D01*
X2860Y782D02*
X2921Y782D01*
X2960Y782D02*
X3021Y782D01*
X3060Y782D02*
X3121Y782D01*
X3160Y782D02*
X3221Y782D01*
X3260Y782D02*
X3321Y782D01*
X2360Y781D02*
X2421Y781D01*
X2460Y781D02*
X2521Y781D01*
X2560Y781D02*
X2621Y781D01*
X2660Y781D02*
X2721Y781D01*
X2760Y781D02*
X2821Y781D01*
X2860Y781D02*
X2921Y781D01*
X2960Y781D02*
X3021Y781D01*
X3060Y781D02*
X3121Y781D01*
X3160Y781D02*
X3221Y781D01*
X3260Y781D02*
X3321Y781D01*
X2360Y780D02*
X2421Y780D01*
X2460Y780D02*
X2521Y780D01*
X2560Y780D02*
X2621Y780D01*
X2660Y780D02*
X2721Y780D01*
X2760Y780D02*
X2821Y780D01*
X2860Y780D02*
X2921Y780D01*
X2960Y780D02*
X3021Y780D01*
X3060Y780D02*
X3121Y780D01*
X3160Y780D02*
X3221Y780D01*
X3260Y780D02*
X3321Y780D01*
X2360Y779D02*
X2421Y779D01*
X2460Y779D02*
X2521Y779D01*
X2560Y779D02*
X2621Y779D01*
X2660Y779D02*
X2721Y779D01*
X2760Y779D02*
X2821Y779D01*
X2860Y779D02*
X2921Y779D01*
X2960Y779D02*
X3021Y779D01*
X3060Y779D02*
X3121Y779D01*
X3160Y779D02*
X3221Y779D01*
X3260Y779D02*
X3321Y779D01*
X2360Y778D02*
X2421Y778D01*
X2460Y778D02*
X2521Y778D01*
X2560Y778D02*
X2621Y778D01*
X2660Y778D02*
X2721Y778D01*
X2760Y778D02*
X2821Y778D01*
X2860Y778D02*
X2921Y778D01*
X2960Y778D02*
X3021Y778D01*
X3060Y778D02*
X3121Y778D01*
X3160Y778D02*
X3221Y778D01*
X3260Y778D02*
X3321Y778D01*
X2360Y777D02*
X2421Y777D01*
X2460Y777D02*
X2521Y777D01*
X2560Y777D02*
X2621Y777D01*
X2660Y777D02*
X2721Y777D01*
X2760Y777D02*
X2821Y777D01*
X2860Y777D02*
X2921Y777D01*
X2960Y777D02*
X3021Y777D01*
X3060Y777D02*
X3121Y777D01*
X3160Y777D02*
X3221Y777D01*
X3260Y777D02*
X3321Y777D01*
X2360Y776D02*
X2421Y776D01*
X2460Y776D02*
X2521Y776D01*
X2560Y776D02*
X2621Y776D01*
X2660Y776D02*
X2721Y776D01*
X2760Y776D02*
X2821Y776D01*
X2860Y776D02*
X2921Y776D01*
X2960Y776D02*
X3021Y776D01*
X3060Y776D02*
X3121Y776D01*
X3160Y776D02*
X3221Y776D01*
X3260Y776D02*
X3321Y776D01*
X2360Y775D02*
X2421Y775D01*
X2460Y775D02*
X2521Y775D01*
X2560Y775D02*
X2621Y775D01*
X2660Y775D02*
X2721Y775D01*
X2760Y775D02*
X2821Y775D01*
X2860Y775D02*
X2921Y775D01*
X2960Y775D02*
X3021Y775D01*
X3060Y775D02*
X3121Y775D01*
X3160Y775D02*
X3221Y775D01*
X3260Y775D02*
X3321Y775D01*
X2360Y774D02*
X2421Y774D01*
X2460Y774D02*
X2521Y774D01*
X2560Y774D02*
X2621Y774D01*
X2660Y774D02*
X2721Y774D01*
X2760Y774D02*
X2821Y774D01*
X2860Y774D02*
X2921Y774D01*
X2960Y774D02*
X3021Y774D01*
X3060Y774D02*
X3121Y774D01*
X3160Y774D02*
X3221Y774D01*
X3260Y774D02*
X3321Y774D01*
X2360Y773D02*
X2386Y773D01*
X2395Y773D02*
X2421Y773D01*
X2460Y773D02*
X2486Y773D01*
X2495Y773D02*
X2521Y773D01*
X2560Y773D02*
X2586Y773D01*
X2595Y773D02*
X2621Y773D01*
X2660Y773D02*
X2686Y773D01*
X2695Y773D02*
X2721Y773D01*
X2760Y773D02*
X2786Y773D01*
X2795Y773D02*
X2821Y773D01*
X2860Y773D02*
X2886Y773D01*
X2895Y773D02*
X2921Y773D01*
X2960Y773D02*
X2986Y773D01*
X2995Y773D02*
X3021Y773D01*
X3060Y773D02*
X3086Y773D01*
X3095Y773D02*
X3121Y773D01*
X3160Y773D02*
X3186Y773D01*
X3195Y773D02*
X3221Y773D01*
X3260Y773D02*
X3286Y773D01*
X3295Y773D02*
X3321Y773D01*
X2360Y772D02*
X2384Y772D01*
X2397Y772D02*
X2421Y772D01*
X2460Y772D02*
X2484Y772D01*
X2497Y772D02*
X2521Y772D01*
X2560Y772D02*
X2584Y772D01*
X2597Y772D02*
X2621Y772D01*
X2660Y772D02*
X2684Y772D01*
X2697Y772D02*
X2721Y772D01*
X2760Y772D02*
X2784Y772D01*
X2797Y772D02*
X2821Y772D01*
X2860Y772D02*
X2884Y772D01*
X2897Y772D02*
X2921Y772D01*
X2960Y772D02*
X2984Y772D01*
X2997Y772D02*
X3021Y772D01*
X3060Y772D02*
X3084Y772D01*
X3097Y772D02*
X3121Y772D01*
X3160Y772D02*
X3184Y772D01*
X3197Y772D02*
X3221Y772D01*
X3260Y772D02*
X3284Y772D01*
X3297Y772D02*
X3321Y772D01*
X2360Y771D02*
X2383Y771D01*
X2398Y771D02*
X2421Y771D01*
X2460Y771D02*
X2483Y771D01*
X2498Y771D02*
X2521Y771D01*
X2560Y771D02*
X2583Y771D01*
X2598Y771D02*
X2621Y771D01*
X2660Y771D02*
X2683Y771D01*
X2698Y771D02*
X2721Y771D01*
X2760Y771D02*
X2783Y771D01*
X2798Y771D02*
X2821Y771D01*
X2860Y771D02*
X2883Y771D01*
X2898Y771D02*
X2921Y771D01*
X2960Y771D02*
X2983Y771D01*
X2998Y771D02*
X3021Y771D01*
X3060Y771D02*
X3083Y771D01*
X3098Y771D02*
X3121Y771D01*
X3160Y771D02*
X3183Y771D01*
X3198Y771D02*
X3221Y771D01*
X3260Y771D02*
X3283Y771D01*
X3298Y771D02*
X3321Y771D01*
X2360Y770D02*
X2382Y770D01*
X2399Y770D02*
X2421Y770D01*
X2460Y770D02*
X2482Y770D01*
X2499Y770D02*
X2521Y770D01*
X2560Y770D02*
X2582Y770D01*
X2599Y770D02*
X2621Y770D01*
X2660Y770D02*
X2682Y770D01*
X2699Y770D02*
X2721Y770D01*
X2760Y770D02*
X2782Y770D01*
X2799Y770D02*
X2821Y770D01*
X2860Y770D02*
X2882Y770D01*
X2899Y770D02*
X2921Y770D01*
X2960Y770D02*
X2982Y770D01*
X2999Y770D02*
X3021Y770D01*
X3060Y770D02*
X3082Y770D01*
X3099Y770D02*
X3121Y770D01*
X3160Y770D02*
X3182Y770D01*
X3199Y770D02*
X3221Y770D01*
X3260Y770D02*
X3282Y770D01*
X3299Y770D02*
X3321Y770D01*
X2360Y769D02*
X2381Y769D01*
X2400Y769D02*
X2421Y769D01*
X2460Y769D02*
X2481Y769D01*
X2500Y769D02*
X2521Y769D01*
X2560Y769D02*
X2581Y769D01*
X2600Y769D02*
X2621Y769D01*
X2660Y769D02*
X2681Y769D01*
X2700Y769D02*
X2721Y769D01*
X2760Y769D02*
X2781Y769D01*
X2800Y769D02*
X2821Y769D01*
X2860Y769D02*
X2881Y769D01*
X2900Y769D02*
X2921Y769D01*
X2960Y769D02*
X2981Y769D01*
X3000Y769D02*
X3021Y769D01*
X3060Y769D02*
X3081Y769D01*
X3100Y769D02*
X3121Y769D01*
X3160Y769D02*
X3181Y769D01*
X3200Y769D02*
X3221Y769D01*
X3260Y769D02*
X3281Y769D01*
X3300Y769D02*
X3321Y769D01*
X2360Y768D02*
X2380Y768D01*
X2401Y768D02*
X2421Y768D01*
X2460Y768D02*
X2480Y768D01*
X2501Y768D02*
X2521Y768D01*
X2560Y768D02*
X2580Y768D01*
X2601Y768D02*
X2621Y768D01*
X2660Y768D02*
X2680Y768D01*
X2701Y768D02*
X2721Y768D01*
X2760Y768D02*
X2780Y768D01*
X2801Y768D02*
X2821Y768D01*
X2860Y768D02*
X2880Y768D01*
X2901Y768D02*
X2921Y768D01*
X2960Y768D02*
X2980Y768D01*
X3001Y768D02*
X3021Y768D01*
X3060Y768D02*
X3080Y768D01*
X3101Y768D02*
X3121Y768D01*
X3160Y768D02*
X3180Y768D01*
X3201Y768D02*
X3221Y768D01*
X3260Y768D02*
X3280Y768D01*
X3301Y768D02*
X3321Y768D01*
X2360Y767D02*
X2380Y767D01*
X2401Y767D02*
X2421Y767D01*
X2460Y767D02*
X2480Y767D01*
X2501Y767D02*
X2521Y767D01*
X2560Y767D02*
X2580Y767D01*
X2601Y767D02*
X2621Y767D01*
X2660Y767D02*
X2680Y767D01*
X2701Y767D02*
X2721Y767D01*
X2760Y767D02*
X2780Y767D01*
X2801Y767D02*
X2821Y767D01*
X2860Y767D02*
X2880Y767D01*
X2901Y767D02*
X2921Y767D01*
X2960Y767D02*
X2980Y767D01*
X3001Y767D02*
X3021Y767D01*
X3060Y767D02*
X3080Y767D01*
X3101Y767D02*
X3121Y767D01*
X3160Y767D02*
X3180Y767D01*
X3201Y767D02*
X3221Y767D01*
X3260Y767D02*
X3280Y767D01*
X3301Y767D02*
X3321Y767D01*
X2360Y766D02*
X2379Y766D01*
X2401Y766D02*
X2421Y766D01*
X2460Y766D02*
X2479Y766D01*
X2501Y766D02*
X2521Y766D01*
X2560Y766D02*
X2579Y766D01*
X2601Y766D02*
X2621Y766D01*
X2660Y766D02*
X2679Y766D01*
X2701Y766D02*
X2721Y766D01*
X2760Y766D02*
X2779Y766D01*
X2801Y766D02*
X2821Y766D01*
X2860Y766D02*
X2879Y766D01*
X2901Y766D02*
X2921Y766D01*
X2960Y766D02*
X2979Y766D01*
X3001Y766D02*
X3021Y766D01*
X3060Y766D02*
X3079Y766D01*
X3101Y766D02*
X3121Y766D01*
X3160Y766D02*
X3179Y766D01*
X3201Y766D02*
X3221Y766D01*
X3260Y766D02*
X3279Y766D01*
X3301Y766D02*
X3321Y766D01*
X2360Y765D02*
X2379Y765D01*
X2402Y765D02*
X2421Y765D01*
X2460Y765D02*
X2479Y765D01*
X2502Y765D02*
X2521Y765D01*
X2560Y765D02*
X2579Y765D01*
X2602Y765D02*
X2621Y765D01*
X2660Y765D02*
X2679Y765D01*
X2702Y765D02*
X2721Y765D01*
X2760Y765D02*
X2779Y765D01*
X2802Y765D02*
X2821Y765D01*
X2860Y765D02*
X2879Y765D01*
X2902Y765D02*
X2921Y765D01*
X2960Y765D02*
X2979Y765D01*
X3002Y765D02*
X3021Y765D01*
X3060Y765D02*
X3079Y765D01*
X3102Y765D02*
X3121Y765D01*
X3160Y765D02*
X3179Y765D01*
X3202Y765D02*
X3221Y765D01*
X3260Y765D02*
X3279Y765D01*
X3302Y765D02*
X3321Y765D01*
X2360Y764D02*
X2379Y764D01*
X2402Y764D02*
X2421Y764D01*
X2460Y764D02*
X2479Y764D01*
X2502Y764D02*
X2521Y764D01*
X2560Y764D02*
X2579Y764D01*
X2602Y764D02*
X2621Y764D01*
X2660Y764D02*
X2679Y764D01*
X2702Y764D02*
X2721Y764D01*
X2760Y764D02*
X2779Y764D01*
X2802Y764D02*
X2821Y764D01*
X2860Y764D02*
X2879Y764D01*
X2902Y764D02*
X2921Y764D01*
X2960Y764D02*
X2979Y764D01*
X3002Y764D02*
X3021Y764D01*
X3060Y764D02*
X3079Y764D01*
X3102Y764D02*
X3121Y764D01*
X3160Y764D02*
X3179Y764D01*
X3202Y764D02*
X3221Y764D01*
X3260Y764D02*
X3279Y764D01*
X3302Y764D02*
X3321Y764D01*
X2360Y763D02*
X2379Y763D01*
X2402Y763D02*
X2421Y763D01*
X2460Y763D02*
X2479Y763D01*
X2502Y763D02*
X2521Y763D01*
X2560Y763D02*
X2579Y763D01*
X2602Y763D02*
X2621Y763D01*
X2660Y763D02*
X2679Y763D01*
X2702Y763D02*
X2721Y763D01*
X2760Y763D02*
X2779Y763D01*
X2802Y763D02*
X2821Y763D01*
X2860Y763D02*
X2879Y763D01*
X2902Y763D02*
X2921Y763D01*
X2960Y763D02*
X2979Y763D01*
X3002Y763D02*
X3021Y763D01*
X3060Y763D02*
X3079Y763D01*
X3102Y763D02*
X3121Y763D01*
X3160Y763D02*
X3179Y763D01*
X3202Y763D02*
X3221Y763D01*
X3260Y763D02*
X3279Y763D01*
X3302Y763D02*
X3321Y763D01*
X2360Y762D02*
X2379Y762D01*
X2402Y762D02*
X2421Y762D01*
X2460Y762D02*
X2479Y762D01*
X2502Y762D02*
X2521Y762D01*
X2560Y762D02*
X2579Y762D01*
X2602Y762D02*
X2621Y762D01*
X2660Y762D02*
X2679Y762D01*
X2702Y762D02*
X2721Y762D01*
X2760Y762D02*
X2779Y762D01*
X2802Y762D02*
X2821Y762D01*
X2860Y762D02*
X2879Y762D01*
X2902Y762D02*
X2921Y762D01*
X2960Y762D02*
X2979Y762D01*
X3002Y762D02*
X3021Y762D01*
X3060Y762D02*
X3079Y762D01*
X3102Y762D02*
X3121Y762D01*
X3160Y762D02*
X3179Y762D01*
X3202Y762D02*
X3221Y762D01*
X3260Y762D02*
X3279Y762D01*
X3302Y762D02*
X3321Y762D01*
X2360Y761D02*
X2379Y761D01*
X2402Y761D02*
X2421Y761D01*
X2460Y761D02*
X2479Y761D01*
X2502Y761D02*
X2521Y761D01*
X2560Y761D02*
X2579Y761D01*
X2602Y761D02*
X2621Y761D01*
X2660Y761D02*
X2679Y761D01*
X2702Y761D02*
X2721Y761D01*
X2760Y761D02*
X2779Y761D01*
X2802Y761D02*
X2821Y761D01*
X2860Y761D02*
X2879Y761D01*
X2902Y761D02*
X2921Y761D01*
X2960Y761D02*
X2979Y761D01*
X3002Y761D02*
X3021Y761D01*
X3060Y761D02*
X3079Y761D01*
X3102Y761D02*
X3121Y761D01*
X3160Y761D02*
X3179Y761D01*
X3202Y761D02*
X3221Y761D01*
X3260Y761D02*
X3279Y761D01*
X3302Y761D02*
X3321Y761D01*
X2360Y760D02*
X2379Y760D01*
X2402Y760D02*
X2421Y760D01*
X2460Y760D02*
X2479Y760D01*
X2502Y760D02*
X2521Y760D01*
X2560Y760D02*
X2579Y760D01*
X2602Y760D02*
X2621Y760D01*
X2660Y760D02*
X2679Y760D01*
X2702Y760D02*
X2721Y760D01*
X2760Y760D02*
X2779Y760D01*
X2802Y760D02*
X2821Y760D01*
X2860Y760D02*
X2879Y760D01*
X2902Y760D02*
X2921Y760D01*
X2960Y760D02*
X2979Y760D01*
X3002Y760D02*
X3021Y760D01*
X3060Y760D02*
X3079Y760D01*
X3102Y760D02*
X3121Y760D01*
X3160Y760D02*
X3179Y760D01*
X3202Y760D02*
X3221Y760D01*
X3260Y760D02*
X3279Y760D01*
X3302Y760D02*
X3321Y760D01*
X2360Y759D02*
X2380Y759D01*
X2401Y759D02*
X2421Y759D01*
X2460Y759D02*
X2480Y759D01*
X2501Y759D02*
X2521Y759D01*
X2560Y759D02*
X2580Y759D01*
X2601Y759D02*
X2621Y759D01*
X2660Y759D02*
X2680Y759D01*
X2701Y759D02*
X2721Y759D01*
X2760Y759D02*
X2780Y759D01*
X2801Y759D02*
X2821Y759D01*
X2860Y759D02*
X2880Y759D01*
X2901Y759D02*
X2921Y759D01*
X2960Y759D02*
X2980Y759D01*
X3001Y759D02*
X3021Y759D01*
X3060Y759D02*
X3079Y759D01*
X3101Y759D02*
X3121Y759D01*
X3160Y759D02*
X3179Y759D01*
X3201Y759D02*
X3221Y759D01*
X3260Y759D02*
X3279Y759D01*
X3301Y759D02*
X3321Y759D01*
X2360Y758D02*
X2380Y758D01*
X2401Y758D02*
X2421Y758D01*
X2460Y758D02*
X2480Y758D01*
X2501Y758D02*
X2521Y758D01*
X2560Y758D02*
X2580Y758D01*
X2601Y758D02*
X2621Y758D01*
X2660Y758D02*
X2680Y758D01*
X2701Y758D02*
X2721Y758D01*
X2760Y758D02*
X2780Y758D01*
X2801Y758D02*
X2821Y758D01*
X2860Y758D02*
X2880Y758D01*
X2901Y758D02*
X2921Y758D01*
X2960Y758D02*
X2980Y758D01*
X3001Y758D02*
X3021Y758D01*
X3060Y758D02*
X3080Y758D01*
X3101Y758D02*
X3121Y758D01*
X3160Y758D02*
X3180Y758D01*
X3201Y758D02*
X3221Y758D01*
X3260Y758D02*
X3280Y758D01*
X3301Y758D02*
X3321Y758D01*
X2360Y757D02*
X2381Y757D01*
X2400Y757D02*
X2421Y757D01*
X2460Y757D02*
X2481Y757D01*
X2500Y757D02*
X2521Y757D01*
X2560Y757D02*
X2581Y757D01*
X2600Y757D02*
X2621Y757D01*
X2660Y757D02*
X2681Y757D01*
X2700Y757D02*
X2721Y757D01*
X2760Y757D02*
X2780Y757D01*
X2800Y757D02*
X2821Y757D01*
X2860Y757D02*
X2880Y757D01*
X2900Y757D02*
X2921Y757D01*
X2960Y757D02*
X2980Y757D01*
X3000Y757D02*
X3021Y757D01*
X3060Y757D02*
X3080Y757D01*
X3100Y757D02*
X3121Y757D01*
X3160Y757D02*
X3180Y757D01*
X3200Y757D02*
X3221Y757D01*
X3260Y757D02*
X3280Y757D01*
X3300Y757D02*
X3321Y757D01*
X2360Y756D02*
X2381Y756D01*
X2400Y756D02*
X2421Y756D01*
X2460Y756D02*
X2481Y756D01*
X2500Y756D02*
X2521Y756D01*
X2560Y756D02*
X2581Y756D01*
X2600Y756D02*
X2621Y756D01*
X2660Y756D02*
X2681Y756D01*
X2700Y756D02*
X2721Y756D01*
X2760Y756D02*
X2781Y756D01*
X2800Y756D02*
X2821Y756D01*
X2860Y756D02*
X2881Y756D01*
X2900Y756D02*
X2921Y756D01*
X2960Y756D02*
X2981Y756D01*
X3000Y756D02*
X3021Y756D01*
X3060Y756D02*
X3081Y756D01*
X3100Y756D02*
X3121Y756D01*
X3160Y756D02*
X3181Y756D01*
X3200Y756D02*
X3221Y756D01*
X3260Y756D02*
X3281Y756D01*
X3299Y756D02*
X3321Y756D01*
X2360Y755D02*
X2382Y755D01*
X2399Y755D02*
X2421Y755D01*
X2460Y755D02*
X2482Y755D01*
X2499Y755D02*
X2521Y755D01*
X2560Y755D02*
X2582Y755D01*
X2599Y755D02*
X2621Y755D01*
X2660Y755D02*
X2682Y755D01*
X2699Y755D02*
X2721Y755D01*
X2760Y755D02*
X2782Y755D01*
X2799Y755D02*
X2821Y755D01*
X2860Y755D02*
X2882Y755D01*
X2899Y755D02*
X2921Y755D01*
X2960Y755D02*
X2982Y755D01*
X2999Y755D02*
X3021Y755D01*
X3060Y755D02*
X3082Y755D01*
X3099Y755D02*
X3121Y755D01*
X3160Y755D02*
X3182Y755D01*
X3199Y755D02*
X3221Y755D01*
X3260Y755D02*
X3282Y755D01*
X3299Y755D02*
X3321Y755D01*
X2360Y754D02*
X2383Y754D01*
X2398Y754D02*
X2421Y754D01*
X2460Y754D02*
X2483Y754D01*
X2498Y754D02*
X2521Y754D01*
X2560Y754D02*
X2583Y754D01*
X2598Y754D02*
X2621Y754D01*
X2660Y754D02*
X2683Y754D01*
X2698Y754D02*
X2721Y754D01*
X2760Y754D02*
X2783Y754D01*
X2798Y754D02*
X2821Y754D01*
X2860Y754D02*
X2883Y754D01*
X2898Y754D02*
X2921Y754D01*
X2960Y754D02*
X2983Y754D01*
X2998Y754D02*
X3021Y754D01*
X3060Y754D02*
X3083Y754D01*
X3097Y754D02*
X3121Y754D01*
X3160Y754D02*
X3183Y754D01*
X3197Y754D02*
X3221Y754D01*
X3260Y754D02*
X3283Y754D01*
X3297Y754D02*
X3321Y754D01*
X2360Y753D02*
X2385Y753D01*
X2396Y753D02*
X2421Y753D01*
X2460Y753D02*
X2485Y753D01*
X2496Y753D02*
X2521Y753D01*
X2560Y753D02*
X2585Y753D01*
X2596Y753D02*
X2621Y753D01*
X2660Y753D02*
X2685Y753D01*
X2696Y753D02*
X2721Y753D01*
X2760Y753D02*
X2785Y753D01*
X2796Y753D02*
X2821Y753D01*
X2860Y753D02*
X2885Y753D01*
X2896Y753D02*
X2921Y753D01*
X2960Y753D02*
X2985Y753D01*
X2996Y753D02*
X3021Y753D01*
X3060Y753D02*
X3085Y753D01*
X3096Y753D02*
X3121Y753D01*
X3160Y753D02*
X3185Y753D01*
X3196Y753D02*
X3221Y753D01*
X3260Y753D02*
X3285Y753D01*
X3296Y753D02*
X3321Y753D01*
X2360Y752D02*
X2388Y752D01*
X2393Y752D02*
X2421Y752D01*
X2460Y752D02*
X2488Y752D01*
X2493Y752D02*
X2521Y752D01*
X2560Y752D02*
X2588Y752D01*
X2593Y752D02*
X2621Y752D01*
X2660Y752D02*
X2688Y752D01*
X2693Y752D02*
X2721Y752D01*
X2760Y752D02*
X2788Y752D01*
X2793Y752D02*
X2821Y752D01*
X2860Y752D02*
X2888Y752D01*
X2893Y752D02*
X2921Y752D01*
X2960Y752D02*
X2987Y752D01*
X2993Y752D02*
X3021Y752D01*
X3060Y752D02*
X3087Y752D01*
X3093Y752D02*
X3121Y752D01*
X3160Y752D02*
X3187Y752D01*
X3193Y752D02*
X3221Y752D01*
X3260Y752D02*
X3287Y752D01*
X3293Y752D02*
X3321Y752D01*
X2360Y751D02*
X2421Y751D01*
X2460Y751D02*
X2521Y751D01*
X2560Y751D02*
X2621Y751D01*
X2660Y751D02*
X2721Y751D01*
X2760Y751D02*
X2821Y751D01*
X2860Y751D02*
X2921Y751D01*
X2960Y751D02*
X3021Y751D01*
X3060Y751D02*
X3121Y751D01*
X3160Y751D02*
X3221Y751D01*
X3260Y751D02*
X3321Y751D01*
X2360Y750D02*
X2421Y750D01*
X2460Y750D02*
X2521Y750D01*
X2560Y750D02*
X2621Y750D01*
X2660Y750D02*
X2721Y750D01*
X2760Y750D02*
X2821Y750D01*
X2860Y750D02*
X2921Y750D01*
X2960Y750D02*
X3021Y750D01*
X3060Y750D02*
X3121Y750D01*
X3160Y750D02*
X3221Y750D01*
X3260Y750D02*
X3321Y750D01*
X2360Y749D02*
X2421Y749D01*
X2460Y749D02*
X2521Y749D01*
X2560Y749D02*
X2621Y749D01*
X2660Y749D02*
X2721Y749D01*
X2760Y749D02*
X2821Y749D01*
X2860Y749D02*
X2921Y749D01*
X2960Y749D02*
X3021Y749D01*
X3060Y749D02*
X3121Y749D01*
X3160Y749D02*
X3221Y749D01*
X3260Y749D02*
X3321Y749D01*
X2360Y748D02*
X2421Y748D01*
X2460Y748D02*
X2521Y748D01*
X2560Y748D02*
X2621Y748D01*
X2660Y748D02*
X2721Y748D01*
X2760Y748D02*
X2821Y748D01*
X2860Y748D02*
X2921Y748D01*
X2960Y748D02*
X3021Y748D01*
X3060Y748D02*
X3121Y748D01*
X3160Y748D02*
X3221Y748D01*
X3260Y748D02*
X3321Y748D01*
X2360Y747D02*
X2421Y747D01*
X2460Y747D02*
X2521Y747D01*
X2560Y747D02*
X2621Y747D01*
X2660Y747D02*
X2721Y747D01*
X2760Y747D02*
X2821Y747D01*
X2860Y747D02*
X2921Y747D01*
X2960Y747D02*
X3021Y747D01*
X3060Y747D02*
X3121Y747D01*
X3160Y747D02*
X3221Y747D01*
X3260Y747D02*
X3321Y747D01*
X2360Y746D02*
X2421Y746D01*
X2460Y746D02*
X2521Y746D01*
X2560Y746D02*
X2621Y746D01*
X2660Y746D02*
X2721Y746D01*
X2760Y746D02*
X2821Y746D01*
X2860Y746D02*
X2921Y746D01*
X2960Y746D02*
X3021Y746D01*
X3060Y746D02*
X3121Y746D01*
X3160Y746D02*
X3221Y746D01*
X3260Y746D02*
X3321Y746D01*
X2360Y745D02*
X2421Y745D01*
X2460Y745D02*
X2521Y745D01*
X2560Y745D02*
X2621Y745D01*
X2660Y745D02*
X2721Y745D01*
X2760Y745D02*
X2821Y745D01*
X2860Y745D02*
X2921Y745D01*
X2960Y745D02*
X3021Y745D01*
X3060Y745D02*
X3121Y745D01*
X3160Y745D02*
X3221Y745D01*
X3260Y745D02*
X3321Y745D01*
X2360Y744D02*
X2421Y744D01*
X2460Y744D02*
X2521Y744D01*
X2560Y744D02*
X2621Y744D01*
X2660Y744D02*
X2721Y744D01*
X2760Y744D02*
X2821Y744D01*
X2860Y744D02*
X2921Y744D01*
X2960Y744D02*
X3021Y744D01*
X3060Y744D02*
X3121Y744D01*
X3160Y744D02*
X3221Y744D01*
X3260Y744D02*
X3321Y744D01*
X2360Y743D02*
X2421Y743D01*
X2460Y743D02*
X2521Y743D01*
X2560Y743D02*
X2621Y743D01*
X2660Y743D02*
X2721Y743D01*
X2760Y743D02*
X2821Y743D01*
X2860Y743D02*
X2921Y743D01*
X2960Y743D02*
X3021Y743D01*
X3060Y743D02*
X3121Y743D01*
X3160Y743D02*
X3221Y743D01*
X3260Y743D02*
X3321Y743D01*
X2360Y742D02*
X2421Y742D01*
X2460Y742D02*
X2521Y742D01*
X2560Y742D02*
X2621Y742D01*
X2660Y742D02*
X2721Y742D01*
X2760Y742D02*
X2821Y742D01*
X2860Y742D02*
X2921Y742D01*
X2960Y742D02*
X3021Y742D01*
X3060Y742D02*
X3121Y742D01*
X3160Y742D02*
X3221Y742D01*
X3260Y742D02*
X3321Y742D01*
X2360Y741D02*
X2421Y741D01*
X2460Y741D02*
X2521Y741D01*
X2560Y741D02*
X2621Y741D01*
X2660Y741D02*
X2721Y741D01*
X2760Y741D02*
X2821Y741D01*
X2860Y741D02*
X2921Y741D01*
X2960Y741D02*
X3021Y741D01*
X3060Y741D02*
X3121Y741D01*
X3160Y741D02*
X3221Y741D01*
X3260Y741D02*
X3321Y741D01*
X2360Y740D02*
X2421Y740D01*
X2460Y740D02*
X2521Y740D01*
X2560Y740D02*
X2621Y740D01*
X2660Y740D02*
X2721Y740D01*
X2760Y740D02*
X2821Y740D01*
X2860Y740D02*
X2921Y740D01*
X2960Y740D02*
X3021Y740D01*
X3060Y740D02*
X3121Y740D01*
X3160Y740D02*
X3221Y740D01*
X3260Y740D02*
X3321Y740D01*
X2360Y739D02*
X2421Y739D01*
X2460Y739D02*
X2521Y739D01*
X2560Y739D02*
X2621Y739D01*
X2660Y739D02*
X2721Y739D01*
X2760Y739D02*
X2821Y739D01*
X2860Y739D02*
X2921Y739D01*
X2960Y739D02*
X3021Y739D01*
X3060Y739D02*
X3121Y739D01*
X3160Y739D02*
X3221Y739D01*
X3260Y739D02*
X3321Y739D01*
X2360Y738D02*
X2421Y738D01*
X2460Y738D02*
X2521Y738D01*
X2560Y738D02*
X2621Y738D01*
X2660Y738D02*
X2721Y738D01*
X2760Y738D02*
X2821Y738D01*
X2860Y738D02*
X2921Y738D01*
X2960Y738D02*
X3021Y738D01*
X3060Y738D02*
X3121Y738D01*
X3160Y738D02*
X3221Y738D01*
X3260Y738D02*
X3321Y738D01*
X2360Y737D02*
X2421Y737D01*
X2460Y737D02*
X2521Y737D01*
X2560Y737D02*
X2621Y737D01*
X2660Y737D02*
X2721Y737D01*
X2760Y737D02*
X2821Y737D01*
X2860Y737D02*
X2921Y737D01*
X2960Y737D02*
X3021Y737D01*
X3060Y737D02*
X3121Y737D01*
X3160Y737D02*
X3221Y737D01*
X3260Y737D02*
X3321Y737D01*
X2360Y736D02*
X2421Y736D01*
X2460Y736D02*
X2521Y736D01*
X2560Y736D02*
X2621Y736D01*
X2660Y736D02*
X2721Y736D01*
X2760Y736D02*
X2821Y736D01*
X2860Y736D02*
X2921Y736D01*
X2960Y736D02*
X3021Y736D01*
X3060Y736D02*
X3121Y736D01*
X3160Y736D02*
X3221Y736D01*
X3260Y736D02*
X3321Y736D01*
X2360Y735D02*
X2421Y735D01*
X2460Y735D02*
X2521Y735D01*
X2560Y735D02*
X2621Y735D01*
X2660Y735D02*
X2721Y735D01*
X2760Y735D02*
X2821Y735D01*
X2860Y735D02*
X2921Y735D01*
X2960Y735D02*
X3021Y735D01*
X3060Y735D02*
X3121Y735D01*
X3160Y735D02*
X3221Y735D01*
X3260Y735D02*
X3321Y735D01*
X2360Y734D02*
X2421Y734D01*
X2460Y734D02*
X2521Y734D01*
X2560Y734D02*
X2621Y734D01*
X2660Y734D02*
X2721Y734D01*
X2760Y734D02*
X2821Y734D01*
X2860Y734D02*
X2921Y734D01*
X2960Y734D02*
X3021Y734D01*
X3060Y734D02*
X3121Y734D01*
X3160Y734D02*
X3221Y734D01*
X3260Y734D02*
X3321Y734D01*
X2360Y733D02*
X2421Y733D01*
X2460Y733D02*
X2521Y733D01*
X2560Y733D02*
X2621Y733D01*
X2660Y733D02*
X2721Y733D01*
X2760Y733D02*
X2821Y733D01*
X2860Y733D02*
X2921Y733D01*
X2960Y733D02*
X3021Y733D01*
X3060Y733D02*
X3121Y733D01*
X3160Y733D02*
X3221Y733D01*
X3260Y733D02*
X3321Y733D01*
X2360Y732D02*
X2421Y732D01*
X2460Y732D02*
X2520Y732D01*
X2560Y732D02*
X2620Y732D01*
X2660Y732D02*
X2720Y732D01*
X2760Y732D02*
X2820Y732D01*
X2860Y732D02*
X2920Y732D01*
X2960Y732D02*
X3020Y732D01*
X3060Y732D02*
X3120Y732D01*
X3160Y732D02*
X3220Y732D01*
X3260Y732D02*
X3320Y732D01*
X2361Y731D02*
X2420Y731D01*
X2461Y731D02*
X2520Y731D01*
X2561Y731D02*
X2620Y731D01*
X2661Y731D02*
X2720Y731D01*
X2761Y731D02*
X2820Y731D01*
X2860Y731D02*
X2920Y731D01*
X2960Y731D02*
X3020Y731D01*
X3060Y731D02*
X3120Y731D01*
X3160Y731D02*
X3220Y731D01*
X3260Y731D02*
X3320Y731D01*
X2361Y730D02*
X2420Y730D01*
X2461Y730D02*
X2520Y730D01*
X2561Y730D02*
X2620Y730D01*
X2661Y730D02*
X2720Y730D01*
X2761Y730D02*
X2820Y730D01*
X2861Y730D02*
X2920Y730D01*
X2961Y730D02*
X3020Y730D01*
X3061Y730D02*
X3120Y730D01*
X3161Y730D02*
X3220Y730D01*
X3261Y730D02*
X3320Y730D01*
X2361Y729D02*
X2420Y729D01*
X2461Y729D02*
X2520Y729D01*
X2561Y729D02*
X2620Y729D01*
X2661Y729D02*
X2720Y729D01*
X2761Y729D02*
X2820Y729D01*
X2861Y729D02*
X2920Y729D01*
X2961Y729D02*
X3020Y729D01*
X3061Y729D02*
X3120Y729D01*
X3161Y729D02*
X3220Y729D01*
X3261Y729D02*
X3320Y729D01*
X2361Y728D02*
X2420Y728D01*
X2461Y728D02*
X2520Y728D01*
X2561Y728D02*
X2620Y728D01*
X2661Y728D02*
X2720Y728D01*
X2761Y728D02*
X2820Y728D01*
X2861Y728D02*
X2920Y728D01*
X2961Y728D02*
X3020Y728D01*
X3061Y728D02*
X3120Y728D01*
X3161Y728D02*
X3220Y728D01*
X3261Y728D02*
X3319Y728D01*
X2362Y727D02*
X2419Y727D01*
X2462Y727D02*
X2519Y727D01*
X2562Y727D02*
X2619Y727D01*
X2662Y727D02*
X2719Y727D01*
X2762Y727D02*
X2819Y727D01*
X2862Y727D02*
X2919Y727D01*
X2962Y727D02*
X3019Y727D01*
X3062Y727D02*
X3119Y727D01*
X3162Y727D02*
X3219Y727D01*
X3262Y727D02*
X3319Y727D01*
X2362Y726D02*
X2419Y726D01*
X2462Y726D02*
X2519Y726D01*
X2562Y726D02*
X2619Y726D01*
X2662Y726D02*
X2719Y726D01*
X2762Y726D02*
X2819Y726D01*
X2862Y726D02*
X2919Y726D01*
X2962Y726D02*
X3019Y726D01*
X3062Y726D02*
X3119Y726D01*
X3162Y726D02*
X3219Y726D01*
X3262Y726D02*
X3319Y726D01*
X2362Y725D02*
X2419Y725D01*
X2462Y725D02*
X2519Y725D01*
X2562Y725D02*
X2618Y725D01*
X2662Y725D02*
X2718Y725D01*
X2762Y725D02*
X2818Y725D01*
X2862Y725D02*
X2918Y725D01*
X2962Y725D02*
X3018Y725D01*
X3062Y725D02*
X3118Y725D01*
X3162Y725D02*
X3218Y725D01*
X3262Y725D02*
X3318Y725D01*
X2363Y724D02*
X2418Y724D01*
X2463Y724D02*
X2518Y724D01*
X2563Y724D02*
X2618Y724D01*
X2663Y724D02*
X2718Y724D01*
X2763Y724D02*
X2818Y724D01*
X2863Y724D02*
X2918Y724D01*
X2963Y724D02*
X3018Y724D01*
X3063Y724D02*
X3118Y724D01*
X3163Y724D02*
X3218Y724D01*
X3263Y724D02*
X3318Y724D01*
X2363Y723D02*
X2418Y723D01*
X2463Y723D02*
X2518Y723D01*
X2563Y723D02*
X2618Y723D01*
X2663Y723D02*
X2718Y723D01*
X2763Y723D02*
X2818Y723D01*
X2863Y723D02*
X2918Y723D01*
X2963Y723D02*
X3018Y723D01*
X3063Y723D02*
X3118Y723D01*
X3163Y723D02*
X3218Y723D01*
X3263Y723D02*
X3317Y723D01*
X2364Y722D02*
X2417Y722D01*
X2464Y722D02*
X2517Y722D01*
X2564Y722D02*
X2617Y722D01*
X2664Y722D02*
X2717Y722D01*
X2764Y722D02*
X2817Y722D01*
X2864Y722D02*
X2917Y722D01*
X2964Y722D02*
X3017Y722D01*
X3064Y722D02*
X3117Y722D01*
X3164Y722D02*
X3217Y722D01*
X3264Y722D02*
X3317Y722D01*
X2364Y721D02*
X2417Y721D01*
X2464Y721D02*
X2517Y721D01*
X2564Y721D02*
X2616Y721D01*
X2664Y721D02*
X2716Y721D01*
X2764Y721D02*
X2816Y721D01*
X2864Y721D02*
X2916Y721D01*
X2964Y721D02*
X3016Y721D01*
X3064Y721D02*
X3116Y721D01*
X3164Y721D02*
X3216Y721D01*
X3264Y721D02*
X3316Y721D01*
X2365Y720D02*
X2416Y720D01*
X2465Y720D02*
X2516Y720D01*
X2565Y720D02*
X2616Y720D01*
X2665Y720D02*
X2716Y720D01*
X2765Y720D02*
X2816Y720D01*
X2865Y720D02*
X2916Y720D01*
X2965Y720D02*
X3016Y720D01*
X3065Y720D02*
X3116Y720D01*
X3165Y720D02*
X3216Y720D01*
X3265Y720D02*
X3316Y720D01*
X2366Y719D02*
X2415Y719D01*
X2466Y719D02*
X2515Y719D01*
X2566Y719D02*
X2615Y719D01*
X2666Y719D02*
X2715Y719D01*
X2766Y719D02*
X2815Y719D01*
X2866Y719D02*
X2915Y719D01*
X2966Y719D02*
X3015Y719D01*
X3066Y719D02*
X3115Y719D01*
X3166Y719D02*
X3215Y719D01*
X3266Y719D02*
X3315Y719D01*
X2366Y718D02*
X2415Y718D01*
X2466Y718D02*
X2515Y718D01*
X2566Y718D02*
X2615Y718D01*
X2666Y718D02*
X2715Y718D01*
X2766Y718D02*
X2814Y718D01*
X2866Y718D02*
X2914Y718D01*
X2966Y718D02*
X3014Y718D01*
X3066Y718D02*
X3114Y718D01*
X3166Y718D02*
X3214Y718D01*
X3266Y718D02*
X3314Y718D01*
X2367Y717D02*
X2414Y717D01*
X2467Y717D02*
X2514Y717D01*
X2567Y717D02*
X2614Y717D01*
X2667Y717D02*
X2714Y717D01*
X2767Y717D02*
X2814Y717D01*
X2867Y717D02*
X2914Y717D01*
X2967Y717D02*
X3014Y717D01*
X3067Y717D02*
X3114Y717D01*
X3167Y717D02*
X3214Y717D01*
X3267Y717D02*
X3314Y717D01*
X2368Y716D02*
X2413Y716D01*
X2468Y716D02*
X2513Y716D01*
X2568Y716D02*
X2613Y716D01*
X2668Y716D02*
X2713Y716D01*
X2768Y716D02*
X2813Y716D01*
X2868Y716D02*
X2913Y716D01*
X2968Y716D02*
X3013Y716D01*
X3068Y716D02*
X3113Y716D01*
X3168Y716D02*
X3213Y716D01*
X3268Y716D02*
X3313Y716D01*
X2369Y715D02*
X2412Y715D01*
X2469Y715D02*
X2512Y715D01*
X2569Y715D02*
X2612Y715D01*
X2669Y715D02*
X2712Y715D01*
X2769Y715D02*
X2812Y715D01*
X2869Y715D02*
X2912Y715D01*
X2969Y715D02*
X3012Y715D01*
X3069Y715D02*
X3112Y715D01*
X3169Y715D02*
X3212Y715D01*
X3269Y715D02*
X3312Y715D01*
X2370Y714D02*
X2411Y714D01*
X2470Y714D02*
X2511Y714D01*
X2570Y714D02*
X2611Y714D01*
X2670Y714D02*
X2711Y714D01*
X2770Y714D02*
X2811Y714D01*
X2870Y714D02*
X2911Y714D01*
X2970Y714D02*
X3011Y714D01*
X3070Y714D02*
X3111Y714D01*
X3170Y714D02*
X3211Y714D01*
X3270Y714D02*
X3311Y714D01*
X2371Y713D02*
X2410Y713D01*
X2471Y713D02*
X2510Y713D01*
X2571Y713D02*
X2610Y713D01*
X2671Y713D02*
X2710Y713D01*
X2771Y713D02*
X2810Y713D01*
X2871Y713D02*
X2910Y713D01*
X2971Y713D02*
X3010Y713D01*
X3071Y713D02*
X3110Y713D01*
X3171Y713D02*
X3210Y713D01*
X3271Y713D02*
X3310Y713D01*
X2372Y712D02*
X2408Y712D01*
X2472Y712D02*
X2508Y712D01*
X2572Y712D02*
X2608Y712D01*
X2672Y712D02*
X2708Y712D01*
X2772Y712D02*
X2808Y712D01*
X2872Y712D02*
X2908Y712D01*
X2972Y712D02*
X3008Y712D01*
X3072Y712D02*
X3108Y712D01*
X3172Y712D02*
X3208Y712D01*
X3272Y712D02*
X3308Y712D01*
X2374Y711D02*
X2407Y711D01*
X2474Y711D02*
X2507Y711D01*
X2574Y711D02*
X2607Y711D01*
X2674Y711D02*
X2707Y711D01*
X2774Y711D02*
X2807Y711D01*
X2874Y711D02*
X2907Y711D01*
X2974Y711D02*
X3007Y711D01*
X3074Y711D02*
X3107Y711D01*
X3174Y711D02*
X3207Y711D01*
X3274Y711D02*
X3307Y711D01*
X2376Y710D02*
X2405Y710D01*
X2475Y710D02*
X2505Y710D01*
X2575Y710D02*
X2605Y710D01*
X2675Y710D02*
X2705Y710D01*
X2775Y710D02*
X2805Y710D01*
X2875Y710D02*
X2905Y710D01*
X2975Y710D02*
X3005Y710D01*
X3075Y710D02*
X3105Y710D01*
X3175Y710D02*
X3205Y710D01*
X3275Y710D02*
X3305Y710D01*
X2377Y709D02*
X2403Y709D01*
X2477Y709D02*
X2503Y709D01*
X2577Y709D02*
X2603Y709D01*
X2677Y709D02*
X2703Y709D01*
X2777Y709D02*
X2803Y709D01*
X2877Y709D02*
X2903Y709D01*
X2977Y709D02*
X3003Y709D01*
X3077Y709D02*
X3103Y709D01*
X3177Y709D02*
X3203Y709D01*
X3277Y709D02*
X3303Y709D01*
X2380Y708D02*
X2401Y708D01*
X2480Y708D02*
X2501Y708D01*
X2580Y708D02*
X2601Y708D01*
X2680Y708D02*
X2701Y708D01*
X2780Y708D02*
X2801Y708D01*
X2880Y708D02*
X2901Y708D01*
X2980Y708D02*
X3001Y708D01*
X3080Y708D02*
X3101Y708D01*
X3180Y708D02*
X3201Y708D01*
X3280Y708D02*
X3301Y708D01*
X2383Y707D02*
X2398Y707D01*
X2483Y707D02*
X2498Y707D01*
X2583Y707D02*
X2598Y707D01*
X2683Y707D02*
X2698Y707D01*
X2783Y707D02*
X2798Y707D01*
X2883Y707D02*
X2898Y707D01*
X2983Y707D02*
X2998Y707D01*
X3083Y707D02*
X3098Y707D01*
X3183Y707D02*
X3198Y707D01*
X3283Y707D02*
X3298Y707D01*
X2387Y706D02*
X2393Y706D01*
X2487Y706D02*
X2493Y706D01*
X2587Y706D02*
X2593Y706D01*
X2687Y706D02*
X2693Y706D01*
X2787Y706D02*
X2793Y706D01*
X2887Y706D02*
X2893Y706D01*
X2987Y706D02*
X2993Y706D01*
X3087Y706D02*
X3093Y706D01*
X3187Y706D02*
X3193Y706D01*
X3287Y706D02*
X3293Y706D01*
X1Y313D02*
X1Y313D01*
X1Y312D02*
X3Y312D01*
X1Y311D02*
X4Y311D01*
X1Y310D02*
X6Y310D01*
X1Y309D02*
X8Y309D01*
X1Y308D02*
X9Y308D01*
X1Y307D02*
X11Y307D01*
X1Y306D02*
X12Y306D01*
X1Y305D02*
X13Y305D01*
X1Y304D02*
X15Y304D01*
X1Y303D02*
X16Y303D01*
X1Y302D02*
X17Y302D01*
X1Y301D02*
X19Y301D01*
X1Y300D02*
X20Y300D01*
X1Y299D02*
X21Y299D01*
X1Y298D02*
X22Y298D01*
X1Y297D02*
X23Y297D01*
X1Y296D02*
X24Y296D01*
X1Y295D02*
X25Y295D01*
X1Y294D02*
X27Y294D01*
X1Y293D02*
X27Y293D01*
X1Y292D02*
X28Y292D01*
X1Y291D02*
X29Y291D01*
X1Y290D02*
X30Y290D01*
X1Y289D02*
X31Y289D01*
X1Y288D02*
X32Y288D01*
X1Y287D02*
X33Y287D01*
X1Y286D02*
X34Y286D01*
X1Y285D02*
X34Y285D01*
X1Y284D02*
X35Y284D01*
X1Y283D02*
X36Y283D01*
X1Y282D02*
X36Y282D01*
X1Y281D02*
X37Y281D01*
X1Y280D02*
X38Y280D01*
X1Y279D02*
X39Y279D01*
X1Y278D02*
X39Y278D01*
X1Y277D02*
X40Y277D01*
X1Y276D02*
X41Y276D01*
X1Y275D02*
X41Y275D01*
X1Y274D02*
X42Y274D01*
X1Y273D02*
X42Y273D01*
X1Y272D02*
X43Y272D01*
X1Y271D02*
X44Y271D01*
X1Y270D02*
X44Y270D01*
X1Y269D02*
X45Y269D01*
X1Y268D02*
X45Y268D01*
X1Y267D02*
X46Y267D01*
X1Y266D02*
X46Y266D01*
X1Y265D02*
X47Y265D01*
X1Y264D02*
X47Y264D01*
X1Y263D02*
X48Y263D01*
X1Y262D02*
X48Y262D01*
X1Y261D02*
X49Y261D01*
X1Y260D02*
X49Y260D01*
X1Y259D02*
X49Y259D01*
X1Y258D02*
X50Y258D01*
X1Y257D02*
X50Y257D01*
X1Y256D02*
X51Y256D01*
X1Y255D02*
X51Y255D01*
X1Y254D02*
X51Y254D01*
X1Y253D02*
X52Y253D01*
X1Y252D02*
X52Y252D01*
X1Y251D02*
X52Y251D01*
X1Y250D02*
X52Y250D01*
X1Y249D02*
X53Y249D01*
X1Y248D02*
X53Y248D01*
X1Y247D02*
X53Y247D01*
X1Y246D02*
X54Y246D01*
X1Y245D02*
X54Y245D01*
X1Y244D02*
X54Y244D01*
X1Y243D02*
X54Y243D01*
X1Y242D02*
X54Y242D01*
X1Y241D02*
X55Y241D01*
X1Y240D02*
X55Y240D01*
X1Y239D02*
X55Y239D01*
X1Y238D02*
X55Y238D01*
X1Y237D02*
X55Y237D01*
X1Y236D02*
X56Y236D01*
X1Y235D02*
X56Y235D01*
X1Y234D02*
X56Y234D01*
X1Y233D02*
X56Y233D01*
X1Y232D02*
X56Y232D01*
X1Y231D02*
X56Y231D01*
X1Y230D02*
X56Y230D01*
X1Y229D02*
X56Y229D01*
X1Y228D02*
X56Y228D01*
X1Y227D02*
X57Y227D01*
X1Y226D02*
X57Y226D01*
X1Y225D02*
X57Y225D01*
X1Y224D02*
X57Y224D01*
X1Y223D02*
X57Y223D01*
X1Y222D02*
X57Y222D01*
X1Y221D02*
X57Y221D01*
X1Y220D02*
X57Y220D01*
X1Y219D02*
X57Y219D01*
X1Y218D02*
X57Y218D01*
X1Y217D02*
X57Y217D01*
X1Y216D02*
X57Y216D01*
X1Y215D02*
X57Y215D01*
X1Y214D02*
X57Y214D01*
X1Y213D02*
X56Y213D01*
X1Y212D02*
X56Y212D01*
X1Y211D02*
X56Y211D01*
X1Y210D02*
X56Y210D01*
X1Y209D02*
X56Y209D01*
X1Y208D02*
X56Y208D01*
X1Y207D02*
X56Y207D01*
X1Y206D02*
X56Y206D01*
X185Y206D02*
X268Y206D01*
X1Y205D02*
X56Y205D01*
X185Y205D02*
X268Y205D01*
X1Y204D02*
X55Y204D01*
X185Y204D02*
X268Y204D01*
X1Y203D02*
X55Y203D01*
X185Y203D02*
X268Y203D01*
X1Y202D02*
X55Y202D01*
X185Y202D02*
X268Y202D01*
X1Y201D02*
X55Y201D01*
X185Y201D02*
X268Y201D01*
X1Y200D02*
X55Y200D01*
X185Y200D02*
X268Y200D01*
X1Y199D02*
X55Y199D01*
X185Y199D02*
X268Y199D01*
X1Y198D02*
X54Y198D01*
X185Y198D02*
X268Y198D01*
X1Y197D02*
X54Y197D01*
X185Y197D02*
X268Y197D01*
X1Y196D02*
X54Y196D01*
X185Y196D02*
X268Y196D01*
X1Y195D02*
X54Y195D01*
X185Y195D02*
X268Y195D01*
X1Y194D02*
X53Y194D01*
X185Y194D02*
X268Y194D01*
X1Y193D02*
X53Y193D01*
X185Y193D02*
X268Y193D01*
X1Y192D02*
X53Y192D01*
X185Y192D02*
X268Y192D01*
X1Y191D02*
X53Y191D01*
X185Y191D02*
X268Y191D01*
X1Y190D02*
X52Y190D01*
X185Y190D02*
X268Y190D01*
X1Y189D02*
X52Y189D01*
X185Y189D02*
X268Y189D01*
X1Y188D02*
X52Y188D01*
X185Y188D02*
X268Y188D01*
X1Y187D02*
X51Y187D01*
X185Y187D02*
X268Y187D01*
X1Y186D02*
X51Y186D01*
X185Y186D02*
X268Y186D01*
X1Y185D02*
X51Y185D01*
X185Y185D02*
X268Y185D01*
X1Y184D02*
X50Y184D01*
X185Y184D02*
X268Y184D01*
X1Y183D02*
X50Y183D01*
X185Y183D02*
X268Y183D01*
X1Y182D02*
X50Y182D01*
X185Y182D02*
X268Y182D01*
X1Y181D02*
X49Y181D01*
X185Y181D02*
X268Y181D01*
X1Y180D02*
X49Y180D01*
X185Y180D02*
X268Y180D01*
X1Y179D02*
X48Y179D01*
X185Y179D02*
X223Y179D01*
X230Y179D02*
X268Y179D01*
X1Y178D02*
X48Y178D01*
X185Y178D02*
X220Y178D01*
X233Y178D02*
X268Y178D01*
X1Y177D02*
X47Y177D01*
X185Y177D02*
X218Y177D01*
X235Y177D02*
X268Y177D01*
X1Y176D02*
X47Y176D01*
X185Y176D02*
X216Y176D01*
X236Y176D02*
X268Y176D01*
X1Y175D02*
X47Y175D01*
X185Y175D02*
X215Y175D01*
X237Y175D02*
X268Y175D01*
X1Y174D02*
X46Y174D01*
X185Y174D02*
X214Y174D01*
X238Y174D02*
X268Y174D01*
X1Y173D02*
X46Y173D01*
X185Y173D02*
X214Y173D01*
X239Y173D02*
X268Y173D01*
X1Y172D02*
X45Y172D01*
X185Y172D02*
X213Y172D01*
X240Y172D02*
X268Y172D01*
X1Y171D02*
X44Y171D01*
X185Y171D02*
X212Y171D01*
X240Y171D02*
X268Y171D01*
X1Y170D02*
X44Y170D01*
X185Y170D02*
X212Y170D01*
X241Y170D02*
X268Y170D01*
X1Y169D02*
X43Y169D01*
X185Y169D02*
X212Y169D01*
X241Y169D02*
X268Y169D01*
X1Y168D02*
X43Y168D01*
X185Y168D02*
X211Y168D01*
X241Y168D02*
X268Y168D01*
X1Y167D02*
X42Y167D01*
X185Y167D02*
X211Y167D01*
X242Y167D02*
X268Y167D01*
X1Y166D02*
X41Y166D01*
X185Y166D02*
X211Y166D01*
X242Y166D02*
X268Y166D01*
X1Y165D02*
X41Y165D01*
X185Y165D02*
X211Y165D01*
X242Y165D02*
X268Y165D01*
X1Y164D02*
X40Y164D01*
X185Y164D02*
X211Y164D01*
X242Y164D02*
X268Y164D01*
X1Y163D02*
X40Y163D01*
X185Y163D02*
X211Y163D01*
X242Y163D02*
X268Y163D01*
X1Y162D02*
X39Y162D01*
X185Y162D02*
X211Y162D01*
X242Y162D02*
X268Y162D01*
X1Y161D02*
X38Y161D01*
X185Y161D02*
X211Y161D01*
X241Y161D02*
X268Y161D01*
X1Y160D02*
X38Y160D01*
X185Y160D02*
X211Y160D01*
X241Y160D02*
X268Y160D01*
X1Y159D02*
X37Y159D01*
X185Y159D02*
X212Y159D01*
X241Y159D02*
X268Y159D01*
X1Y158D02*
X36Y158D01*
X185Y158D02*
X212Y158D01*
X240Y158D02*
X268Y158D01*
X1Y157D02*
X35Y157D01*
X185Y157D02*
X213Y157D01*
X240Y157D02*
X268Y157D01*
X1Y156D02*
X35Y156D01*
X185Y156D02*
X213Y156D01*
X239Y156D02*
X268Y156D01*
X1Y155D02*
X34Y155D01*
X185Y155D02*
X214Y155D01*
X238Y155D02*
X268Y155D01*
X1Y154D02*
X33Y154D01*
X185Y154D02*
X215Y154D01*
X238Y154D02*
X268Y154D01*
X1Y153D02*
X32Y153D01*
X185Y153D02*
X216Y153D01*
X237Y153D02*
X268Y153D01*
X1Y152D02*
X31Y152D01*
X185Y152D02*
X217Y152D01*
X235Y152D02*
X268Y152D01*
X1Y151D02*
X31Y151D01*
X185Y151D02*
X219Y151D01*
X234Y151D02*
X268Y151D01*
X1Y150D02*
X30Y150D01*
X185Y150D02*
X221Y150D01*
X231Y150D02*
X268Y150D01*
X1Y149D02*
X29Y149D01*
X185Y149D02*
X268Y149D01*
X1Y148D02*
X28Y148D01*
X185Y148D02*
X268Y148D01*
X1Y147D02*
X27Y147D01*
X185Y147D02*
X268Y147D01*
X1Y146D02*
X26Y146D01*
X185Y146D02*
X268Y146D01*
X1Y145D02*
X25Y145D01*
X185Y145D02*
X268Y145D01*
X1Y144D02*
X24Y144D01*
X185Y144D02*
X268Y144D01*
X1Y143D02*
X23Y143D01*
X185Y143D02*
X268Y143D01*
X1Y142D02*
X22Y142D01*
X185Y142D02*
X268Y142D01*
X1Y141D02*
X21Y141D01*
X185Y141D02*
X268Y141D01*
X1Y140D02*
X19Y140D01*
X185Y140D02*
X268Y140D01*
X1Y139D02*
X18Y139D01*
X185Y139D02*
X268Y139D01*
X1Y138D02*
X17Y138D01*
X185Y138D02*
X268Y138D01*
X1Y137D02*
X15Y137D01*
X185Y137D02*
X268Y137D01*
X1Y136D02*
X14Y136D01*
X185Y136D02*
X268Y136D01*
X1Y135D02*
X13Y135D01*
X185Y135D02*
X268Y135D01*
X1Y134D02*
X11Y134D01*
X185Y134D02*
X268Y134D01*
X1Y133D02*
X10Y133D01*
X185Y133D02*
X268Y133D01*
X1Y132D02*
X8Y132D01*
X185Y132D02*
X268Y132D01*
X1Y131D02*
X7Y131D01*
X185Y131D02*
X268Y131D01*
X1Y130D02*
X5Y130D01*
X185Y130D02*
X268Y130D01*
X1Y129D02*
X3Y129D01*
X185Y129D02*
X268Y129D01*
X1Y128D02*
X2Y128D01*
X185Y128D02*
X268Y128D01*
X185Y127D02*
X268Y127D01*
X185Y126D02*
X268Y126D01*
X185Y125D02*
X268Y125D01*
X185Y124D02*
X268Y124D01*
X185Y123D02*
X268Y123D01*
D02*
G04 End of Mask0*
M02*