; NON-PLATED HOLES START AT T1
; THROUGH (PLATED) HOLES START AT T100
M48
INCH
T100C0.040000
T101C0.032000
T102C0.035000
T103C0.130000
%
T100
X003348Y001638
X005529Y001638
X018736Y010714
X002258Y001638
X004439Y008638
X006073Y002756
X017646Y010714
X014921Y011832
X003348Y008638
X014374Y010714
X003896Y002756
X003896Y009756
X018189Y011832
X006073Y009756
X017098Y011832
X006620Y008638
X015465Y010714
X002258Y008638
X016012Y011832
X004439Y001638
X002805Y002756
X006620Y001638
X002805Y009756
X004982Y002756
X016555Y010714
X004982Y009756
X005529Y008638
T101
X023901Y007623
X023901Y010623
X029901Y010623
X026901Y007623
X031901Y007623
X028901Y010623
X030901Y007623
X028901Y007623
X027901Y007623
X032901Y007623
X030901Y010623
X032901Y010623
X025901Y007623
X024901Y007623
X024901Y010623
X031901Y010623
X029901Y007623
X025901Y010623
X026901Y010623
X027901Y010623
T102
X018055Y013722
X015055Y010722
X027444Y008288
X019055Y009722
X022708Y015792
X025444Y005288
X018055Y011722
X020055Y009722
X027161Y011338
X015055Y007722
X013055Y009722
X018055Y012722
X027444Y005288
X027161Y010338
X018055Y008722
X026708Y015792
X018055Y009722
X015055Y013722
X022444Y008288
X023444Y008288
X019055Y012722
X020055Y012722
X021444Y008288
X028444Y008288
X024444Y005288
X015055Y008722
X018055Y014722
X015055Y011722
X017055Y009722
X016055Y012722
X013055Y012722
X021444Y005288
X025444Y008288
X014055Y012722
X022444Y005288
X024444Y008288
X015055Y009722
X026444Y005288
X028444Y005288
X014055Y009722
X016055Y009722
X018055Y010722
X026444Y008288
X015055Y012722
X015055Y014722
X018055Y007722
X023444Y005288
X017055Y012722
T103
X011634Y011273
X009360Y002197
X009360Y009197
X021476Y011273
T00
M30
