G04 MADE WITH FRITZING*
G04 WWW.FRITZING.ORG*
G04 DOUBLE SIDED*
G04 HOLES PLATED*
G04 CONTOUR ON CENTER OF CONTOUR VECTOR*
%ASAXBY*%
%FSLAX23Y23*%
%MOIN*%
%OFA0B0*%
%SFA1.0B1.0*%
%ADD10C,0.063000*%
%ADD11C,0.070000*%
%ADD12C,0.078000*%
%ADD13C,0.075000*%
%ADD14C,0.198889*%
%ADD15C,0.072113*%
%ADD16C,0.039370*%
%ADD17R,0.069972X0.070000*%
%ADD18R,0.078000X0.078000*%
%ADD19C,0.008000*%
%ADD20C,0.012000*%
%LNCOPPER1*%
G90*
G70*
G54D10*
X1562Y1957D03*
X1562Y1857D03*
X1562Y1757D03*
X1562Y1657D03*
X1862Y1657D03*
X1862Y1757D03*
X1862Y1857D03*
X1862Y1957D03*
X1562Y1957D03*
X1562Y1857D03*
X1562Y1757D03*
X1562Y1657D03*
X1862Y1657D03*
X1862Y1757D03*
X1862Y1857D03*
X1862Y1957D03*
X1564Y1396D03*
X1564Y1296D03*
X1564Y1196D03*
X1564Y1096D03*
X1864Y1096D03*
X1864Y1196D03*
X1864Y1296D03*
X1864Y1396D03*
X1564Y1396D03*
X1564Y1296D03*
X1564Y1196D03*
X1564Y1096D03*
X1864Y1096D03*
X1864Y1196D03*
X1864Y1296D03*
X1864Y1396D03*
X1048Y1398D03*
X1048Y1298D03*
X1048Y1198D03*
X1048Y1098D03*
X1348Y1098D03*
X1348Y1198D03*
X1348Y1298D03*
X1348Y1398D03*
X1048Y1398D03*
X1048Y1298D03*
X1048Y1198D03*
X1048Y1098D03*
X1348Y1098D03*
X1348Y1198D03*
X1348Y1298D03*
X1348Y1398D03*
G54D11*
X163Y1755D03*
X163Y1655D03*
X163Y1555D03*
X163Y1455D03*
X163Y1355D03*
X163Y1255D03*
X163Y1155D03*
X163Y1055D03*
X163Y955D03*
X163Y855D03*
X163Y755D03*
X163Y655D03*
X163Y555D03*
X163Y455D03*
X163Y355D03*
X763Y1755D03*
X763Y1655D03*
X763Y1555D03*
X763Y1455D03*
X763Y1355D03*
X763Y1255D03*
X763Y1155D03*
X763Y1055D03*
X763Y955D03*
X763Y855D03*
X763Y755D03*
X763Y655D03*
X763Y555D03*
X763Y455D03*
X763Y355D03*
G54D10*
X1061Y1956D03*
X1061Y1856D03*
X1061Y1756D03*
X1061Y1656D03*
X1361Y1656D03*
X1361Y1756D03*
X1361Y1856D03*
X1361Y1956D03*
X1061Y1956D03*
X1061Y1856D03*
X1061Y1756D03*
X1061Y1656D03*
X1361Y1656D03*
X1361Y1756D03*
X1361Y1856D03*
X1361Y1956D03*
G54D12*
X3275Y2001D03*
X3375Y2001D03*
X3475Y2001D03*
G54D13*
X3184Y730D03*
X2784Y730D03*
X1530Y753D03*
X1130Y753D03*
X2062Y1410D03*
X2462Y1410D03*
X2064Y1535D03*
X2464Y1535D03*
X2061Y1652D03*
X2461Y1652D03*
X2061Y1756D03*
X2461Y1756D03*
X2061Y1956D03*
X2461Y1956D03*
G54D14*
X1012Y235D03*
G54D15*
X1302Y356D03*
X1389Y356D03*
X1475Y356D03*
X1561Y356D03*
X1647Y356D03*
X1347Y256D03*
X1433Y256D03*
X1519Y256D03*
X1605Y256D03*
X1691Y256D03*
X1302Y156D03*
X1389Y156D03*
X1475Y156D03*
X1561Y156D03*
X1647Y156D03*
G54D14*
X1997Y235D03*
X2612Y235D03*
G54D15*
X2902Y356D03*
X2989Y356D03*
X3075Y356D03*
X3161Y356D03*
X3247Y356D03*
X2947Y256D03*
X3033Y256D03*
X3119Y256D03*
X3205Y256D03*
X3291Y256D03*
X2902Y156D03*
X2989Y156D03*
X3075Y156D03*
X3161Y156D03*
X3247Y156D03*
G54D14*
X3597Y235D03*
G54D16*
X559Y457D03*
X1283Y1461D03*
X1864Y1456D03*
X1401Y1456D03*
X632Y1812D03*
X97Y1104D03*
X515Y1104D03*
G54D13*
X3023Y1799D03*
X3279Y1799D03*
X3023Y1622D03*
X3279Y1622D03*
X3423Y1797D03*
X3679Y1797D03*
X3423Y1620D03*
X3679Y1620D03*
G54D16*
X2895Y1556D03*
X2175Y1904D03*
X2298Y1857D03*
X936Y1003D03*
G54D13*
X2891Y1010D03*
X2891Y1410D03*
G54D16*
X1421Y1087D03*
X1461Y1503D03*
X1461Y1706D03*
X2714Y1045D03*
X2467Y1244D03*
X2370Y1309D03*
X2431Y1308D03*
X2377Y268D03*
G54D13*
X1847Y890D03*
X2247Y890D03*
X3024Y1409D03*
X3424Y1409D03*
X2736Y1894D03*
X3136Y1894D03*
G54D16*
X2005Y729D03*
X2002Y957D03*
X369Y2016D03*
X985Y1562D03*
X325Y1502D03*
X518Y1504D03*
X902Y1506D03*
X2789Y886D03*
X1314Y687D03*
X1050Y451D03*
X3418Y307D03*
X1804Y109D03*
G54D17*
X163Y1755D03*
G54D18*
X3275Y2001D03*
G54D19*
X1475Y134D02*
X1475Y106D01*
D02*
X1226Y1198D02*
X1226Y205D01*
D02*
X1226Y205D02*
X1391Y205D01*
D02*
X1332Y1198D02*
X1226Y1198D01*
D02*
X1391Y205D02*
X1390Y178D01*
D02*
X1201Y1298D02*
X1332Y1298D01*
D02*
X1182Y1756D02*
X1182Y88D01*
D02*
X1182Y88D02*
X1560Y88D01*
D02*
X1345Y1756D02*
X1182Y1756D01*
D02*
X1560Y88D02*
X1561Y134D01*
D02*
X1201Y106D02*
X1201Y1298D01*
D02*
X1475Y106D02*
X1201Y106D01*
G54D20*
D02*
X1562Y2020D02*
X761Y2020D01*
D02*
X1562Y1973D02*
X1562Y2020D01*
D02*
X761Y2020D02*
X763Y1773D01*
D02*
X1283Y1469D02*
X1283Y1656D01*
D02*
X1283Y1656D02*
X1345Y1656D01*
D02*
X2257Y1410D02*
X2080Y1410D01*
D02*
X2257Y2021D02*
X2257Y1410D01*
D02*
X1944Y2021D02*
X2257Y2021D01*
D02*
X1878Y1956D02*
X1946Y1955D01*
D02*
X1946Y1955D02*
X1944Y2021D01*
D02*
X567Y457D02*
X745Y455D01*
G54D19*
D02*
X1647Y134D02*
X1647Y69D01*
G54D20*
D02*
X1124Y1908D02*
X2061Y1908D01*
D02*
X2061Y1908D02*
X2061Y1939D01*
D02*
X1409Y1456D02*
X1856Y1456D01*
D02*
X1348Y1456D02*
X1394Y1456D01*
D02*
X1348Y1414D02*
X1348Y1456D01*
G54D19*
D02*
X1804Y51D02*
X96Y51D01*
D02*
X1804Y101D02*
X1804Y51D01*
D02*
X405Y1812D02*
X624Y1812D01*
D02*
X403Y69D02*
X405Y1812D01*
D02*
X1647Y69D02*
X403Y69D01*
D02*
X2195Y1316D02*
X1930Y1316D01*
D02*
X2195Y72D02*
X2195Y1316D01*
D02*
X3247Y72D02*
X2195Y72D01*
D02*
X1754Y1508D02*
X1754Y1757D01*
D02*
X1930Y1508D02*
X1754Y1508D01*
D02*
X1754Y1757D02*
X1846Y1757D01*
D02*
X3247Y134D02*
X3247Y72D01*
D02*
X1930Y1316D02*
X1930Y1508D01*
D02*
X523Y1104D02*
X763Y1104D01*
D02*
X763Y1104D02*
X763Y1073D01*
D02*
X96Y51D02*
X97Y1096D01*
G54D20*
D02*
X972Y1098D02*
X972Y474D01*
D02*
X820Y474D02*
X820Y356D01*
G54D19*
D02*
X1432Y306D02*
X1246Y306D01*
D02*
X1246Y982D02*
X1348Y982D01*
D02*
X1348Y982D02*
X1348Y1082D01*
D02*
X1246Y306D02*
X1246Y982D01*
D02*
X1433Y278D02*
X1432Y306D01*
G54D20*
D02*
X1032Y1098D02*
X972Y1098D01*
D02*
X972Y474D02*
X820Y474D01*
D02*
X1050Y458D02*
X1050Y849D01*
D02*
X1050Y849D02*
X1124Y850D01*
D02*
X1124Y850D02*
X1124Y1908D01*
D02*
X3171Y719D02*
X3161Y712D01*
D02*
X3161Y712D02*
X3161Y378D01*
D02*
X820Y356D02*
X781Y355D01*
G54D19*
D02*
X2298Y93D02*
X2298Y1849D01*
D02*
X3165Y93D02*
X2298Y93D01*
G54D20*
D02*
X2175Y1756D02*
X2078Y1756D01*
D02*
X2175Y1897D02*
X2175Y1756D01*
G54D19*
D02*
X41Y1405D02*
X237Y1405D01*
D02*
X237Y1405D02*
X235Y1252D01*
D02*
X3353Y253D02*
X3354Y17D01*
D02*
X3205Y209D02*
X3323Y202D01*
D02*
X3323Y202D02*
X3326Y33D01*
D02*
X235Y1252D02*
X181Y1254D01*
D02*
X41Y16D02*
X41Y1405D01*
D02*
X3314Y255D02*
X3353Y253D01*
D02*
X3354Y16D02*
X41Y16D01*
D02*
X3162Y134D02*
X3165Y93D01*
D02*
X3326Y33D02*
X64Y33D01*
G54D20*
D02*
X762Y973D02*
X760Y1003D01*
D02*
X760Y1003D02*
X928Y1003D01*
D02*
X3119Y1556D02*
X2903Y1556D01*
G54D19*
D02*
X3418Y1081D02*
X3119Y1081D01*
D02*
X3119Y1081D02*
X3119Y1556D01*
D02*
X3418Y314D02*
X3418Y1081D01*
D02*
X64Y1355D02*
X145Y1355D01*
D02*
X64Y33D02*
X64Y1355D01*
D02*
X3205Y234D02*
X3205Y209D01*
D02*
X1421Y484D02*
X1421Y1079D01*
D02*
X1831Y484D02*
X1421Y484D01*
D02*
X1831Y305D02*
X1831Y484D01*
D02*
X1518Y305D02*
X1831Y305D01*
D02*
X3349Y307D02*
X3339Y1036D01*
D02*
X3339Y1036D02*
X3033Y1036D01*
D02*
X3033Y1036D02*
X3033Y1244D01*
D02*
X3033Y306D02*
X3349Y307D01*
G54D20*
D02*
X2947Y300D02*
X2721Y302D01*
D02*
X2721Y302D02*
X2714Y1037D01*
D02*
X2947Y278D02*
X2947Y300D01*
D02*
X1461Y1511D02*
X1461Y1698D01*
G54D19*
D02*
X3033Y278D02*
X3033Y306D01*
D02*
X3033Y1244D02*
X2475Y1244D01*
D02*
X1519Y278D02*
X1518Y305D01*
D02*
X2370Y1301D02*
X2376Y276D01*
G54D20*
D02*
X428Y903D02*
X428Y1766D01*
D02*
X428Y1766D02*
X689Y1766D01*
D02*
X689Y1766D02*
X689Y2084D01*
D02*
X689Y2084D02*
X2655Y2084D01*
D02*
X2655Y1836D02*
X2955Y1836D01*
D02*
X2955Y2084D02*
X3375Y2084D01*
D02*
X2955Y1836D02*
X2955Y2084D01*
D02*
X3375Y2084D02*
X3375Y2020D01*
D02*
X2655Y2084D02*
X2655Y1836D01*
D02*
X762Y873D02*
X761Y904D01*
D02*
X761Y904D02*
X428Y903D01*
D02*
X3006Y1799D02*
X2895Y1799D01*
D02*
X2895Y1799D02*
X2895Y1564D01*
D02*
X2003Y949D02*
X2005Y737D01*
D02*
X369Y356D02*
X369Y2008D01*
D02*
X181Y355D02*
X369Y356D01*
G54D19*
D02*
X526Y1504D02*
X894Y1506D01*
G54D20*
D02*
X317Y456D02*
X325Y1495D01*
D02*
X181Y455D02*
X317Y456D01*
D02*
X985Y1198D02*
X985Y1554D01*
D02*
X1032Y1198D02*
X985Y1198D01*
D02*
X1847Y1096D02*
X1848Y1096D01*
D02*
X1847Y908D02*
X1847Y1096D01*
D02*
X1389Y421D02*
X1389Y378D01*
D02*
X1314Y421D02*
X1389Y421D01*
D02*
X1314Y679D02*
X1314Y421D01*
D02*
X3006Y1409D02*
X2908Y1410D01*
D02*
X2989Y378D02*
X2989Y886D01*
D02*
X2989Y886D02*
X2797Y886D01*
D02*
X1878Y1656D02*
X2043Y1652D01*
D02*
X2593Y1756D02*
X2593Y1471D01*
D02*
X2593Y1471D02*
X2891Y1471D01*
D02*
X2891Y1471D02*
X2891Y1427D01*
D02*
X2478Y1756D02*
X2593Y1756D01*
G54D19*
D02*
X2431Y1300D02*
X2431Y122D01*
D02*
X2431Y122D02*
X2775Y122D01*
D02*
X2775Y122D02*
X2775Y206D01*
D02*
X2775Y206D02*
X3075Y206D01*
D02*
X3075Y206D02*
X3075Y178D01*
G04 End of Copper1*
M02*