G04 MADE WITH FRITZING*
G04 WWW.FRITZING.ORG*
G04 DOUBLE SIDED*
G04 HOLES PLATED*
G04 CONTOUR ON CENTER OF CONTOUR VECTOR*
%ASAXBY*%
%FSLAX23Y23*%
%MOIN*%
%OFA0B0*%
%SFA1.0B1.0*%
%ADD10C,0.200000*%
%ADD11R,0.031496X0.011811*%
%ADD12R,0.011811X0.031496*%
%ADD13R,0.001000X0.001000*%
%LNPASTEMASK1*%
G90*
G70*
G54D10*
X1163Y1127D03*
X2148Y1127D03*
X1163Y1127D03*
X2148Y1127D03*
X936Y920D03*
X936Y920D03*
X936Y220D03*
X936Y220D03*
G54D11*
X1577Y1152D03*
X1734Y1093D03*
X1734Y1171D03*
X1577Y1132D03*
G54D12*
X1646Y1201D03*
G54D11*
X1577Y1112D03*
X1734Y1132D03*
X1577Y1093D03*
G54D12*
X1685Y1201D03*
G54D11*
X1577Y1073D03*
G54D12*
X1606Y1201D03*
X1606Y1043D03*
G54D11*
X1734Y1112D03*
G54D12*
X1626Y1043D03*
G54D11*
X1734Y1152D03*
G54D12*
X1646Y1043D03*
X1705Y1201D03*
X1665Y1043D03*
X1665Y1201D03*
X1685Y1043D03*
X1626Y1201D03*
X1705Y1043D03*
G54D11*
X1734Y1073D03*
X1577Y1171D03*
G54D13*
X1Y1007D02*
X1Y1007D01*
X1Y1006D02*
X3Y1006D01*
X1Y1005D02*
X4Y1005D01*
X1Y1004D02*
X6Y1004D01*
X1Y1003D02*
X8Y1003D01*
X1Y1002D02*
X9Y1002D01*
X1Y1001D02*
X10Y1001D01*
X1Y1000D02*
X12Y1000D01*
X1Y999D02*
X13Y999D01*
X1Y998D02*
X14Y998D01*
X1Y997D02*
X16Y997D01*
X1Y996D02*
X17Y996D01*
X1Y995D02*
X18Y995D01*
X1Y994D02*
X19Y994D01*
X1Y993D02*
X20Y993D01*
X1Y992D02*
X21Y992D01*
X1Y991D02*
X22Y991D01*
X1Y990D02*
X23Y990D01*
X1Y989D02*
X24Y989D01*
X1Y988D02*
X25Y988D01*
X1Y987D02*
X26Y987D01*
X1Y986D02*
X27Y986D01*
X1Y985D02*
X28Y985D01*
X1Y984D02*
X29Y984D01*
X1Y983D02*
X29Y983D01*
X1Y982D02*
X30Y982D01*
X1Y981D02*
X31Y981D01*
X1Y980D02*
X32Y980D01*
X1Y979D02*
X32Y979D01*
X1Y978D02*
X33Y978D01*
X1Y977D02*
X34Y977D01*
X1Y976D02*
X35Y976D01*
X1Y975D02*
X35Y975D01*
X1Y974D02*
X36Y974D01*
X1Y973D02*
X37Y973D01*
X1Y972D02*
X37Y972D01*
X1Y971D02*
X38Y971D01*
X1Y970D02*
X38Y970D01*
X1Y969D02*
X39Y969D01*
X1Y968D02*
X40Y968D01*
X1Y967D02*
X40Y967D01*
X1Y966D02*
X41Y966D01*
X1Y965D02*
X41Y965D01*
X1Y964D02*
X42Y964D01*
X2Y963D02*
X42Y963D01*
X3Y962D02*
X43Y962D01*
X3Y961D02*
X43Y961D01*
X4Y960D02*
X44Y960D01*
X5Y959D02*
X44Y959D01*
X6Y958D02*
X44Y958D01*
X6Y957D02*
X45Y957D01*
X7Y956D02*
X45Y956D01*
X8Y955D02*
X46Y955D01*
X8Y954D02*
X46Y954D01*
X9Y953D02*
X46Y953D01*
X10Y952D02*
X47Y952D01*
X10Y951D02*
X47Y951D01*
X11Y950D02*
X47Y950D01*
X11Y949D02*
X48Y949D01*
X12Y948D02*
X48Y948D01*
X12Y947D02*
X48Y947D01*
X12Y946D02*
X48Y946D01*
X13Y945D02*
X49Y945D01*
X13Y944D02*
X49Y944D01*
X14Y943D02*
X49Y943D01*
X14Y942D02*
X49Y942D01*
X14Y941D02*
X50Y941D01*
X15Y940D02*
X50Y940D01*
X15Y939D02*
X50Y939D01*
X15Y938D02*
X50Y938D01*
X16Y937D02*
X50Y937D01*
X16Y936D02*
X50Y936D01*
X16Y935D02*
X51Y935D01*
X16Y934D02*
X51Y934D01*
X17Y933D02*
X51Y933D01*
X17Y932D02*
X51Y932D01*
X17Y931D02*
X51Y931D01*
X17Y930D02*
X51Y930D01*
X17Y929D02*
X51Y929D01*
X17Y928D02*
X51Y928D01*
X17Y927D02*
X52Y927D01*
X18Y926D02*
X52Y926D01*
X18Y925D02*
X52Y925D01*
X18Y924D02*
X52Y924D01*
X18Y923D02*
X52Y923D01*
X18Y922D02*
X52Y922D01*
X18Y921D02*
X52Y921D01*
X18Y920D02*
X52Y920D01*
X18Y919D02*
X52Y919D01*
X18Y918D02*
X52Y918D01*
X18Y917D02*
X52Y917D01*
X18Y916D02*
X52Y916D01*
X18Y915D02*
X52Y915D01*
X18Y914D02*
X52Y914D01*
X17Y913D02*
X51Y913D01*
X17Y912D02*
X51Y912D01*
X17Y911D02*
X51Y911D01*
X17Y910D02*
X51Y910D01*
X17Y909D02*
X51Y909D01*
X17Y908D02*
X51Y908D01*
X17Y907D02*
X51Y907D01*
X16Y906D02*
X51Y906D01*
X16Y905D02*
X51Y905D01*
X16Y904D02*
X50Y904D01*
X16Y903D02*
X50Y903D01*
X15Y902D02*
X50Y902D01*
X15Y901D02*
X50Y901D01*
X15Y900D02*
X50Y900D01*
X14Y899D02*
X49Y899D01*
X14Y898D02*
X49Y898D01*
X14Y897D02*
X49Y897D01*
X13Y896D02*
X49Y896D01*
X13Y895D02*
X49Y895D01*
X12Y894D02*
X48Y894D01*
X12Y893D02*
X48Y893D01*
X11Y892D02*
X48Y892D01*
X11Y891D02*
X47Y891D01*
X10Y890D02*
X47Y890D01*
X10Y889D02*
X47Y889D01*
X9Y888D02*
X46Y888D01*
X9Y887D02*
X46Y887D01*
X8Y886D02*
X46Y886D01*
X8Y885D02*
X45Y885D01*
X7Y884D02*
X45Y884D01*
X6Y883D02*
X45Y883D01*
X5Y882D02*
X44Y882D01*
X5Y881D02*
X44Y881D01*
X4Y880D02*
X43Y880D01*
X3Y879D02*
X43Y879D01*
X2Y878D02*
X42Y878D01*
X1Y877D02*
X42Y877D01*
X1Y876D02*
X41Y876D01*
X1Y875D02*
X41Y875D01*
X1Y874D02*
X40Y874D01*
X1Y873D02*
X40Y873D01*
X1Y872D02*
X39Y872D01*
X1Y871D02*
X39Y871D01*
X1Y870D02*
X38Y870D01*
X1Y869D02*
X38Y869D01*
X1Y868D02*
X37Y868D01*
X1Y867D02*
X36Y867D01*
X1Y866D02*
X36Y866D01*
X1Y865D02*
X35Y865D01*
X1Y864D02*
X34Y864D01*
X1Y863D02*
X34Y863D01*
X1Y862D02*
X33Y862D01*
X1Y861D02*
X32Y861D01*
X1Y860D02*
X31Y860D01*
X1Y859D02*
X31Y859D01*
X1Y858D02*
X30Y858D01*
X1Y857D02*
X29Y857D01*
X1Y856D02*
X28Y856D01*
X1Y855D02*
X28Y855D01*
X1Y854D02*
X27Y854D01*
X1Y853D02*
X26Y853D01*
X1Y852D02*
X25Y852D01*
X1Y851D02*
X24Y851D01*
X1Y850D02*
X23Y850D01*
X1Y849D02*
X22Y849D01*
X1Y848D02*
X21Y848D01*
X1Y847D02*
X20Y847D01*
X1Y846D02*
X19Y846D01*
X1Y845D02*
X18Y845D01*
X1Y844D02*
X16Y844D01*
X1Y843D02*
X15Y843D01*
X1Y842D02*
X14Y842D01*
X1Y841D02*
X13Y841D01*
X1Y840D02*
X11Y840D01*
X1Y839D02*
X10Y839D01*
X1Y838D02*
X9Y838D01*
X1Y837D02*
X7Y837D01*
X1Y836D02*
X6Y836D01*
X1Y835D02*
X4Y835D01*
X1Y834D02*
X2Y834D01*
X1Y833D02*
X1Y833D01*
X1Y307D02*
X1Y307D01*
X1Y306D02*
X3Y306D01*
X1Y305D02*
X5Y305D01*
X1Y304D02*
X6Y304D01*
X1Y303D02*
X8Y303D01*
X1Y302D02*
X9Y302D01*
X1Y301D02*
X10Y301D01*
X1Y300D02*
X12Y300D01*
X1Y299D02*
X13Y299D01*
X1Y298D02*
X15Y298D01*
X1Y297D02*
X16Y297D01*
X1Y296D02*
X17Y296D01*
X1Y295D02*
X18Y295D01*
X1Y294D02*
X19Y294D01*
X1Y293D02*
X20Y293D01*
X1Y292D02*
X21Y292D01*
X1Y291D02*
X22Y291D01*
X1Y290D02*
X23Y290D01*
X1Y289D02*
X24Y289D01*
X1Y288D02*
X25Y288D01*
X1Y287D02*
X26Y287D01*
X1Y286D02*
X27Y286D01*
X1Y285D02*
X28Y285D01*
X1Y284D02*
X29Y284D01*
X1Y283D02*
X30Y283D01*
X1Y282D02*
X30Y282D01*
X1Y281D02*
X31Y281D01*
X1Y280D02*
X32Y280D01*
X1Y279D02*
X33Y279D01*
X1Y278D02*
X33Y278D01*
X1Y277D02*
X34Y277D01*
X1Y276D02*
X35Y276D01*
X1Y275D02*
X35Y275D01*
X1Y274D02*
X36Y274D01*
X1Y273D02*
X37Y273D01*
X1Y272D02*
X37Y272D01*
X1Y271D02*
X38Y271D01*
X1Y270D02*
X38Y270D01*
X1Y269D02*
X39Y269D01*
X1Y268D02*
X40Y268D01*
X1Y267D02*
X40Y267D01*
X1Y266D02*
X41Y266D01*
X1Y265D02*
X41Y265D01*
X1Y264D02*
X42Y264D01*
X2Y263D02*
X42Y263D01*
X3Y262D02*
X43Y262D01*
X3Y261D02*
X43Y261D01*
X4Y260D02*
X44Y260D01*
X5Y259D02*
X44Y259D01*
X6Y258D02*
X44Y258D01*
X6Y257D02*
X45Y257D01*
X7Y256D02*
X45Y256D01*
X8Y255D02*
X46Y255D01*
X8Y254D02*
X46Y254D01*
X9Y253D02*
X46Y253D01*
X10Y252D02*
X47Y252D01*
X10Y251D02*
X47Y251D01*
X11Y250D02*
X47Y250D01*
X11Y249D02*
X48Y249D01*
X12Y248D02*
X48Y248D01*
X12Y247D02*
X48Y247D01*
X12Y246D02*
X48Y246D01*
X13Y245D02*
X49Y245D01*
X13Y244D02*
X49Y244D01*
X14Y243D02*
X49Y243D01*
X14Y242D02*
X49Y242D01*
X14Y241D02*
X50Y241D01*
X15Y240D02*
X50Y240D01*
X15Y239D02*
X50Y239D01*
X15Y238D02*
X50Y238D01*
X16Y237D02*
X50Y237D01*
X16Y236D02*
X50Y236D01*
X16Y235D02*
X51Y235D01*
X16Y234D02*
X51Y234D01*
X17Y233D02*
X51Y233D01*
X17Y232D02*
X51Y232D01*
X17Y231D02*
X51Y231D01*
X17Y230D02*
X51Y230D01*
X17Y229D02*
X51Y229D01*
X17Y228D02*
X51Y228D01*
X18Y227D02*
X52Y227D01*
X18Y226D02*
X52Y226D01*
X18Y225D02*
X52Y225D01*
X18Y224D02*
X52Y224D01*
X18Y223D02*
X52Y223D01*
X18Y222D02*
X52Y222D01*
X18Y221D02*
X52Y221D01*
X18Y220D02*
X52Y220D01*
X18Y219D02*
X52Y219D01*
X18Y218D02*
X52Y218D01*
X18Y217D02*
X52Y217D01*
X18Y216D02*
X52Y216D01*
X18Y215D02*
X52Y215D01*
X18Y214D02*
X52Y214D01*
X17Y213D02*
X51Y213D01*
X17Y212D02*
X51Y212D01*
X17Y211D02*
X51Y211D01*
X17Y210D02*
X51Y210D01*
X17Y209D02*
X51Y209D01*
X17Y208D02*
X51Y208D01*
X17Y207D02*
X51Y207D01*
X16Y206D02*
X51Y206D01*
X16Y205D02*
X51Y205D01*
X16Y204D02*
X50Y204D01*
X16Y203D02*
X50Y203D01*
X15Y202D02*
X50Y202D01*
X15Y201D02*
X50Y201D01*
X15Y200D02*
X50Y200D01*
X14Y199D02*
X49Y199D01*
X14Y198D02*
X49Y198D01*
X13Y197D02*
X49Y197D01*
X13Y196D02*
X49Y196D01*
X13Y195D02*
X49Y195D01*
X12Y194D02*
X48Y194D01*
X12Y193D02*
X48Y193D01*
X11Y192D02*
X48Y192D01*
X11Y191D02*
X47Y191D01*
X10Y190D02*
X47Y190D01*
X10Y189D02*
X47Y189D01*
X9Y188D02*
X46Y188D01*
X9Y187D02*
X46Y187D01*
X8Y186D02*
X46Y186D01*
X7Y185D02*
X45Y185D01*
X7Y184D02*
X45Y184D01*
X6Y183D02*
X45Y183D01*
X5Y182D02*
X44Y182D01*
X5Y181D02*
X44Y181D01*
X4Y180D02*
X43Y180D01*
X3Y179D02*
X43Y179D01*
X2Y178D02*
X42Y178D01*
X1Y177D02*
X42Y177D01*
X1Y176D02*
X41Y176D01*
X1Y175D02*
X41Y175D01*
X1Y174D02*
X40Y174D01*
X1Y173D02*
X40Y173D01*
X1Y172D02*
X39Y172D01*
X1Y171D02*
X39Y171D01*
X1Y170D02*
X38Y170D01*
X1Y169D02*
X37Y169D01*
X1Y168D02*
X37Y168D01*
X1Y167D02*
X36Y167D01*
X1Y166D02*
X36Y166D01*
X1Y165D02*
X35Y165D01*
X1Y164D02*
X34Y164D01*
X1Y163D02*
X34Y163D01*
X1Y162D02*
X33Y162D01*
X1Y161D02*
X32Y161D01*
X1Y160D02*
X31Y160D01*
X1Y159D02*
X31Y159D01*
X1Y158D02*
X30Y158D01*
X1Y157D02*
X29Y157D01*
X1Y156D02*
X28Y156D01*
X1Y155D02*
X27Y155D01*
X1Y154D02*
X27Y154D01*
X1Y153D02*
X26Y153D01*
X1Y152D02*
X25Y152D01*
X1Y151D02*
X24Y151D01*
X1Y150D02*
X23Y150D01*
X1Y149D02*
X22Y149D01*
X1Y148D02*
X21Y148D01*
X1Y147D02*
X20Y147D01*
X1Y146D02*
X19Y146D01*
X1Y145D02*
X17Y145D01*
X1Y144D02*
X16Y144D01*
X1Y143D02*
X15Y143D01*
X1Y142D02*
X14Y142D01*
X1Y141D02*
X13Y141D01*
X1Y140D02*
X11Y140D01*
X1Y139D02*
X10Y139D01*
X1Y138D02*
X9Y138D01*
X1Y137D02*
X7Y137D01*
X1Y136D02*
X5Y136D01*
X1Y135D02*
X4Y135D01*
X1Y134D02*
X2Y134D01*
D02*
G04 End of PasteMask1*
M02*